<svg xmlns="http://www.w3.org/2000/svg" xmlns:xlink="http://www.w3.org/1999/xlink" xmlns:lucid="lucid" width="968" height="1211"><g transform="translate(-12 -20)" lucid:page-tab-id="0_0"><path d="M167.25 47.25c0 4-3.25 7.25-7.25 7.25s-7.25-3.25-7.25-7.25S156 40 160 40s7.25 3.25 7.25 7.25z" stroke="#000" stroke-width="2" fill="#fff"/><path d="M140 45c0-2.76 2.24-5 5-5h30c2.76 0 5 2.24 5 5v48c0 2.76-2.24 5-5 5h-30c-2.76 0-5-2.24-5-5z" fill="none"/><path d="M160 54.5v15.3c0 2.76 1.46 6.7 3.26 8.8L180 98m-20-23.2L140 98m0-36.25h40" stroke="#000" stroke-width="2" fill="none"/><path d="M160 120v1100" fill="none"/><path d="M160 120v9.9m0 9.92v19.82m0 9.9v19.83m0 9.9v19.83m0 9.9v19.83m0 9.9v19.83m0 9.9v19.83m0 9.9v19.82m0 9.9v19.83m0 9.9v19.83m0 9.9v19.83m0 9.92v19.82m0 9.9v19.83m0 9.9v19.83m0 9.9v19.83m0 9.9v19.83m0 9.9v19.83m0 9.9v19.82m0 9.9v19.83m0 9.9v19.82m0 9.9v19.83m0 9.9v19.83m0 9.9v19.83m0 9.9v19.83m0 9.9v19.82m0 9.9v19.83m0 9.9v19.83m0 9.9v19.83m0 9.92v19.82m0 9.9v19.83m0 9.9v19.83m0 9.9v19.83m0 9.9v19.83m0 9.9V1111m0 9.9v19.82m0 9.9v19.83m0 9.9v19.83m0 9.9v9.92" stroke="#000" stroke-width="2" fill="none"/><path d="M161 120h-2v-3h2z"/><path d="M320 45c0-2.76 2.24-5 5-5h150c2.76 0 5 2.24 5 5v50c0 2.76-2.24 5-5 5H325c-2.76 0-5-2.24-5-5z" stroke="#000" stroke-width="2" fill="#fff"/><use xlink:href="#a" transform="matrix(1,0,0,1,320,40) translate(53.37537037037037 33.16666666666667)"/><path d="M560 45c0-2.76 2.24-5 5-5h150c2.76 0 5 2.24 5 5v50c0 2.76-2.24 5-5 5H565c-2.76 0-5-2.24-5-5z" stroke="#000" stroke-width="2" fill="#fff"/><use xlink:href="#b" transform="matrix(1,0,0,1,560,40) translate(54.07907407407408 33.16666666666667)"/><path d="M800 45c0-2.76 2.24-5 5-5h150c2.76 0 5 2.24 5 5v50c0 2.76-2.24 5-5 5H805c-2.76 0-5-2.24-5-5z" stroke="#000" stroke-width="2" fill="#fff"/><use xlink:href="#c" transform="matrix(1,0,0,1,799.9999999999999,40) translate(54.13462962962962 33.16666666666667)"/><path d="M400 101v1107" fill="none"/><path d="M400 101v9.97m0 9.98v19.94m0 9.96v19.95m0 9.98v19.95m0 9.97v19.95m0 9.97v19.95m0 9.97v19.95m0 9.96v19.95m0 9.98v19.94m0 9.98v19.94m0 9.98v19.94m0 9.98v19.94m0 9.97V470m0 9.97v19.95m0 9.97v19.94m0 9.97v19.96m0 9.97v19.95m0 9.97v19.94m0 9.97v19.94m0 10v19.93m0 9.98v19.95m0 9.97v19.95m0 9.97v19.95m0 9.96v19.95m0 9.98v19.95m0 9.97v19.95m0 9.97v19.94m0 9.98v19.94m0 9.98v19.94m0 9.98v19.94m0 9.97v19.94m0 9.97v19.96m0 9.97v19.95m0 9.97v19.95m0 9.97v19.95m0 9.97v19.94m0 9.97v19.95m0 9.98v9.97" stroke="#000" stroke-width="2" fill="none"/><path d="M401 101h-2v-1h2z"/><path d="M640 101v1012.33" fill="none"/><path d="M640 101v9.92m0 9.93v19.85m0 9.92v19.85m0 9.93v19.85m0 9.92v19.85m0 9.93v19.85m0 9.92v19.85m0 9.93v19.85m0 9.92v19.85m0 9.93v19.85m0 9.92v19.85m0 9.92v19.84m0 9.93v19.85m0 9.92V498m0 9.92v19.85m0 9.92v19.84m0 9.93v19.85m0 9.92v19.85m0 9.92v19.85m0 9.92v19.84m0 9.93v19.85m0 9.92v19.85m0 9.9v19.86m0 9.93v19.84m0 9.92v19.85m0 9.94v19.85m0 9.9v19.86m0 9.93v19.84m0 9.92v19.85m0 9.94v19.85m0 9.9v19.86m0 9.92v19.85m0 9.93v19.85m0 9.93v19.85m0 9.93v9.93" stroke="#000" stroke-width="2" fill="none"/><path d="M641 101h-2v-1h2z"/><path d="M880 101v971" fill="none"/><path d="M880 101v10.1m0 10.13v20.23m0 10.1v20.24m0 10.12v20.23m0 10.1v20.24m0 10.1v20.23m0 10.12v20.23m0 10.1v20.24m0 10.12v20.22m0 10.12v20.23m0 10.12v20.23m0 10.12v20.23m0 10.1v20.24m0 10.1v20.24m0 10.12v20.23m0 10.1v20.24m0 10.12v20.2m0 10.13v20.23m0 10.1v20.24m0 10.12v20.23m0 10.1V718m0 10.1v20.23m0 10.12v20.23m0 10.1v20.24m0 10.12v20.22m0 10.12v20.23m0 10.12v20.23m0 10.12v20.23m0 10.1v20.24m0 10.1v20.24m0 10.12v20.23m0 10.1v20.24m0 10.12v10.1" stroke="#000" stroke-width="2" fill="none"/><path d="M881 101h-2v-1h2z"/><path d="M160 160h203.84" stroke="#000" stroke-width="2" fill="none"/><path d="M378.84 160l-14.27 4.64v-9.28z" stroke="#000" stroke-width="2"/><use xlink:href="#d" transform="matrix(1,0,0,1,210.36973247675428,140) translate(0 10.666666666666668)"/><use xlink:href="#e" transform="matrix(1,0,0,1,210.36973247675428,140) translate(29.555555555555564 10.666666666666668)"/><use xlink:href="#f" transform="matrix(1,0,0,1,210.36973247675428,140) translate(73.1851851851852 10.666666666666668)"/><path d="M380 165c0-2.76 2.24-5 5-5h30c2.76 0 5 2.24 5 5v950c0 2.76-2.24 5-5 5h-30c-2.76 0-5-2.24-5-5zM620 323c0-2.76 2.24-5 5-5h30c2.76 0 5 2.24 5 5v752c0 2.76-2.24 5-5 5h-30c-2.76 0-5-2.24-5-5zM860 705c0-2.76 2.24-5 5-5h30c2.76 0 5 2.24 5 5v330c0 2.76-2.24 5-5 5h-30c-2.76 0-5-2.24-5-5z" stroke="#000" stroke-width="2" fill="#fff"/><path d="M178.24 200H380" fill="none"/><path d="M178.24 200h3.02m4.04 0h6.05m4.04 0h6.04m4.03 0h6.06m4.03 0h6.06m4.03 0h6.05m4.04 0h6.05m4.03 0h6.05m4.04 0h6.05m4.03 0h6.06m4.03 0h6.04m4.04 0h6.05m4.04 0h6.05m4.04 0h6.05m4.04 0h6.06m4.03 0h6.06m4.02 0h6.05m4.04 0h6.06m4.04 0h6.05m4.04 0h6.04m4.03 0H380" stroke="#000" stroke-width="2" fill="none"/><path d="M163.24 200l14.26-4.64v9.28z" stroke="#000" stroke-width="2"/><use xlink:href="#g" transform="matrix(1,0,0,1,191.5740740740743,179.99999999999997) translate(0 10.666666666666668)"/><use xlink:href="#e" transform="matrix(1,0,0,1,191.5740740740743,179.99999999999997) translate(34.77777777777778 10.666666666666668)"/><use xlink:href="#h" transform="matrix(1,0,0,1,191.5740740740743,179.99999999999997) translate(78.40740740740742 10.666666666666668)"/><use xlink:href="#i" transform="matrix(1,0,0,1,191.5740740740743,179.99999999999997) translate(130.25925925925927 10.666666666666668)"/><path d="M160 240h200.76" stroke="#000" stroke-width="2" fill="none"/><path d="M375.76 240l-14.26 4.64v-9.28z"/><path d="M379 240l-18.5 6v-12zm-16.5 3.26l10.03-3.26-10.03-3.26z"/><use xlink:href="#j" transform="matrix(1,0,0,1,225.0925925925926,219.99999999999997) translate(0 10.666666666666668)"/><use xlink:href="#k" transform="matrix(1,0,0,1,225.0925925925926,219.99999999999997) translate(50.37037037037037 10.666666666666668)"/><path d="M340 285c0-2.76 2.24-5 5-5h90c2.76 0 5 2.24 5 5v10c0 2.76-1.58 6.58-3.54 8.54l-2.92 2.92c-1.96 1.96-5.78 3.54-8.54 3.54h-80c-2.76 0-5-2.24-5-5z" fill="#fff"/><path d="M340 285c0-2.76 2.24-5 5-5h100c2.76 0 5 2.24 5 5v130c0 2.76-2.24 5-5 5H345c-2.76 0-5-2.24-5-5z" stroke="#000" stroke-width="2" fill="none"/><path d="M440 280v20l-10 10h-90" stroke="#000" stroke-width="2" fill="#fff"/><use xlink:href="#l" transform="matrix(1,0,0,1,348,280) translate(0 17.666666666666668)"/><path d="M421 340h59v40h-40.76" stroke="#000" stroke-width="2" fill="none"/><path d="M424.24 380l14.26-4.64v9.28z" stroke="#000" stroke-width="2"/><use xlink:href="#m" transform="matrix(1,0,0,1,488.00000000000006,352.00000000000034) translate(0 10.666666666666668)"/><path d="M32 445c0-2.76 2.24-5 5-5h90c2.76 0 5 2.24 5 5v10c0 2.76-1.58 6.58-3.54 8.54l-2.92 2.92c-1.96 1.96-5.78 3.54-8.54 3.54H37c-2.76 0-5-2.24-5-5z" fill="#fff"/><path d="M132 440v20l-10 10H32" stroke="#000" stroke-width="2" fill="none"/><path d="M32 445c0-2.76 2.24-5 5-5h918c2.76 0 5 2.24 5 5v730c0 2.76-2.24 5-5 5H37c-2.76 0-5-2.24-5-5zM32 555h20m15 0h20m15 0h20m15 0h20m15 0h20m15 0h20m15 0h20m15 0h20m15 0h20m15 0h20m15 0h20m15 0h20m15 0h20m15 0h20m15 0h20m15 0h20m15 0h20m15 0h20m15 0h20m15 0h20m15 0h20m15 0h20m15 0h20m15 0h20m15 0h20m15 0h20m15 0h18" stroke="#000" stroke-width="2" fill="none"/><use xlink:href="#n" transform="matrix(1,0,0,1,40,440) translate(0 17.666666666666668)"/><use xlink:href="#o" transform="matrix(1,0,0,1,44,478) translate(0 10.666666666666668)"/><use xlink:href="#p" transform="matrix(1,0,0,1,44,478) translate(24.407407407407405 10.666666666666668)"/><use xlink:href="#q" transform="matrix(1,0,0,1,44,478) translate(41.370370370370374 10.666666666666668)"/><use xlink:href="#r" transform="matrix(1,0,0,1,44,478) translate(0 26.666666666666668)"/><use xlink:href="#s" transform="matrix(1,0,0,1,44,563) translate(0 17.666666666666668)"/><use xlink:href="#t" transform="matrix(1,0,0,1,44,563) translate(16.96296296296297 17.666666666666668)"/><use xlink:href="#u" transform="matrix(1,0,0,1,44,563) translate(69.44444444444446 17.666666666666668)"/><path d="M377.75 518h-199.5" fill="none"/><path d="M377.75 518h-3m-4 0h-5.97m-4 0h-5.98m-4 0h-5.97m-4 0h-5.98m-4 0h-5.97m-4 0h-5.98m-4 0h-5.98m-4 0h-5.97m-4 0h-5.98m-4 0H275m-4 0h-5.98m-4 0h-5.97m-4 0h-5.98m-4 0h-5.97m-4 0h-5.98m-4 0h-5.97m-4 0h-5.98m-4 0h-5.98m-4 0h-5.98m-4 0h-2.98" stroke="#000" stroke-width="2" fill="none"/><path d="M163.24 518l14.26-4.64v9.28z" stroke="#000" stroke-width="2"/><use xlink:href="#v" transform="matrix(1,0,0,1,185.0024867724868,498) translate(0 10.666666666666668)"/><use xlink:href="#w" transform="matrix(1,0,0,1,185.0024867724868,498) translate(35.44444444444445 10.666666666666668)"/><use xlink:href="#x" transform="matrix(1,0,0,1,185.0024867724868,498) translate(84.22222222222223 10.666666666666668)"/><use xlink:href="#y" transform="matrix(1,0,0,1,185.0024867724868,498) translate(136.70370370370372 10.666666666666668)"/><path d="M421 620h179.76" stroke="#000" stroke-width="2" fill="none"/><path d="M421 621h-1v-2h1zM615.76 620l-14.26 4.64v-9.28z"/><path d="M619 620l-18.5 6v-12zm-16.5 3.26l10.03-3.26-10.03-3.26z"/><use xlink:href="#z" transform="matrix(1,0,0,1,447.1111111111111,600) translate(0 10.666666666666668)"/><use xlink:href="#A" transform="matrix(1,0,0,1,447.1111111111111,600) translate(56.96296296296297 10.666666666666668)"/><use xlink:href="#k" transform="matrix(1,0,0,1,447.1111111111111,600) translate(107.33333333333334 10.666666666666668)"/><path d="M585 664c0-2.76 2.24-5 5-5h90c2.76 0 5 2.24 5 5v10c0 2.76-1.58 6.58-3.54 8.54l-2.92 2.92c-1.96 1.96-5.78 3.54-8.54 3.54h-80c-2.76 0-5-2.24-5-5z" fill="#fff"/><path d="M585 664c0-2.76 2.24-5 5-5h100c2.76 0 5 2.24 5 5v111c0 2.76-2.24 5-5 5H590c-2.76 0-5-2.24-5-5z" stroke="#000" stroke-width="2" fill="none"/><path d="M685 659v20l-10 10h-90" stroke="#000" stroke-width="2" fill="#fff"/><use xlink:href="#l" transform="matrix(1,0,0,1,593,659) translate(0 17.666666666666668)"/><path d="M695 700h148.84" stroke="#000" stroke-width="2" fill="none"/><path d="M858.84 700l-14.27 4.64v-9.28z"/><path d="M862.07 700l-18.5 6v-12zm-16.5 3.26L855.6 700l-10.03-3.26z"/><use xlink:href="#B" transform="matrix(1,0,0,1,733.0363991434209,680) translate(0 10.666666666666668)"/><path d="M714.24 760H860" fill="none"/><path d="M714.24 760h2.9m3.9 0h5.83m3.9 0h5.82m3.87 0h5.83m3.9 0H756m3.9 0h5.82m3.9 0h5.82m3.88 0h5.83m3.9 0h5.82m3.88 0h5.83m3.9 0h5.83m3.88 0h5.84m3.9 0h5.82m3.9 0h5.82m3.9 0h5.82m3.88 0H860" stroke="#000" stroke-width="2" fill="none"/><path d="M699.24 760l14.26-4.64v9.28z" stroke="#000" stroke-width="2"/><use xlink:href="#C" transform="matrix(1,0,0,1,717.6851851851852,740) translate(0 10.666666666666668)"/><use xlink:href="#D" transform="matrix(1,0,0,1,717.6851851851852,740) translate(38.44444444444445 10.666666666666668)"/><path d="M50 805c0-2.76 2.24-5 5-5h90c2.76 0 5 2.24 5 5v10c0 2.76-1.58 6.58-3.54 8.54l-2.92 2.92c-1.96 1.96-5.78 3.54-8.54 3.54H55c-2.76 0-5-2.24-5-5z" fill="#fff"/><path d="M150 800v20l-10 10H50" stroke="#000" stroke-width="2" fill="none"/><path d="M50 805c0-2.76 2.24-5 5-5h880c2.76 0 5 2.24 5 5v350c0 2.76-2.24 5-5 5H55c-2.76 0-5-2.24-5-5zM50 915h20m15 0h20m15 0h20m15 0h20m15 0h20m15 0h20m15 0h20m15 0h20m15 0h20m15 0h20m15 0h20m15 0h20m15 0h20m15 0h20m15 0h20m15 0h20m15 0h20m15 0h20m15 0h20m15 0h20m15 0h20m15 0h20m15 0h20m15 0h20m15 0h20m15 0h15" stroke="#000" stroke-width="2" fill="none"/><use xlink:href="#n" transform="matrix(1,0,0,1,58,800) translate(0 17.666666666666668)"/><use xlink:href="#E" transform="matrix(1,0,0,1,62,838) translate(0 10.666666666666668)"/><use xlink:href="#F" transform="matrix(1,0,0,1,62,838) translate(50.37037037037037 10.666666666666668)"/><use xlink:href="#G" transform="matrix(1,0,0,1,62,838) translate(0 26.666666666666668)"/><use xlink:href="#H" transform="matrix(1,0,0,1,62,923) translate(0 10.666666666666668)"/><use xlink:href="#I" transform="matrix(1,0,0,1,62,923) translate(50.37037037037037 10.666666666666668)"/><use xlink:href="#J" transform="matrix(1,0,0,1,62,923) translate(0 26.666666666666668)"/><use xlink:href="#K" transform="matrix(1,0,0,1,62,923) translate(22.22222222222222 26.666666666666668)"/><path d="M439.24 840H620" fill="none"/><path d="M439.24 840h3m4.03 0h6.02m4 0h6.03m4.02 0h6.03m4 0h6.04m4.02 0h6.02m4.02 0h6.02m4.02 0h6.03m4 0h6.04m4 0h6.03m4.02 0h6.02m4.02 0h6.02m4 0h6.04m4.02 0h6.02m4.02 0h6.02m4.02 0h6.03m4 0h6.03m4 0h6.04m4.02 0h3" stroke="#000" stroke-width="2" fill="none"/><path d="M438.5 844.64L424.24 840l14.26-4.64z"/><path d="M439.5 846l-18.5-6 18.5-6zm-12.03-6l10.03 3.26v-6.52z"/><use xlink:href="#j" transform="matrix(1,0,0,1,454.6296296296296,820) translate(0 10.666666666666668)"/><use xlink:href="#L" transform="matrix(1,0,0,1,454.6296296296296,820) translate(50.37037037037037 10.666666666666668)"/><use xlink:href="#M" transform="matrix(1,0,0,1,454.6296296296296,820) translate(97.7037037037037 10.666666666666668)"/><path d="M178.24 880H380" fill="none"/><path d="M178.24 880h3.02m4.04 0h6.05m4.04 0h6.04m4.03 0h6.06m4.03 0h6.06m4.03 0h6.05m4.04 0h6.05m4.03 0h6.05m4.04 0h6.05m4.03 0h6.06m4.03 0h6.04m4.04 0h6.05m4.04 0h6.05m4.04 0h6.05m4.04 0h6.06m4.03 0h6.06m4.02 0h6.05m4.04 0h6.06m4.04 0h6.05m4.04 0h6.04m4.03 0H380" stroke="#000" stroke-width="2" fill="none"/><path d="M163.24 880l14.26-4.64v9.28z" stroke="#000" stroke-width="2"/><g><use xlink:href="#N" transform="matrix(1,0,0,1,186.77777777777777,860) translate(0 10.666666666666668)"/><use xlink:href="#A" transform="matrix(1,0,0,1,186.77777777777777,860) translate(34.70370370370371 10.666666666666668)"/><use xlink:href="#L" transform="matrix(1,0,0,1,186.77777777777777,860) translate(85.07407407407408 10.666666666666668)"/><use xlink:href="#M" transform="matrix(1,0,0,1,186.77777777777777,860) translate(132.40740740740742 10.666666666666668)"/></g><path d="M660 960h180.76" stroke="#000" stroke-width="2" fill="none"/><path d="M855.76 960l-14.26 4.64v-9.28z"/><path d="M859 960l-18.5 6v-12zm-16.5 3.26l10.03-3.26-10.03-3.26z"/><g><use xlink:href="#O" transform="matrix(1,0,0,1,715.8148148148148,940) translate(0 10.666666666666668)"/><use xlink:href="#P" transform="matrix(1,0,0,1,715.8148148148148,940) translate(40.7037037037037 10.666666666666668)"/></g><path d="M679.24 1000H860" fill="none"/><path d="M679.24 1000h3m4.03 0h6.02m4 0h6.03m4.02 0h6.03m4 0h6.04m4.02 0h6.02m4.02 0h6.02m4.02 0h6.03m4 0h6.04m4 0h6.03m4.02 0h6.02m4.02 0h6.02m4 0h6.04m4.02 0h6.02m4.02 0h6.02m4.02 0h6.03m4 0h6.03m4 0h6.04m4.02 0h3" stroke="#000" stroke-width="2" fill="none"/><path d="M678.5 1004.64l-14.26-4.64 14.26-4.64z"/><path d="M679.5 1006l-18.5-6 18.5-6zm-12.03-6l10.03 3.26v-6.52z"/><g><use xlink:href="#j" transform="matrix(1,0,0,1,713.1111111111111,980) translate(0 10.666666666666668)"/><use xlink:href="#Q" transform="matrix(1,0,0,1,713.1111111111111,980) translate(50.37037037037037 10.666666666666668)"/></g><path d="M439.24 1040H620" fill="none"/><path d="M439.24 1040h3m4.03 0h6.02m4 0h6.03m4.02 0h6.03m4 0h6.04m4.02 0h6.02m4.02 0h6.02m4.02 0h6.03m4 0h6.04m4 0h6.03m4.02 0h6.02m4.02 0h6.02m4 0h6.04m4.02 0h6.02m4.02 0h6.02m4.02 0h6.03m4 0h6.03m4 0h6.04m4.02 0h3" stroke="#000" stroke-width="2" fill="none"/><path d="M438.5 1044.64l-14.26-4.64 14.26-4.64z"/><path d="M439.5 1046l-18.5-6 18.5-6zm-12.03-6l10.03 3.26v-6.52z"/><g><use xlink:href="#j" transform="matrix(1,0,0,1,473.11111111111154,1020) translate(0 10.666666666666668)"/><use xlink:href="#Q" transform="matrix(1,0,0,1,473.11111111111154,1020) translate(50.37037037037037 10.666666666666668)"/></g><path d="M178.24 1080H380" fill="none"/><path d="M178.24 1080h3.02m4.04 0h6.05m4.04 0h6.04m4.03 0h6.06m4.03 0h6.06m4.03 0h6.05m4.04 0h6.05m4.03 0h6.05m4.04 0h6.05m4.03 0h6.06m4.03 0h6.04m4.04 0h6.05m4.04 0h6.05m4.04 0h6.05m4.04 0h6.06m4.03 0h6.06m4.02 0h6.05m4.04 0h6.06m4.04 0h6.05m4.04 0h6.04m4.03 0H380" stroke="#000" stroke-width="2" fill="none"/><path d="M163.24 1080l14.26-4.64v9.28z" stroke="#000" stroke-width="2"/><g><use xlink:href="#R" transform="matrix(1,0,0,1,194.83333333333337,1060) translate(0 10.666666666666668)"/><use xlink:href="#A" transform="matrix(1,0,0,1,194.83333333333337,1060) translate(55.55555555555557 10.666666666666668)"/><use xlink:href="#Q" transform="matrix(1,0,0,1,194.83333333333337,1060) translate(105.92592592592594 10.666666666666668)"/></g><defs><path d="M63-220v92h138v28H63V0H30v-248h175v28H63" id="S"/><path d="M114-163C36-179 61-72 57 0H25l-1-190h30c1 12-1 29 2 39 6-27 23-49 58-41v29" id="T"/><path d="M100-194c62-1 85 37 85 99 1 63-27 99-86 99S16-35 15-95c0-66 28-99 85-99zM99-20c44 1 53-31 53-75 0-43-8-75-51-75s-53 32-53 75 10 74 51 75" id="U"/><path d="M117-194c89-4 53 116 60 194h-32v-121c0-31-8-49-39-48C34-167 62-67 57 0H25l-1-190h30c1 10-1 24 2 32 11-22 29-35 61-36" id="V"/><path d="M59-47c-2 24 18 29 38 22v24C64 9 27 4 27-40v-127H5v-23h24l9-43h21v43h35v23H59v120" id="W"/><path d="M100-194c63 0 86 42 84 106H49c0 40 14 67 53 68 26 1 43-12 49-29l28 8c-11 28-37 45-77 45C44 4 14-33 15-96c1-61 26-98 85-98zm52 81c6-60-76-77-97-28-3 7-6 17-6 28h103" id="X"/><path d="M85-194c31 0 48 13 60 33l-1-100h32l1 261h-30c-2-10 0-23-3-31C134-8 116 4 85 4 32 4 16-35 15-94c0-66 23-100 70-100zm9 24c-40 0-46 34-46 75 0 40 6 74 45 74 42 0 51-32 51-76 0-42-9-74-50-73" id="Y"/><g id="a"><use transform="matrix(0.03703703703703704,0,0,0.03703703703703704,0,0)" xlink:href="#S"/><use transform="matrix(0.03703703703703704,0,0,0.03703703703703704,8.111111111111112,0)" xlink:href="#T"/><use transform="matrix(0.03703703703703704,0,0,0.03703703703703704,12.51851851851852,0)" xlink:href="#U"/><use transform="matrix(0.03703703703703704,0,0,0.03703703703703704,19.925925925925934,0)" xlink:href="#V"/><use transform="matrix(0.03703703703703704,0,0,0.03703703703703704,27.333333333333343,0)" xlink:href="#W"/><use transform="matrix(0.03703703703703704,0,0,0.03703703703703704,31.037037037037045,0)" xlink:href="#X"/><use transform="matrix(0.03703703703703704,0,0,0.03703703703703704,38.44444444444446,0)" xlink:href="#V"/><use transform="matrix(0.03703703703703704,0,0,0.03703703703703704,45.851851851851855,0)" xlink:href="#Y"/><path d="M-.67.92h54.6v.98H-.68z"/></g><path d="M160-131c35 5 61 23 61 61C221 17 115-2 30 0v-248c76 3 177-17 177 60 0 33-19 50-47 57zm-97-11c50-1 110 9 110-42 0-47-63-36-110-37v79zm0 115c55-2 124 14 124-45 0-56-70-42-124-44v89" id="Z"/><path d="M141-36C126-15 110 5 73 4 37 3 15-17 15-53c-1-64 63-63 125-63 3-35-9-54-41-54-24 1-41 7-42 31l-33-3c5-37 33-52 76-52 45 0 72 20 72 64v82c-1 20 7 32 28 27v20c-31 9-61-2-59-35zM48-53c0 20 12 33 32 33 41-3 63-29 60-74-43 2-92-5-92 41" id="aa"/><path d="M96-169c-40 0-48 33-48 73s9 75 48 75c24 0 41-14 43-38l32 2c-6 37-31 61-74 61-59 0-76-41-82-99-10-93 101-131 147-64 4 7 5 14 7 22l-32 3c-4-21-16-35-41-35" id="ab"/><path d="M143 0L79-87 56-68V0H24v-261h32v163l83-92h37l-77 82L181 0h-38" id="ac"/><g id="b"><use transform="matrix(0.03703703703703704,0,0,0.03703703703703704,0,0)" xlink:href="#Z"/><use transform="matrix(0.03703703703703704,0,0,0.03703703703703704,8.88888888888889,0)" xlink:href="#aa"/><use transform="matrix(0.03703703703703704,0,0,0.03703703703703704,16.296296296296298,0)" xlink:href="#ab"/><use transform="matrix(0.03703703703703704,0,0,0.03703703703703704,22.962962962962965,0)" xlink:href="#ac"/><use transform="matrix(0.03703703703703704,0,0,0.03703703703703704,29.629629629629633,0)" xlink:href="#X"/><use transform="matrix(0.03703703703703704,0,0,0.03703703703703704,37.03703703703704,0)" xlink:href="#V"/><use transform="matrix(0.03703703703703704,0,0,0.03703703703703704,44.44444444444444,0)" xlink:href="#Y"/><path d="M-.67.92h53.2v.98H-.68z"/></g><path d="M24-231v-30h32v30H24zM24 0v-190h32V0H24" id="ad"/><path d="M115-194c53 0 69 39 70 98 0 66-23 100-70 100C84 3 66-7 56-30L54 0H23l1-261h32v101c10-23 28-34 59-34zm-8 174c40 0 45-34 45-75 0-40-5-75-45-74-42 0-51 32-51 76 0 43 10 73 51 73" id="ae"/><path d="M135-143c-3-34-86-38-87 0 15 53 115 12 119 90S17 21 10-45l28-5c4 36 97 45 98 0-10-56-113-15-118-90-4-57 82-63 122-42 12 7 21 19 24 35" id="af"/><g id="c"><use transform="matrix(0.03703703703703704,0,0,0.03703703703703704,0,0)" xlink:href="#S"/><use transform="matrix(0.03703703703703704,0,0,0.03703703703703704,8.111111111111112,0)" xlink:href="#ad"/><use transform="matrix(0.03703703703703704,0,0,0.03703703703703704,11.037037037037038,0)" xlink:href="#T"/><use transform="matrix(0.03703703703703704,0,0,0.03703703703703704,15.444444444444446,0)" xlink:href="#X"/><use transform="matrix(0.03703703703703704,0,0,0.03703703703703704,22.851851851851855,0)" xlink:href="#ae"/><use transform="matrix(0.03703703703703704,0,0,0.03703703703703704,30.259259259259263,0)" xlink:href="#aa"/><use transform="matrix(0.03703703703703704,0,0,0.03703703703703704,37.66666666666667,0)" xlink:href="#af"/><use transform="matrix(0.03703703703703704,0,0,0.03703703703703704,44.333333333333336,0)" xlink:href="#X"/><path d="M-.67.92H52.4v.98H-.67z"/></g><path d="M24 0v-261h32V0H24" id="ag"/><g id="d"><use transform="matrix(0.03703703703703704,0,0,0.03703703703703704,0,0)" xlink:href="#ab"/><use transform="matrix(0.03703703703703704,0,0,0.03703703703703704,6.666666666666668,0)" xlink:href="#ag"/><use transform="matrix(0.03703703703703704,0,0,0.03703703703703704,9.592592592592595,0)" xlink:href="#ad"/><use transform="matrix(0.03703703703703704,0,0,0.03703703703703704,12.518518518518523,0)" xlink:href="#ab"/><use transform="matrix(0.03703703703703704,0,0,0.03703703703703704,19.18518518518519,0)" xlink:href="#ac"/></g><path d="M212-179c-10-28-35-45-73-45-59 0-87 40-87 99 0 60 29 101 89 101 43 0 62-24 78-52l27 14C228-24 195 4 139 4 59 4 22-46 18-125c-6-104 99-153 187-111 19 9 31 26 39 46" id="ah"/><g id="e"><use transform="matrix(0.03703703703703704,0,0,0.03703703703703704,0,0)" xlink:href="#ah"/><use transform="matrix(0.03703703703703704,0,0,0.03703703703703704,9.592592592592593,0)" xlink:href="#T"/><use transform="matrix(0.03703703703703704,0,0,0.03703703703703704,14.000000000000002,0)" xlink:href="#X"/><use transform="matrix(0.03703703703703704,0,0,0.03703703703703704,21.407407407407412,0)" xlink:href="#aa"/><use transform="matrix(0.03703703703703704,0,0,0.03703703703703704,28.81481481481482,0)" xlink:href="#W"/><use transform="matrix(0.03703703703703704,0,0,0.03703703703703704,32.518518518518526,0)" xlink:href="#X"/></g><path d="M205 0l-28-72H64L36 0H1l101-248h38L239 0h-34zm-38-99l-47-123c-12 45-31 82-46 123h93" id="ai"/><path d="M84 4C-5 8 30-112 23-190h32v120c0 31 7 50 39 49 72-2 45-101 50-169h31l1 190h-30c-1-10 1-25-2-33-11 22-28 36-60 37" id="aj"/><g id="f"><use transform="matrix(0.03703703703703704,0,0,0.03703703703703704,0,0)" xlink:href="#ai"/><use transform="matrix(0.03703703703703704,0,0,0.03703703703703704,8.88888888888889,0)" xlink:href="#ab"/><use transform="matrix(0.03703703703703704,0,0,0.03703703703703704,15.555555555555557,0)" xlink:href="#ab"/><use transform="matrix(0.03703703703703704,0,0,0.03703703703703704,22.222222222222225,0)" xlink:href="#U"/><use transform="matrix(0.03703703703703704,0,0,0.03703703703703704,29.629629629629633,0)" xlink:href="#aj"/><use transform="matrix(0.03703703703703704,0,0,0.03703703703703704,37.03703703703704,0)" xlink:href="#V"/><use transform="matrix(0.03703703703703704,0,0,0.03703703703703704,44.44444444444444,0)" xlink:href="#W"/></g><path d="M106-169C34-169 62-67 57 0H25v-261h32l-1 103c12-21 28-36 61-36 89 0 53 116 60 194h-32v-121c2-32-8-49-39-48" id="ak"/><path d="M206 0h-36l-40-164L89 0H53L-1-190h32L70-26l43-164h34l41 164 42-164h31" id="al"/><g id="g"><use transform="matrix(0.03703703703703704,0,0,0.03703703703703704,0,0)" xlink:href="#af"/><use transform="matrix(0.03703703703703704,0,0,0.03703703703703704,6.666666666666668,0)" xlink:href="#ak"/><use transform="matrix(0.03703703703703704,0,0,0.03703703703703704,14.074074074074076,0)" xlink:href="#U"/><use transform="matrix(0.03703703703703704,0,0,0.03703703703703704,21.481481481481485,0)" xlink:href="#al"/></g><g id="h"><use transform="matrix(0.03703703703703704,0,0,0.03703703703703704,0,0)" xlink:href="#ai"/><use transform="matrix(0.03703703703703704,0,0,0.03703703703703704,8.88888888888889,0)" xlink:href="#ab"/><use transform="matrix(0.03703703703703704,0,0,0.03703703703703704,15.555555555555557,0)" xlink:href="#ab"/><use transform="matrix(0.03703703703703704,0,0,0.03703703703703704,22.222222222222225,0)" xlink:href="#U"/><use transform="matrix(0.03703703703703704,0,0,0.03703703703703704,29.629629629629633,0)" xlink:href="#aj"/><use transform="matrix(0.03703703703703704,0,0,0.03703703703703704,37.03703703703704,0)" xlink:href="#V"/><use transform="matrix(0.03703703703703704,0,0,0.03703703703703704,44.44444444444444,0)" xlink:href="#W"/></g><path d="M101-234c-31-9-42 10-38 44h38v23H63V0H32v-167H5v-23h27c-7-52 17-82 69-68v24" id="am"/><path d="M210-169c-67 3-38 105-44 169h-31v-121c0-29-5-50-35-48C34-165 62-65 56 0H25l-1-190h30c1 10-1 24 2 32 10-44 99-50 107 0 11-21 27-35 58-36 85-2 47 119 55 194h-31v-121c0-29-5-49-35-48" id="an"/><g id="i"><use transform="matrix(0.03703703703703704,0,0,0.03703703703703704,0,0)" xlink:href="#am"/><use transform="matrix(0.03703703703703704,0,0,0.03703703703703704,3.703703703703704,0)" xlink:href="#U"/><use transform="matrix(0.03703703703703704,0,0,0.03703703703703704,11.111111111111112,0)" xlink:href="#T"/><use transform="matrix(0.03703703703703704,0,0,0.03703703703703704,15.51851851851852,0)" xlink:href="#an"/></g><g id="j"><use transform="matrix(0.03703703703703704,0,0,0.03703703703703704,0,0)" xlink:href="#aa"/><use transform="matrix(0.03703703703703704,0,0,0.03703703703703704,7.407407407407408,0)" xlink:href="#ab"/><use transform="matrix(0.03703703703703704,0,0,0.03703703703703704,14.074074074074076,0)" xlink:href="#ab"/><use transform="matrix(0.03703703703703704,0,0,0.03703703703703704,20.740740740740744,0)" xlink:href="#U"/><use transform="matrix(0.03703703703703704,0,0,0.03703703703703704,28.148148148148152,0)" xlink:href="#aj"/><use transform="matrix(0.03703703703703704,0,0,0.03703703703703704,35.55555555555556,0)" xlink:href="#V"/><use transform="matrix(0.03703703703703704,0,0,0.03703703703703704,42.96296296296296,0)" xlink:href="#W"/></g><g id="k"><use transform="matrix(0.03703703703703704,0,0,0.03703703703703704,0,0)" xlink:href="#Y"/><use transform="matrix(0.03703703703703704,0,0,0.03703703703703704,7.407407407407408,0)" xlink:href="#X"/><use transform="matrix(0.03703703703703704,0,0,0.03703703703703704,14.814814814814817,0)" xlink:href="#W"/><use transform="matrix(0.03703703703703704,0,0,0.03703703703703704,18.51851851851852,0)" xlink:href="#aa"/><use transform="matrix(0.03703703703703704,0,0,0.03703703703703704,25.92592592592593,0)" xlink:href="#ad"/><use transform="matrix(0.03703703703703704,0,0,0.03703703703703704,28.851851851851855,0)" xlink:href="#ag"/><use transform="matrix(0.03703703703703704,0,0,0.03703703703703704,31.777777777777782,0)" xlink:href="#af"/></g><g id="l"><use transform="matrix(0.03703703703703704,0,0,0.03703703703703704,0,0)" xlink:href="#aa"/><use transform="matrix(0.03703703703703704,0,0,0.03703703703703704,7.407407407407408,0)" xlink:href="#af"/><use transform="matrix(0.03703703703703704,0,0,0.03703703703703704,14.074074074074076,0)" xlink:href="#af"/><use transform="matrix(0.03703703703703704,0,0,0.03703703703703704,20.740740740740744,0)" xlink:href="#X"/><use transform="matrix(0.03703703703703704,0,0,0.03703703703703704,28.148148148148152,0)" xlink:href="#T"/><use transform="matrix(0.03703703703703704,0,0,0.03703703703703704,32.55555555555556,0)" xlink:href="#W"/></g><path d="M233-177c-1 41-23 64-60 70L243 0h-38l-65-103H63V0H30v-248c88 3 205-21 203 71zM63-129c60-2 137 13 137-47 0-61-80-42-137-45v92" id="ao"/><path d="M145-31C134-9 116 4 85 4 32 4 16-35 15-94c0-59 17-99 70-100 32-1 48 14 60 33 0-11-1-24 2-32h30l-1 268h-32zM93-21c41 0 51-33 51-76s-8-73-50-73c-40 0-46 35-46 75s5 74 45 74" id="ap"/><path d="M87 75C49 33 22-17 22-94c0-76 28-126 65-167h31c-38 41-64 92-64 168S80 34 118 75H87" id="aq"/><path d="M33-261c38 41 65 92 65 168S71 34 33 75H2C39 34 66-17 66-93S39-220 2-261h31" id="ar"/><g id="m"><use transform="matrix(0.03703703703703704,0,0,0.03703703703703704,0,0)" xlink:href="#ad"/><use transform="matrix(0.03703703703703704,0,0,0.03703703703703704,2.9259259259259265,0)" xlink:href="#af"/><use transform="matrix(0.03703703703703704,0,0,0.03703703703703704,9.592592592592595,0)" xlink:href="#ai"/><use transform="matrix(0.03703703703703704,0,0,0.03703703703703704,18.481481481481485,0)" xlink:href="#ag"/><use transform="matrix(0.03703703703703704,0,0,0.03703703703703704,21.407407407407412,0)" xlink:href="#ag"/><use transform="matrix(0.03703703703703704,0,0,0.03703703703703704,24.33333333333334,0)" xlink:href="#ao"/><use transform="matrix(0.03703703703703704,0,0,0.03703703703703704,33.92592592592593,0)" xlink:href="#X"/><use transform="matrix(0.03703703703703704,0,0,0.03703703703703704,41.333333333333336,0)" xlink:href="#ap"/><use transform="matrix(0.03703703703703704,0,0,0.03703703703703704,48.74074074074075,0)" xlink:href="#aj"/><use transform="matrix(0.03703703703703704,0,0,0.03703703703703704,56.14814814814815,0)" xlink:href="#ad"/><use transform="matrix(0.03703703703703704,0,0,0.03703703703703704,59.074074074074076,0)" xlink:href="#T"/><use transform="matrix(0.03703703703703704,0,0,0.03703703703703704,63.48148148148148,0)" xlink:href="#X"/><use transform="matrix(0.03703703703703704,0,0,0.03703703703703704,70.88888888888889,0)" xlink:href="#Y"/><use transform="matrix(0.03703703703703704,0,0,0.03703703703703704,78.29629629629629,0)" xlink:href="#S"/><use transform="matrix(0.03703703703703704,0,0,0.03703703703703704,86.4074074074074,0)" xlink:href="#ad"/><use transform="matrix(0.03703703703703704,0,0,0.03703703703703704,89.33333333333333,0)" xlink:href="#X"/><use transform="matrix(0.03703703703703704,0,0,0.03703703703703704,96.74074074074073,0)" xlink:href="#ag"/><use transform="matrix(0.03703703703703704,0,0,0.03703703703703704,99.66666666666666,0)" xlink:href="#Y"/><use transform="matrix(0.03703703703703704,0,0,0.03703703703703704,107.07407407407405,0)" xlink:href="#af"/><use transform="matrix(0.03703703703703704,0,0,0.03703703703703704,113.74074074074073,0)" xlink:href="#aq"/><use transform="matrix(0.03703703703703704,0,0,0.03703703703703704,118.14814814814812,0)" xlink:href="#ar"/></g><path d="M108 0H70L1-190h34L89-25l56-165h34" id="as"/><g id="n"><use transform="matrix(0.03703703703703704,0,0,0.03703703703703704,0,0)" xlink:href="#ai"/><use transform="matrix(0.03703703703703704,0,0,0.03703703703703704,8.88888888888889,0)" xlink:href="#ag"/><use transform="matrix(0.03703703703703704,0,0,0.03703703703703704,11.814814814814817,0)" xlink:href="#W"/><use transform="matrix(0.03703703703703704,0,0,0.03703703703703704,15.51851851851852,0)" xlink:href="#X"/><use transform="matrix(0.03703703703703704,0,0,0.03703703703703704,22.925925925925927,0)" xlink:href="#T"/><use transform="matrix(0.03703703703703704,0,0,0.03703703703703704,27.333333333333343,0)" xlink:href="#V"/><use transform="matrix(0.03703703703703704,0,0,0.03703703703703704,34.74074074074075,0)" xlink:href="#aa"/><use transform="matrix(0.03703703703703704,0,0,0.03703703703703704,42.14814814814815,0)" xlink:href="#W"/><use transform="matrix(0.03703703703703704,0,0,0.03703703703703704,45.851851851851855,0)" xlink:href="#ad"/><use transform="matrix(0.03703703703703704,0,0,0.03703703703703704,48.77777777777778,0)" xlink:href="#as"/><use transform="matrix(0.03703703703703704,0,0,0.03703703703703704,55.44444444444444,0)" xlink:href="#X"/></g><path d="M190 0L58-211 59 0H30v-248h39L202-35l-2-213h31V0h-41" id="at"/><g id="o"><use transform="matrix(0.03703703703703704,0,0,0.03703703703703704,0,0)" xlink:href="#at"/><use transform="matrix(0.03703703703703704,0,0,0.03703703703703704,9.592592592592593,0)" xlink:href="#U"/><use transform="matrix(0.03703703703703704,0,0,0.03703703703703704,17,0)" xlink:href="#W"/></g><g id="p"><use transform="matrix(0.03703703703703704,0,0,0.03703703703703704,0,0)" xlink:href="#aa"/><use transform="matrix(0.03703703703703704,0,0,0.03703703703703704,7.407407407407408,0)" xlink:href="#ag"/><use transform="matrix(0.03703703703703704,0,0,0.03703703703703704,10.333333333333334,0)" xlink:href="#ag"/></g><g id="q"><use transform="matrix(0.03703703703703704,0,0,0.03703703703703704,0,0)" xlink:href="#T"/><use transform="matrix(0.03703703703703704,0,0,0.03703703703703704,4.407407407407408,0)" xlink:href="#X"/><use transform="matrix(0.03703703703703704,0,0,0.03703703703703704,11.814814814814817,0)" xlink:href="#ap"/><use transform="matrix(0.03703703703703704,0,0,0.03703703703703704,19.222222222222225,0)" xlink:href="#aj"/><use transform="matrix(0.03703703703703704,0,0,0.03703703703703704,26.629629629629633,0)" xlink:href="#ad"/><use transform="matrix(0.03703703703703704,0,0,0.03703703703703704,29.55555555555556,0)" xlink:href="#T"/><use transform="matrix(0.03703703703703704,0,0,0.03703703703703704,33.96296296296297,0)" xlink:href="#X"/><use transform="matrix(0.03703703703703704,0,0,0.03703703703703704,41.37037037037038,0)" xlink:href="#Y"/></g><g id="r"><use transform="matrix(0.03703703703703704,0,0,0.03703703703703704,0,0)" xlink:href="#am"/><use transform="matrix(0.03703703703703704,0,0,0.03703703703703704,3.703703703703704,0)" xlink:href="#ad"/><use transform="matrix(0.03703703703703704,0,0,0.03703703703703704,6.629629629629631,0)" xlink:href="#X"/><use transform="matrix(0.03703703703703704,0,0,0.03703703703703704,14.037037037037038,0)" xlink:href="#ag"/><use transform="matrix(0.03703703703703704,0,0,0.03703703703703704,16.962962962962965,0)" xlink:href="#Y"/><use transform="matrix(0.03703703703703704,0,0,0.03703703703703704,24.370370370370374,0)" xlink:href="#af"/></g><g id="s"><use transform="matrix(0.03703703703703704,0,0,0.03703703703703704,0,0)" xlink:href="#aa"/><use transform="matrix(0.03703703703703704,0,0,0.03703703703703704,7.407407407407408,0)" xlink:href="#ag"/><use transform="matrix(0.03703703703703704,0,0,0.03703703703703704,10.333333333333334,0)" xlink:href="#ag"/></g><g id="t"><use transform="matrix(0.03703703703703704,0,0,0.03703703703703704,0,0)" xlink:href="#T"/><use transform="matrix(0.03703703703703704,0,0,0.03703703703703704,4.407407407407408,0)" xlink:href="#X"/><use transform="matrix(0.03703703703703704,0,0,0.03703703703703704,11.814814814814817,0)" xlink:href="#ap"/><use transform="matrix(0.03703703703703704,0,0,0.03703703703703704,19.222222222222225,0)" xlink:href="#aj"/><use transform="matrix(0.03703703703703704,0,0,0.03703703703703704,26.629629629629633,0)" xlink:href="#ad"/><use transform="matrix(0.03703703703703704,0,0,0.03703703703703704,29.55555555555556,0)" xlink:href="#T"/><use transform="matrix(0.03703703703703704,0,0,0.03703703703703704,33.96296296296297,0)" xlink:href="#X"/><use transform="matrix(0.03703703703703704,0,0,0.03703703703703704,41.37037037037038,0)" xlink:href="#Y"/></g><g id="u"><use transform="matrix(0.03703703703703704,0,0,0.03703703703703704,0,0)" xlink:href="#am"/><use transform="matrix(0.03703703703703704,0,0,0.03703703703703704,3.703703703703704,0)" xlink:href="#ad"/><use transform="matrix(0.03703703703703704,0,0,0.03703703703703704,6.629629629629631,0)" xlink:href="#X"/><use transform="matrix(0.03703703703703704,0,0,0.03703703703703704,14.037037037037038,0)" xlink:href="#ag"/><use transform="matrix(0.03703703703703704,0,0,0.03703703703703704,16.962962962962965,0)" xlink:href="#Y"/><use transform="matrix(0.03703703703703704,0,0,0.03703703703703704,24.370370370370374,0)" xlink:href="#af"/></g><path d="M33-154v-36h34v36H33zM33 0v-36h34V0H33" id="au"/><g id="v"><use transform="matrix(0.03703703703703704,0,0,0.03703703703703704,0,0)" xlink:href="#X"/><use transform="matrix(0.03703703703703704,0,0,0.03703703703703704,7.407407407407408,0)" xlink:href="#T"/><use transform="matrix(0.03703703703703704,0,0,0.03703703703703704,11.814814814814817,0)" xlink:href="#T"/><use transform="matrix(0.03703703703703704,0,0,0.03703703703703704,16.222222222222225,0)" xlink:href="#U"/><use transform="matrix(0.03703703703703704,0,0,0.03703703703703704,23.629629629629633,0)" xlink:href="#T"/><use transform="matrix(0.03703703703703704,0,0,0.03703703703703704,28.03703703703704,0)" xlink:href="#au"/></g><path d="M177-190C167-65 218 103 67 71c-23-6-38-20-44-43l32-5c15 47 100 32 89-28v-30C133-14 115 1 83 1 29 1 15-40 15-95c0-56 16-97 71-98 29-1 48 16 59 35 1-10 0-23 2-32h30zM94-22c36 0 50-32 50-73 0-42-14-75-50-75-39 0-46 34-46 75s6 73 46 73" id="av"/><g id="w"><use transform="matrix(0.03703703703703704,0,0,0.03703703703703704,0,0)" xlink:href="#an"/><use transform="matrix(0.03703703703703704,0,0,0.03703703703703704,11.074074074074076,0)" xlink:href="#ad"/><use transform="matrix(0.03703703703703704,0,0,0.03703703703703704,14.000000000000004,0)" xlink:href="#af"/><use transform="matrix(0.03703703703703704,0,0,0.03703703703703704,20.666666666666668,0)" xlink:href="#af"/><use transform="matrix(0.03703703703703704,0,0,0.03703703703703704,27.333333333333343,0)" xlink:href="#ad"/><use transform="matrix(0.03703703703703704,0,0,0.03703703703703704,30.259259259259267,0)" xlink:href="#V"/><use transform="matrix(0.03703703703703704,0,0,0.03703703703703704,37.66666666666667,0)" xlink:href="#av"/></g><g id="x"><use transform="matrix(0.03703703703703704,0,0,0.03703703703703704,0,0)" xlink:href="#T"/><use transform="matrix(0.03703703703703704,0,0,0.03703703703703704,4.407407407407408,0)" xlink:href="#X"/><use transform="matrix(0.03703703703703704,0,0,0.03703703703703704,11.814814814814817,0)" xlink:href="#ap"/><use transform="matrix(0.03703703703703704,0,0,0.03703703703703704,19.222222222222225,0)" xlink:href="#aj"/><use transform="matrix(0.03703703703703704,0,0,0.03703703703703704,26.629629629629633,0)" xlink:href="#ad"/><use transform="matrix(0.03703703703703704,0,0,0.03703703703703704,29.55555555555556,0)" xlink:href="#T"/><use transform="matrix(0.03703703703703704,0,0,0.03703703703703704,33.96296296296297,0)" xlink:href="#X"/><use transform="matrix(0.03703703703703704,0,0,0.03703703703703704,41.37037037037038,0)" xlink:href="#Y"/></g><g id="y"><use transform="matrix(0.03703703703703704,0,0,0.03703703703703704,0,0)" xlink:href="#am"/><use transform="matrix(0.03703703703703704,0,0,0.03703703703703704,3.703703703703704,0)" xlink:href="#ad"/><use transform="matrix(0.03703703703703704,0,0,0.03703703703703704,6.629629629629631,0)" xlink:href="#X"/><use transform="matrix(0.03703703703703704,0,0,0.03703703703703704,14.037037037037038,0)" xlink:href="#ag"/><use transform="matrix(0.03703703703703704,0,0,0.03703703703703704,16.962962962962965,0)" xlink:href="#Y"/><use transform="matrix(0.03703703703703704,0,0,0.03703703703703704,24.370370370370374,0)" xlink:href="#af"/></g><g id="z"><use transform="matrix(0.03703703703703704,0,0,0.03703703703703704,0,0)" xlink:href="#as"/><use transform="matrix(0.03703703703703704,0,0,0.03703703703703704,6.666666666666668,0)" xlink:href="#aa"/><use transform="matrix(0.03703703703703704,0,0,0.03703703703703704,14.074074074074076,0)" xlink:href="#ag"/><use transform="matrix(0.03703703703703704,0,0,0.03703703703703704,17.000000000000004,0)" xlink:href="#ad"/><use transform="matrix(0.03703703703703704,0,0,0.03703703703703704,19.925925925925934,0)" xlink:href="#Y"/><use transform="matrix(0.03703703703703704,0,0,0.03703703703703704,27.333333333333343,0)" xlink:href="#aa"/><use transform="matrix(0.03703703703703704,0,0,0.03703703703703704,34.74074074074075,0)" xlink:href="#W"/><use transform="matrix(0.03703703703703704,0,0,0.03703703703703704,38.44444444444445,0)" xlink:href="#X"/><use transform="matrix(0.03703703703703704,0,0,0.03703703703703704,45.851851851851855,0)" xlink:href="#Y"/></g><g id="A"><use transform="matrix(0.03703703703703704,0,0,0.03703703703703704,0,0)" xlink:href="#aa"/><use transform="matrix(0.03703703703703704,0,0,0.03703703703703704,7.407407407407408,0)" xlink:href="#ab"/><use transform="matrix(0.03703703703703704,0,0,0.03703703703703704,14.074074074074076,0)" xlink:href="#ab"/><use transform="matrix(0.03703703703703704,0,0,0.03703703703703704,20.740740740740744,0)" xlink:href="#U"/><use transform="matrix(0.03703703703703704,0,0,0.03703703703703704,28.148148148148152,0)" xlink:href="#aj"/><use transform="matrix(0.03703703703703704,0,0,0.03703703703703704,35.55555555555556,0)" xlink:href="#V"/><use transform="matrix(0.03703703703703704,0,0,0.03703703703703704,42.96296296296296,0)" xlink:href="#W"/></g><path d="M30 0v-248h187v28H63v79h144v27H63v87h162V0H30" id="aw"/><path d="M141 0L90-78 38 0H4l68-98-65-92h35l48 74 47-74h35l-64 92 68 98h-35" id="ax"/><g id="B"><use transform="matrix(0.03703703703703704,0,0,0.03703703703703704,0,0)" xlink:href="#aa"/><use transform="matrix(0.03703703703703704,0,0,0.03703703703703704,7.407407407407408,0)" xlink:href="#ab"/><use transform="matrix(0.03703703703703704,0,0,0.03703703703703704,14.074074074074076,0)" xlink:href="#ab"/><use transform="matrix(0.03703703703703704,0,0,0.03703703703703704,20.740740740740744,0)" xlink:href="#U"/><use transform="matrix(0.03703703703703704,0,0,0.03703703703703704,28.148148148148152,0)" xlink:href="#aj"/><use transform="matrix(0.03703703703703704,0,0,0.03703703703703704,35.55555555555556,0)" xlink:href="#V"/><use transform="matrix(0.03703703703703704,0,0,0.03703703703703704,42.96296296296296,0)" xlink:href="#W"/><use transform="matrix(0.03703703703703704,0,0,0.03703703703703704,46.666666666666664,0)" xlink:href="#aw"/><use transform="matrix(0.03703703703703704,0,0,0.03703703703703704,55.55555555555556,0)" xlink:href="#ax"/><use transform="matrix(0.03703703703703704,0,0,0.03703703703703704,62.22222222222223,0)" xlink:href="#ad"/><use transform="matrix(0.03703703703703704,0,0,0.03703703703703704,65.14814814814815,0)" xlink:href="#af"/><use transform="matrix(0.03703703703703704,0,0,0.03703703703703704,71.81481481481482,0)" xlink:href="#W"/><use transform="matrix(0.03703703703703704,0,0,0.03703703703703704,75.51851851851853,0)" xlink:href="#af"/><use transform="matrix(0.03703703703703704,0,0,0.03703703703703704,82.18518518518522,0)" xlink:href="#aq"/><use transform="matrix(0.03703703703703704,0,0,0.03703703703703704,86.59259259259261,0)" xlink:href="#ar"/></g><g id="C"><use transform="matrix(0.03703703703703704,0,0,0.03703703703703704,0,0)" xlink:href="#T"/><use transform="matrix(0.03703703703703704,0,0,0.03703703703703704,4.407407407407408,0)" xlink:href="#X"/><use transform="matrix(0.03703703703703704,0,0,0.03703703703703704,11.814814814814817,0)" xlink:href="#W"/><use transform="matrix(0.03703703703703704,0,0,0.03703703703703704,15.51851851851852,0)" xlink:href="#aj"/><use transform="matrix(0.03703703703703704,0,0,0.03703703703703704,22.925925925925927,0)" xlink:href="#T"/><use transform="matrix(0.03703703703703704,0,0,0.03703703703703704,27.333333333333343,0)" xlink:href="#V"/></g><g id="D"><use transform="matrix(0.03703703703703704,0,0,0.03703703703703704,0,0)" xlink:href="#aa"/><use transform="matrix(0.03703703703703704,0,0,0.03703703703703704,7.407407407407408,0)" xlink:href="#ab"/><use transform="matrix(0.03703703703703704,0,0,0.03703703703703704,14.074074074074076,0)" xlink:href="#ab"/><use transform="matrix(0.03703703703703704,0,0,0.03703703703703704,20.740740740740744,0)" xlink:href="#U"/><use transform="matrix(0.03703703703703704,0,0,0.03703703703703704,28.148148148148152,0)" xlink:href="#aj"/><use transform="matrix(0.03703703703703704,0,0,0.03703703703703704,35.55555555555556,0)" xlink:href="#V"/><use transform="matrix(0.03703703703703704,0,0,0.03703703703703704,42.96296296296296,0)" xlink:href="#W"/><use transform="matrix(0.03703703703703704,0,0,0.03703703703703704,46.666666666666664,0)" xlink:href="#aw"/><use transform="matrix(0.03703703703703704,0,0,0.03703703703703704,55.55555555555556,0)" xlink:href="#ax"/><use transform="matrix(0.03703703703703704,0,0,0.03703703703703704,62.22222222222223,0)" xlink:href="#ad"/><use transform="matrix(0.03703703703703704,0,0,0.03703703703703704,65.14814814814815,0)" xlink:href="#af"/><use transform="matrix(0.03703703703703704,0,0,0.03703703703703704,71.81481481481482,0)" xlink:href="#W"/><use transform="matrix(0.03703703703703704,0,0,0.03703703703703704,75.51851851851853,0)" xlink:href="#af"/></g><g id="E"><use transform="matrix(0.03703703703703704,0,0,0.03703703703703704,0,0)" xlink:href="#aa"/><use transform="matrix(0.03703703703703704,0,0,0.03703703703703704,7.407407407407408,0)" xlink:href="#ab"/><use transform="matrix(0.03703703703703704,0,0,0.03703703703703704,14.074074074074076,0)" xlink:href="#ab"/><use transform="matrix(0.03703703703703704,0,0,0.03703703703703704,20.740740740740744,0)" xlink:href="#U"/><use transform="matrix(0.03703703703703704,0,0,0.03703703703703704,28.148148148148152,0)" xlink:href="#aj"/><use transform="matrix(0.03703703703703704,0,0,0.03703703703703704,35.55555555555556,0)" xlink:href="#V"/><use transform="matrix(0.03703703703703704,0,0,0.03703703703703704,42.96296296296296,0)" xlink:href="#W"/></g><path d="M179-190L93 31C79 59 56 82 12 73V49c39 6 53-20 64-50L1-190h34L92-34l54-156h33" id="ay"/><g id="F"><use transform="matrix(0.03703703703703704,0,0,0.03703703703703704,0,0)" xlink:href="#aa"/><use transform="matrix(0.03703703703703704,0,0,0.03703703703703704,7.407407407407408,0)" xlink:href="#ag"/><use transform="matrix(0.03703703703703704,0,0,0.03703703703703704,10.333333333333334,0)" xlink:href="#T"/><use transform="matrix(0.03703703703703704,0,0,0.03703703703703704,14.740740740740744,0)" xlink:href="#X"/><use transform="matrix(0.03703703703703704,0,0,0.03703703703703704,22.148148148148152,0)" xlink:href="#aa"/><use transform="matrix(0.03703703703703704,0,0,0.03703703703703704,29.55555555555556,0)" xlink:href="#Y"/><use transform="matrix(0.03703703703703704,0,0,0.03703703703703704,36.96296296296297,0)" xlink:href="#ay"/></g><g id="G"><use transform="matrix(0.03703703703703704,0,0,0.03703703703703704,0,0)" xlink:href="#X"/><use transform="matrix(0.03703703703703704,0,0,0.03703703703703704,7.407407407407408,0)" xlink:href="#ax"/><use transform="matrix(0.03703703703703704,0,0,0.03703703703703704,14.074074074074076,0)" xlink:href="#ad"/><use transform="matrix(0.03703703703703704,0,0,0.03703703703703704,17.000000000000004,0)" xlink:href="#af"/><use transform="matrix(0.03703703703703704,0,0,0.03703703703703704,23.66666666666667,0)" xlink:href="#W"/><use transform="matrix(0.03703703703703704,0,0,0.03703703703703704,27.370370370370374,0)" xlink:href="#af"/></g><g id="H"><use transform="matrix(0.03703703703703704,0,0,0.03703703703703704,0,0)" xlink:href="#aa"/><use transform="matrix(0.03703703703703704,0,0,0.03703703703703704,7.407407407407408,0)" xlink:href="#ab"/><use transform="matrix(0.03703703703703704,0,0,0.03703703703703704,14.074074074074076,0)" xlink:href="#ab"/><use transform="matrix(0.03703703703703704,0,0,0.03703703703703704,20.740740740740744,0)" xlink:href="#U"/><use transform="matrix(0.03703703703703704,0,0,0.03703703703703704,28.148148148148152,0)" xlink:href="#aj"/><use transform="matrix(0.03703703703703704,0,0,0.03703703703703704,35.55555555555556,0)" xlink:href="#V"/><use transform="matrix(0.03703703703703704,0,0,0.03703703703703704,42.96296296296296,0)" xlink:href="#W"/></g><g id="I"><use transform="matrix(0.03703703703703704,0,0,0.03703703703703704,0,0)" xlink:href="#Y"/><use transform="matrix(0.03703703703703704,0,0,0.03703703703703704,7.407407407407408,0)" xlink:href="#U"/><use transform="matrix(0.03703703703703704,0,0,0.03703703703703704,14.814814814814817,0)" xlink:href="#X"/><use transform="matrix(0.03703703703703704,0,0,0.03703703703703704,22.222222222222225,0)" xlink:href="#af"/></g><g id="J"><use transform="matrix(0.03703703703703704,0,0,0.03703703703703704,0,0)" xlink:href="#V"/><use transform="matrix(0.03703703703703704,0,0,0.03703703703703704,7.407407407407408,0)" xlink:href="#U"/><use transform="matrix(0.03703703703703704,0,0,0.03703703703703704,14.814814814814817,0)" xlink:href="#W"/></g><g id="K"><use transform="matrix(0.03703703703703704,0,0,0.03703703703703704,0,0)" xlink:href="#X"/><use transform="matrix(0.03703703703703704,0,0,0.03703703703703704,7.407407407407408,0)" xlink:href="#ax"/><use transform="matrix(0.03703703703703704,0,0,0.03703703703703704,14.074074074074076,0)" xlink:href="#ad"/><use transform="matrix(0.03703703703703704,0,0,0.03703703703703704,17.000000000000004,0)" xlink:href="#af"/><use transform="matrix(0.03703703703703704,0,0,0.03703703703703704,23.66666666666667,0)" xlink:href="#W"/></g><g id="L"><use transform="matrix(0.03703703703703704,0,0,0.03703703703703704,0,0)" xlink:href="#aa"/><use transform="matrix(0.03703703703703704,0,0,0.03703703703703704,7.407407407407408,0)" xlink:href="#ag"/><use transform="matrix(0.03703703703703704,0,0,0.03703703703703704,10.333333333333334,0)" xlink:href="#T"/><use transform="matrix(0.03703703703703704,0,0,0.03703703703703704,14.740740740740744,0)" xlink:href="#X"/><use transform="matrix(0.03703703703703704,0,0,0.03703703703703704,22.148148148148152,0)" xlink:href="#aa"/><use transform="matrix(0.03703703703703704,0,0,0.03703703703703704,29.55555555555556,0)" xlink:href="#Y"/><use transform="matrix(0.03703703703703704,0,0,0.03703703703703704,36.96296296296297,0)" xlink:href="#ay"/></g><g id="M"><use transform="matrix(0.03703703703703704,0,0,0.03703703703703704,0,0)" xlink:href="#X"/><use transform="matrix(0.03703703703703704,0,0,0.03703703703703704,7.407407407407408,0)" xlink:href="#ax"/><use transform="matrix(0.03703703703703704,0,0,0.03703703703703704,14.074074074074076,0)" xlink:href="#ad"/><use transform="matrix(0.03703703703703704,0,0,0.03703703703703704,17.000000000000004,0)" xlink:href="#af"/><use transform="matrix(0.03703703703703704,0,0,0.03703703703703704,23.66666666666667,0)" xlink:href="#W"/><use transform="matrix(0.03703703703703704,0,0,0.03703703703703704,27.370370370370374,0)" xlink:href="#af"/></g><path d="M68-38c1 34 0 65-14 84H32c9-13 17-26 17-46H33v-38h35" id="az"/><g id="N"><use transform="matrix(0.03703703703703704,0,0,0.03703703703703704,0,0)" xlink:href="#X"/><use transform="matrix(0.03703703703703704,0,0,0.03703703703703704,7.407407407407408,0)" xlink:href="#T"/><use transform="matrix(0.03703703703703704,0,0,0.03703703703703704,11.814814814814817,0)" xlink:href="#T"/><use transform="matrix(0.03703703703703704,0,0,0.03703703703703704,16.222222222222225,0)" xlink:href="#U"/><use transform="matrix(0.03703703703703704,0,0,0.03703703703703704,23.629629629629633,0)" xlink:href="#T"/><use transform="matrix(0.03703703703703704,0,0,0.03703703703703704,27.2962962962963,0)" xlink:href="#az"/></g><g id="O"><use transform="matrix(0.03703703703703704,0,0,0.03703703703703704,0,0)" xlink:href="#ab"/><use transform="matrix(0.03703703703703704,0,0,0.03703703703703704,6.666666666666668,0)" xlink:href="#T"/><use transform="matrix(0.03703703703703704,0,0,0.03703703703703704,11.074074074074076,0)" xlink:href="#X"/><use transform="matrix(0.03703703703703704,0,0,0.03703703703703704,18.481481481481485,0)" xlink:href="#aa"/><use transform="matrix(0.03703703703703704,0,0,0.03703703703703704,25.888888888888893,0)" xlink:href="#W"/><use transform="matrix(0.03703703703703704,0,0,0.03703703703703704,29.592592592592595,0)" xlink:href="#X"/></g><g id="P"><use transform="matrix(0.03703703703703704,0,0,0.03703703703703704,0,0)" xlink:href="#aa"/><use transform="matrix(0.03703703703703704,0,0,0.03703703703703704,7.407407407407408,0)" xlink:href="#ab"/><use transform="matrix(0.03703703703703704,0,0,0.03703703703703704,14.074074074074076,0)" xlink:href="#ab"/><use transform="matrix(0.03703703703703704,0,0,0.03703703703703704,20.740740740740744,0)" xlink:href="#U"/><use transform="matrix(0.03703703703703704,0,0,0.03703703703703704,28.148148148148152,0)" xlink:href="#aj"/><use transform="matrix(0.03703703703703704,0,0,0.03703703703703704,35.55555555555556,0)" xlink:href="#V"/><use transform="matrix(0.03703703703703704,0,0,0.03703703703703704,42.96296296296296,0)" xlink:href="#W"/></g><g id="Q"><use transform="matrix(0.03703703703703704,0,0,0.03703703703703704,0,0)" xlink:href="#ab"/><use transform="matrix(0.03703703703703704,0,0,0.03703703703703704,6.666666666666668,0)" xlink:href="#T"/><use transform="matrix(0.03703703703703704,0,0,0.03703703703703704,11.074074074074076,0)" xlink:href="#X"/><use transform="matrix(0.03703703703703704,0,0,0.03703703703703704,18.481481481481485,0)" xlink:href="#aa"/><use transform="matrix(0.03703703703703704,0,0,0.03703703703703704,25.888888888888893,0)" xlink:href="#W"/><use transform="matrix(0.03703703703703704,0,0,0.03703703703703704,29.592592592592595,0)" xlink:href="#X"/><use transform="matrix(0.03703703703703704,0,0,0.03703703703703704,37,0)" xlink:href="#Y"/></g><g id="R"><use transform="matrix(0.03703703703703704,0,0,0.03703703703703704,0,0)" xlink:href="#af"/><use transform="matrix(0.03703703703703704,0,0,0.03703703703703704,6.666666666666668,0)" xlink:href="#aj"/><use transform="matrix(0.03703703703703704,0,0,0.03703703703703704,14.074074074074076,0)" xlink:href="#ab"/><use transform="matrix(0.03703703703703704,0,0,0.03703703703703704,20.740740740740744,0)" xlink:href="#ab"/><use transform="matrix(0.03703703703703704,0,0,0.03703703703703704,27.407407407407412,0)" xlink:href="#X"/><use transform="matrix(0.03703703703703704,0,0,0.03703703703703704,34.814814814814824,0)" xlink:href="#af"/><use transform="matrix(0.03703703703703704,0,0,0.03703703703703704,41.481481481481495,0)" xlink:href="#af"/><use transform="matrix(0.03703703703703704,0,0,0.03703703703703704,48.14814814814816,0)" xlink:href="#az"/></g></defs></g></svg>