<svg xmlns="http://www.w3.org/2000/svg" xmlns:xlink="http://www.w3.org/1999/xlink" xmlns:lucid="lucid" width="860" height="491"><g transform="translate(-119.99999999999989 -20)" lucid:page-tab-id="0_0"><path d="M167.25 47.25c0 4-3.25 7.25-7.25 7.25s-7.25-3.25-7.25-7.25S156 40 160 40s7.25 3.25 7.25 7.25z" stroke="#000" stroke-width="2" fill="#fff"/><path d="M140 45c0-2.76 2.24-5 5-5h30c2.76 0 5 2.24 5 5v48c0 2.76-2.24 5-5 5h-30c-2.76 0-5-2.24-5-5z" fill="none"/><path d="M160 54.5v15.3c0 2.76 1.46 6.7 3.26 8.8L180 98m-20-23.2L140 98m0-36.25h40" stroke="#000" stroke-width="2" fill="none"/><path d="M160 120v340" fill="none"/><path d="M160 120v10.3m0 10.3v20.6m0 10.32v20.6m0 10.3v20.6m0 10.3v20.62m0 10.3v20.6m0 10.3v20.62m0 10.3v20.6m0 10.3v20.62m0 10.3v20.6m0 10.3v20.6m0 10.32V460" stroke="#000" stroke-width="2" fill="none"/><path d="M161 120h-2v-3h2z"/><path d="M320 45c0-2.76 2.24-5 5-5h150c2.76 0 5 2.24 5 5v50c0 2.76-2.24 5-5 5H325c-2.76 0-5-2.24-5-5z" stroke="#000" stroke-width="2" fill="#fff"/><use xlink:href="#a" transform="matrix(1,0,0,1,320,40) translate(53.37537037037037 33.16666666666667)"/><path d="M560 45c0-2.76 2.24-5 5-5h150c2.76 0 5 2.24 5 5v50c0 2.76-2.24 5-5 5H565c-2.76 0-5-2.24-5-5z" stroke="#000" stroke-width="2" fill="#fff"/><use xlink:href="#b" transform="matrix(1,0,0,1,560,40) translate(54.07907407407408 33.16666666666667)"/><path d="M800 45c0-2.76 2.24-5 5-5h150c2.76 0 5 2.24 5 5v50c0 2.76-2.24 5-5 5H805c-2.76 0-5-2.24-5-5z" stroke="#000" stroke-width="2" fill="#fff"/><use xlink:href="#c" transform="matrix(1,0,0,1,799.9999999999997,40) translate(54.13462962962962 33.16666666666667)"/><path d="M400 101v399" fill="none"/><path d="M400 101v10.23m0 10.23v20.46m0 10.23v20.47m0 10.23v20.46m0 10.24V234m0 10.23v20.46m0 10.22v20.46m0 10.24v20.46m0 10.23v20.47m0 10.23v20.46m0 10.23v20.45m0 10.23v20.47m0 10.23v20.46m0 10.23V500" stroke="#000" stroke-width="2" fill="none"/><path d="M401 101h-2v-1h2z"/><path d="M640 101v379" fill="none"/><path d="M640 101v9.72m0 9.72v19.43m0 9.72v19.43m0 9.7v19.45m0 9.72v19.43m0 9.72v19.44m0 9.7v19.44m0 9.72v19.43m0 9.7v19.45m0 9.72v19.43m0 9.72v19.44m0 9.7v19.45m0 9.73v19.43m0 9.72V480" stroke="#000" stroke-width="2" fill="none"/><path d="M641 101h-2v-1h2z"/><path d="M880 101v299" fill="none"/><path d="M880 101v9.97m0 9.96v19.94m0 9.96v19.94m0 9.96v19.94m0 9.96v19.94m0 9.96v19.94m0 9.96v19.94m0 9.96v19.94m0 9.96v19.94m0 9.96v19.94m0 9.96V400" stroke="#000" stroke-width="2" fill="none"/><path d="M881 101h-2v-1h2z"/><path d="M157.93 160h203.83" stroke="#000" stroke-width="2" fill="none"/><path d="M376.76 160l-14.26 4.64v-9.28z" stroke="#000" stroke-width="2"/><use xlink:href="#d" transform="matrix(1,0,0,1,230.88952678250502,140) translate(0 10.666666666666668)"/><use xlink:href="#e" transform="matrix(1,0,0,1,230.88952678250502,140) translate(29.555555555555564 10.666666666666668)"/><path d="M380 165c0-2.76 2.24-5 5-5h30c2.76 0 5 2.24 5 5v310c0 2.76-2.24 5-5 5h-30c-2.76 0-5-2.24-5-5z" stroke="#000" stroke-width="2" fill="#fff"/><path d="M178.24 200H380" fill="none"/><path d="M178.24 200h3.02m4.04 0h6.05m4.04 0h6.04m4.03 0h6.06m4.03 0h6.06m4.03 0h6.05m4.04 0h6.05m4.03 0h6.05m4.04 0h6.05m4.03 0h6.06m4.03 0h6.04m4.04 0h6.05m4.04 0h6.05m4.04 0h6.05m4.04 0h6.06m4.03 0h6.06m4.02 0h6.05m4.04 0h6.06m4.04 0h6.05m4.04 0h6.04m4.03 0H380" stroke="#000" stroke-width="2" fill="none"/><path d="M163.24 200l14.26-4.64v9.28z" stroke="#000" stroke-width="2"/><use xlink:href="#f" transform="matrix(1,0,0,1,184.2222222222224,180) translate(0 10.666666666666668)"/><use xlink:href="#g" transform="matrix(1,0,0,1,184.2222222222224,180) translate(34.77777777777778 10.666666666666668)"/><use xlink:href="#h" transform="matrix(1,0,0,1,184.2222222222224,180) translate(78.40740740740742 10.666666666666668)"/><use xlink:href="#i" transform="matrix(1,0,0,1,184.2222222222224,180) translate(140.55555555555557 10.666666666666668)"/><path d="M160 240h200.76" stroke="#000" stroke-width="2" fill="none"/><path d="M375.76 240l-14.26 4.64v-9.28z"/><path d="M379 240l-18.5 6v-12zm-16.5 3.26l10.03-3.26-10.03-3.26z"/><use xlink:href="#j" transform="matrix(1,0,0,1,221.77777777777777,220) translate(0 10.666666666666668)"/><use xlink:href="#k" transform="matrix(1,0,0,1,221.77777777777777,220) translate(55.518518518518526 10.666666666666668)"/><path d="M620 285c0-2.76 2.24-5 5-5h30c2.76 0 5 2.24 5 5v150c0 2.76-2.24 5-5 5h-30c-2.76 0-5-2.24-5-5z" stroke="#000" stroke-width="2" fill="#fff"/><path d="M420 280h183.84" stroke="#000" stroke-width="2" fill="none"/><path d="M618.84 280l-14.27 4.64v-9.28z"/><path d="M622.07 280l-18.5 6v-12zm-16.5 3.26L615.6 280l-10.03-3.26z"/><use xlink:href="#l" transform="matrix(1,0,0,1,491.8141769211988,260) translate(0 10.666666666666668)"/><path d="M860 325c0-2.76 2.24-5 5-5h30c2.76 0 5 2.24 5 5v50c0 2.76-2.24 5-5 5h-30c-2.76 0-5-2.24-5-5z" stroke="#000" stroke-width="2" fill="#fff"/><path d="M660 320h183.84" stroke="#000" stroke-width="2" fill="none"/><path d="M858.84 320l-14.27 4.64v-9.28z"/><path d="M862.07 320l-18.5 6v-12zm-16.5 3.26L855.6 320l-10.03-3.26z"/><use xlink:href="#m" transform="matrix(1,0,0,1,740.9259259259259,300) translate(0 10.666666666666668)"/><use xlink:href="#k" transform="matrix(1,0,0,1,740.9259259259259,300) translate(22.22222222222222 10.666666666666668)"/><path d="M679.24 360H860" fill="none"/><path d="M679.24 360h3m4.03 0h6.02m4 0h6.03m4.02 0h6.03m4 0h6.04m4.02 0h6.02m4.02 0h6.02m4.02 0h6.03m4 0h6.04m4 0h6.03m4.02 0h6.02m4.02 0h6.02m4 0h6.04m4.02 0h6.02m4.02 0h6.02m4.02 0h6.03m4 0h6.03m4 0h6.04m4.02 0h3" stroke="#000" stroke-width="2" fill="none"/><path d="M678.5 364.64L664.24 360l14.26-4.64z"/><path d="M679.5 366l-18.5-6 18.5-6zm-12.03-6l10.03 3.26v-6.52z"/><use xlink:href="#n" transform="matrix(1,0,0,1,734.1481481481483,340) translate(0 10.666666666666668)"/><use xlink:href="#o" transform="matrix(1,0,0,1,734.1481481481483,340) translate(38.44444444444445 10.666666666666668)"/><path d="M439.24 400H620" fill="none"/><path d="M439.24 400h3m4.03 0h6.02m4 0h6.03m4.02 0h6.03m4 0h6.04m4.02 0h6.02m4.02 0h6.02m4.02 0h6.03m4 0h6.04m4 0h6.03m4.02 0h6.02m4.02 0h6.02m4 0h6.04m4.02 0h6.02m4.02 0h6.02m4.02 0h6.03m4 0h6.03m4 0h6.04m4.02 0h3" stroke="#000" stroke-width="2" fill="none"/><path d="M438.5 404.64L424.24 400l14.26-4.64z"/><path d="M439.5 406l-18.5-6 18.5-6zm-12.03-6l10.03 3.26v-6.52z"/><g><use xlink:href="#p" transform="matrix(1,0,0,1,500.537037037037,380) translate(0 10.666666666666668)"/></g><path d="M178.24 440H380" fill="none"/><path d="M178.24 440h3.02m4.04 0h6.05m4.04 0h6.04m4.03 0h6.06m4.03 0h6.06m4.03 0h6.05m4.04 0h6.05m4.03 0h6.05m4.04 0h6.05m4.03 0h6.06m4.03 0h6.04m4.04 0h6.05m4.04 0h6.05m4.04 0h6.05m4.04 0h6.06m4.03 0h6.06m4.02 0h6.05m4.04 0h6.06m4.04 0h6.05m4.04 0h6.04m4.03 0H380" stroke="#000" stroke-width="2" fill="none"/><path d="M163.24 440l14.26-4.64v9.28z" stroke="#000" stroke-width="2"/><g><use xlink:href="#q" transform="matrix(1,0,0,1,231.53703703703704,420) translate(0 10.666666666666668)"/><use xlink:href="#k" transform="matrix(1,0,0,1,231.53703703703704,420) translate(37 10.666666666666668)"/></g><defs><path d="M63-220v92h138v28H63V0H30v-248h175v28H63" id="r"/><path d="M114-163C36-179 61-72 57 0H25l-1-190h30c1 12-1 29 2 39 6-27 23-49 58-41v29" id="s"/><path d="M100-194c62-1 85 37 85 99 1 63-27 99-86 99S16-35 15-95c0-66 28-99 85-99zM99-20c44 1 53-31 53-75 0-43-8-75-51-75s-53 32-53 75 10 74 51 75" id="t"/><path d="M117-194c89-4 53 116 60 194h-32v-121c0-31-8-49-39-48C34-167 62-67 57 0H25l-1-190h30c1 10-1 24 2 32 11-22 29-35 61-36" id="u"/><path d="M59-47c-2 24 18 29 38 22v24C64 9 27 4 27-40v-127H5v-23h24l9-43h21v43h35v23H59v120" id="v"/><path d="M100-194c63 0 86 42 84 106H49c0 40 14 67 53 68 26 1 43-12 49-29l28 8c-11 28-37 45-77 45C44 4 14-33 15-96c1-61 26-98 85-98zm52 81c6-60-76-77-97-28-3 7-6 17-6 28h103" id="w"/><path d="M85-194c31 0 48 13 60 33l-1-100h32l1 261h-30c-2-10 0-23-3-31C134-8 116 4 85 4 32 4 16-35 15-94c0-66 23-100 70-100zm9 24c-40 0-46 34-46 75 0 40 6 74 45 74 42 0 51-32 51-76 0-42-9-74-50-73" id="x"/><g id="a"><use transform="matrix(0.03703703703703704,0,0,0.03703703703703704,0,0)" xlink:href="#r"/><use transform="matrix(0.03703703703703704,0,0,0.03703703703703704,8.111111111111112,0)" xlink:href="#s"/><use transform="matrix(0.03703703703703704,0,0,0.03703703703703704,12.51851851851852,0)" xlink:href="#t"/><use transform="matrix(0.03703703703703704,0,0,0.03703703703703704,19.925925925925934,0)" xlink:href="#u"/><use transform="matrix(0.03703703703703704,0,0,0.03703703703703704,27.333333333333343,0)" xlink:href="#v"/><use transform="matrix(0.03703703703703704,0,0,0.03703703703703704,31.037037037037045,0)" xlink:href="#w"/><use transform="matrix(0.03703703703703704,0,0,0.03703703703703704,38.44444444444446,0)" xlink:href="#u"/><use transform="matrix(0.03703703703703704,0,0,0.03703703703703704,45.851851851851855,0)" xlink:href="#x"/><path d="M-.67.92h54.6v.98H-.68z"/></g><path d="M160-131c35 5 61 23 61 61C221 17 115-2 30 0v-248c76 3 177-17 177 60 0 33-19 50-47 57zm-97-11c50-1 110 9 110-42 0-47-63-36-110-37v79zm0 115c55-2 124 14 124-45 0-56-70-42-124-44v89" id="y"/><path d="M141-36C126-15 110 5 73 4 37 3 15-17 15-53c-1-64 63-63 125-63 3-35-9-54-41-54-24 1-41 7-42 31l-33-3c5-37 33-52 76-52 45 0 72 20 72 64v82c-1 20 7 32 28 27v20c-31 9-61-2-59-35zM48-53c0 20 12 33 32 33 41-3 63-29 60-74-43 2-92-5-92 41" id="z"/><path d="M96-169c-40 0-48 33-48 73s9 75 48 75c24 0 41-14 43-38l32 2c-6 37-31 61-74 61-59 0-76-41-82-99-10-93 101-131 147-64 4 7 5 14 7 22l-32 3c-4-21-16-35-41-35" id="A"/><path d="M143 0L79-87 56-68V0H24v-261h32v163l83-92h37l-77 82L181 0h-38" id="B"/><g id="b"><use transform="matrix(0.03703703703703704,0,0,0.03703703703703704,0,0)" xlink:href="#y"/><use transform="matrix(0.03703703703703704,0,0,0.03703703703703704,8.88888888888889,0)" xlink:href="#z"/><use transform="matrix(0.03703703703703704,0,0,0.03703703703703704,16.296296296296298,0)" xlink:href="#A"/><use transform="matrix(0.03703703703703704,0,0,0.03703703703703704,22.962962962962965,0)" xlink:href="#B"/><use transform="matrix(0.03703703703703704,0,0,0.03703703703703704,29.629629629629633,0)" xlink:href="#w"/><use transform="matrix(0.03703703703703704,0,0,0.03703703703703704,37.03703703703704,0)" xlink:href="#u"/><use transform="matrix(0.03703703703703704,0,0,0.03703703703703704,44.44444444444444,0)" xlink:href="#x"/><path d="M-.67.92h53.2v.98H-.68z"/></g><path d="M24-231v-30h32v30H24zM24 0v-190h32V0H24" id="C"/><path d="M115-194c53 0 69 39 70 98 0 66-23 100-70 100C84 3 66-7 56-30L54 0H23l1-261h32v101c10-23 28-34 59-34zm-8 174c40 0 45-34 45-75 0-40-5-75-45-74-42 0-51 32-51 76 0 43 10 73 51 73" id="D"/><path d="M135-143c-3-34-86-38-87 0 15 53 115 12 119 90S17 21 10-45l28-5c4 36 97 45 98 0-10-56-113-15-118-90-4-57 82-63 122-42 12 7 21 19 24 35" id="E"/><g id="c"><use transform="matrix(0.03703703703703704,0,0,0.03703703703703704,0,0)" xlink:href="#r"/><use transform="matrix(0.03703703703703704,0,0,0.03703703703703704,8.111111111111112,0)" xlink:href="#C"/><use transform="matrix(0.03703703703703704,0,0,0.03703703703703704,11.037037037037038,0)" xlink:href="#s"/><use transform="matrix(0.03703703703703704,0,0,0.03703703703703704,15.444444444444446,0)" xlink:href="#w"/><use transform="matrix(0.03703703703703704,0,0,0.03703703703703704,22.851851851851855,0)" xlink:href="#D"/><use transform="matrix(0.03703703703703704,0,0,0.03703703703703704,30.259259259259263,0)" xlink:href="#z"/><use transform="matrix(0.03703703703703704,0,0,0.03703703703703704,37.66666666666667,0)" xlink:href="#E"/><use transform="matrix(0.03703703703703704,0,0,0.03703703703703704,44.333333333333336,0)" xlink:href="#w"/><path d="M-.67.92H52.4v.98H-.67z"/></g><path d="M24 0v-261h32V0H24" id="F"/><g id="d"><use transform="matrix(0.03703703703703704,0,0,0.03703703703703704,0,0)" xlink:href="#A"/><use transform="matrix(0.03703703703703704,0,0,0.03703703703703704,6.666666666666668,0)" xlink:href="#F"/><use transform="matrix(0.03703703703703704,0,0,0.03703703703703704,9.592592592592595,0)" xlink:href="#C"/><use transform="matrix(0.03703703703703704,0,0,0.03703703703703704,12.518518518518523,0)" xlink:href="#A"/><use transform="matrix(0.03703703703703704,0,0,0.03703703703703704,19.18518518518519,0)" xlink:href="#B"/></g><path d="M233-177c-1 41-23 64-60 70L243 0h-38l-65-103H63V0H30v-248c88 3 205-21 203 71zM63-129c60-2 137 13 137-47 0-61-80-42-137-45v92" id="G"/><path d="M115-194c55 1 70 41 70 98S169 2 115 4C84 4 66-9 55-30l1 105H24l-1-265h31l2 30c10-21 28-34 59-34zm-8 174c40 0 45-34 45-75s-6-73-45-74c-42 0-51 32-51 76 0 43 10 73 51 73" id="H"/><g id="e"><use transform="matrix(0.03703703703703704,0,0,0.03703703703703704,0,0)" xlink:href="#G"/><use transform="matrix(0.03703703703703704,0,0,0.03703703703703704,9.592592592592593,0)" xlink:href="#w"/><use transform="matrix(0.03703703703703704,0,0,0.03703703703703704,17,0)" xlink:href="#H"/><use transform="matrix(0.03703703703703704,0,0,0.03703703703703704,24.407407407407405,0)" xlink:href="#t"/><use transform="matrix(0.03703703703703704,0,0,0.03703703703703704,31.814814814814813,0)" xlink:href="#s"/><use transform="matrix(0.03703703703703704,0,0,0.03703703703703704,36.22222222222223,0)" xlink:href="#v"/><use transform="matrix(0.03703703703703704,0,0,0.03703703703703704,39.92592592592593,0)" xlink:href="#E"/></g><path d="M106-169C34-169 62-67 57 0H25v-261h32l-1 103c12-21 28-36 61-36 89 0 53 116 60 194h-32v-121c2-32-8-49-39-48" id="I"/><path d="M206 0h-36l-40-164L89 0H53L-1-190h32L70-26l43-164h34l41 164 42-164h31" id="J"/><g id="f"><use transform="matrix(0.03703703703703704,0,0,0.03703703703703704,0,0)" xlink:href="#E"/><use transform="matrix(0.03703703703703704,0,0,0.03703703703703704,6.666666666666668,0)" xlink:href="#I"/><use transform="matrix(0.03703703703703704,0,0,0.03703703703703704,14.074074074074076,0)" xlink:href="#t"/><use transform="matrix(0.03703703703703704,0,0,0.03703703703703704,21.481481481481485,0)" xlink:href="#J"/></g><g id="g"><use transform="matrix(0.03703703703703704,0,0,0.03703703703703704,0,0)" xlink:href="#G"/><use transform="matrix(0.03703703703703704,0,0,0.03703703703703704,9.592592592592593,0)" xlink:href="#w"/><use transform="matrix(0.03703703703703704,0,0,0.03703703703703704,17,0)" xlink:href="#H"/><use transform="matrix(0.03703703703703704,0,0,0.03703703703703704,24.407407407407405,0)" xlink:href="#t"/><use transform="matrix(0.03703703703703704,0,0,0.03703703703703704,31.814814814814813,0)" xlink:href="#s"/><use transform="matrix(0.03703703703703704,0,0,0.03703703703703704,36.22222222222223,0)" xlink:href="#v"/></g><path d="M185-189c-5-48-123-54-124 2 14 75 158 14 163 119 3 78-121 87-175 55-17-10-28-26-33-46l33-7c5 56 141 63 141-1 0-78-155-14-162-118-5-82 145-84 179-34 5 7 8 16 11 25" id="K"/><g id="h"><use transform="matrix(0.03703703703703704,0,0,0.03703703703703704,0,0)" xlink:href="#K"/><use transform="matrix(0.03703703703703704,0,0,0.03703703703703704,8.88888888888889,0)" xlink:href="#w"/><use transform="matrix(0.03703703703703704,0,0,0.03703703703703704,16.296296296296298,0)" xlink:href="#F"/><use transform="matrix(0.03703703703703704,0,0,0.03703703703703704,19.222222222222225,0)" xlink:href="#w"/><use transform="matrix(0.03703703703703704,0,0,0.03703703703703704,26.629629629629633,0)" xlink:href="#A"/><use transform="matrix(0.03703703703703704,0,0,0.03703703703703704,33.296296296296305,0)" xlink:href="#v"/><use transform="matrix(0.03703703703703704,0,0,0.03703703703703704,37.00000000000001,0)" xlink:href="#C"/><use transform="matrix(0.03703703703703704,0,0,0.03703703703703704,39.92592592592593,0)" xlink:href="#t"/><use transform="matrix(0.03703703703703704,0,0,0.03703703703703704,47.33333333333334,0)" xlink:href="#u"/></g><path d="M210-169c-67 3-38 105-44 169h-31v-121c0-29-5-50-35-48C34-165 62-65 56 0H25l-1-190h30c1 10-1 24 2 32 10-44 99-50 107 0 11-21 27-35 58-36 85-2 47 119 55 194h-31v-121c0-29-5-49-35-48" id="L"/><g id="i"><use transform="matrix(0.03703703703703704,0,0,0.03703703703703704,0,0)" xlink:href="#r"/><use transform="matrix(0.03703703703703704,0,0,0.03703703703703704,8.111111111111112,0)" xlink:href="#t"/><use transform="matrix(0.03703703703703704,0,0,0.03703703703703704,15.51851851851852,0)" xlink:href="#s"/><use transform="matrix(0.03703703703703704,0,0,0.03703703703703704,19.925925925925934,0)" xlink:href="#L"/></g><g id="j"><use transform="matrix(0.03703703703703704,0,0,0.03703703703703704,0,0)" xlink:href="#K"/><use transform="matrix(0.03703703703703704,0,0,0.03703703703703704,8.88888888888889,0)" xlink:href="#w"/><use transform="matrix(0.03703703703703704,0,0,0.03703703703703704,16.296296296296298,0)" xlink:href="#F"/><use transform="matrix(0.03703703703703704,0,0,0.03703703703703704,19.222222222222225,0)" xlink:href="#w"/><use transform="matrix(0.03703703703703704,0,0,0.03703703703703704,26.629629629629633,0)" xlink:href="#A"/><use transform="matrix(0.03703703703703704,0,0,0.03703703703703704,33.296296296296305,0)" xlink:href="#v"/><use transform="matrix(0.03703703703703704,0,0,0.03703703703703704,37.00000000000001,0)" xlink:href="#w"/><use transform="matrix(0.03703703703703704,0,0,0.03703703703703704,44.40740740740742,0)" xlink:href="#x"/></g><g id="k"><use transform="matrix(0.03703703703703704,0,0,0.03703703703703704,0,0)" xlink:href="#G"/><use transform="matrix(0.03703703703703704,0,0,0.03703703703703704,9.592592592592593,0)" xlink:href="#w"/><use transform="matrix(0.03703703703703704,0,0,0.03703703703703704,17,0)" xlink:href="#H"/><use transform="matrix(0.03703703703703704,0,0,0.03703703703703704,24.407407407407405,0)" xlink:href="#t"/><use transform="matrix(0.03703703703703704,0,0,0.03703703703703704,31.814814814814813,0)" xlink:href="#s"/><use transform="matrix(0.03703703703703704,0,0,0.03703703703703704,36.22222222222223,0)" xlink:href="#v"/></g><path d="M177-190C167-65 218 103 67 71c-23-6-38-20-44-43l32-5c15 47 100 32 89-28v-30C133-14 115 1 83 1 29 1 15-40 15-95c0-56 16-97 71-98 29-1 48 16 59 35 1-10 0-23 2-32h30zM94-22c36 0 50-32 50-73 0-42-14-75-50-75-39 0-46 34-46 75s6 73 46 73" id="M"/><g id="l"><use transform="matrix(0.03703703703703704,0,0,0.03703703703703704,0,0)" xlink:href="#M"/><use transform="matrix(0.03703703703703704,0,0,0.03703703703703704,7.407407407407408,0)" xlink:href="#w"/><use transform="matrix(0.03703703703703704,0,0,0.03703703703703704,14.814814814814817,0)" xlink:href="#v"/><use transform="matrix(0.03703703703703704,0,0,0.03703703703703704,18.51851851851852,0)" xlink:href="#G"/><use transform="matrix(0.03703703703703704,0,0,0.03703703703703704,28.111111111111114,0)" xlink:href="#w"/><use transform="matrix(0.03703703703703704,0,0,0.03703703703703704,35.51851851851852,0)" xlink:href="#H"/><use transform="matrix(0.03703703703703704,0,0,0.03703703703703704,42.925925925925924,0)" xlink:href="#t"/><use transform="matrix(0.03703703703703704,0,0,0.03703703703703704,50.33333333333333,0)" xlink:href="#s"/><use transform="matrix(0.03703703703703704,0,0,0.03703703703703704,54.74074074074073,0)" xlink:href="#v"/></g><g id="m"><use transform="matrix(0.03703703703703704,0,0,0.03703703703703704,0,0)" xlink:href="#M"/><use transform="matrix(0.03703703703703704,0,0,0.03703703703703704,7.407407407407408,0)" xlink:href="#w"/><use transform="matrix(0.03703703703703704,0,0,0.03703703703703704,14.814814814814817,0)" xlink:href="#v"/></g><path d="M84 4C-5 8 30-112 23-190h32v120c0 31 7 50 39 49 72-2 45-101 50-169h31l1 190h-30c-1-10 1-25-2-33-11 22-28 36-60 37" id="N"/><g id="n"><use transform="matrix(0.03703703703703704,0,0,0.03703703703703704,0,0)" xlink:href="#s"/><use transform="matrix(0.03703703703703704,0,0,0.03703703703703704,4.407407407407408,0)" xlink:href="#w"/><use transform="matrix(0.03703703703703704,0,0,0.03703703703703704,11.814814814814817,0)" xlink:href="#v"/><use transform="matrix(0.03703703703703704,0,0,0.03703703703703704,15.51851851851852,0)" xlink:href="#N"/><use transform="matrix(0.03703703703703704,0,0,0.03703703703703704,22.925925925925927,0)" xlink:href="#s"/><use transform="matrix(0.03703703703703704,0,0,0.03703703703703704,27.333333333333343,0)" xlink:href="#u"/></g><g id="o"><use transform="matrix(0.03703703703703704,0,0,0.03703703703703704,0,0)" xlink:href="#G"/><use transform="matrix(0.03703703703703704,0,0,0.03703703703703704,9.592592592592593,0)" xlink:href="#w"/><use transform="matrix(0.03703703703703704,0,0,0.03703703703703704,17,0)" xlink:href="#H"/><use transform="matrix(0.03703703703703704,0,0,0.03703703703703704,24.407407407407405,0)" xlink:href="#t"/><use transform="matrix(0.03703703703703704,0,0,0.03703703703703704,31.814814814814813,0)" xlink:href="#s"/><use transform="matrix(0.03703703703703704,0,0,0.03703703703703704,36.22222222222223,0)" xlink:href="#v"/></g><g id="p"><use transform="matrix(0.03703703703703704,0,0,0.03703703703703704,0,0)" xlink:href="#G"/><use transform="matrix(0.03703703703703704,0,0,0.03703703703703704,9.592592592592593,0)" xlink:href="#w"/><use transform="matrix(0.03703703703703704,0,0,0.03703703703703704,17,0)" xlink:href="#H"/><use transform="matrix(0.03703703703703704,0,0,0.03703703703703704,24.407407407407405,0)" xlink:href="#t"/><use transform="matrix(0.03703703703703704,0,0,0.03703703703703704,31.814814814814813,0)" xlink:href="#s"/><use transform="matrix(0.03703703703703704,0,0,0.03703703703703704,36.22222222222223,0)" xlink:href="#v"/></g><g id="q"><use transform="matrix(0.03703703703703704,0,0,0.03703703703703704,0,0)" xlink:href="#K"/><use transform="matrix(0.03703703703703704,0,0,0.03703703703703704,8.88888888888889,0)" xlink:href="#I"/><use transform="matrix(0.03703703703703704,0,0,0.03703703703703704,16.296296296296298,0)" xlink:href="#t"/><use transform="matrix(0.03703703703703704,0,0,0.03703703703703704,23.703703703703706,0)" xlink:href="#J"/></g></defs></g></svg>