<svg xmlns="http://www.w3.org/2000/svg" xmlns:xlink="http://www.w3.org/1999/xlink" xmlns:lucid="lucid" width="1290" height="1751"><g transform="translate(-12 3760)" lucid:page-tab-id="0_0"><path d="M632-2820v740" fill="none"/><path d="M632-2820v9.87m0 9.86v19.74m0 9.86v19.74m0 9.86v19.74m0 9.86v19.74m0 9.86v19.74m0 9.86v19.74m0 9.86v19.74m0 9.86v19.74m0 9.86v19.74m0 9.86v19.74m0 9.86v19.74m0 9.86v19.74m0 9.86v19.74m0 9.86v19.74m0 9.86v19.74m0 9.86v19.74m0 9.86v19.74m0 9.86v19.74m0 9.86v19.74m0 9.86v19.74m0 9.86v19.74m0 9.86v19.74m0 9.86v19.74m0 9.86v19.74m0 9.86v9.87" stroke="#000" stroke-width="2" fill="none"/><path d="M159.25-3732.75c0 4-3.25 7.25-7.25 7.25s-7.25-3.25-7.25-7.25S148-3740 152-3740s7.25 3.25 7.25 7.25z" stroke="#000" stroke-width="2" fill="#fff"/><path d="M132-3735c0-2.76 2.24-5 5-5h30c2.76 0 5 2.24 5 5v48c0 2.76-2.24 5-5 5h-30c-2.76 0-5-2.24-5-5z" fill="none"/><path d="M152-3725.5v15.3c0 2.76 1.46 6.7 3.26 8.8L172-3682m-20-23.2l-20 23.2m0-36.25h40" stroke="#000" stroke-width="2" fill="none"/><path d="M152-3660v840" fill="none"/><path d="M152-3660v10m0 10v20m0 10v20m0 10v20m0 10v20m0 10v20m0 10v20m0 10v20m0 10v20m0 10v20m0 10v20m0 10v20m0 10v20m0 10v20m0 10v20m0 10v20m0 10v20m0 10v20m0 10v20m0 10v20m0 10v20m0 10v20m0 10v20m0 10v20m0 10v20m0 10v20m0 10v20m0 10v20m0 10v10" stroke="#000" stroke-width="2" fill="none"/><path d="M153-3660h-2v-3h2z"/><path d="M352-3710h16m64 0c0 16.57-14.33 30-32 30s-32-13.43-32-30 14.33-30 32-30 32 13.43 32 30z" stroke="#000" stroke-width="2" fill="#fff"/><path d="M352-3711.2h16v2.4h-16z" fill="none"/><path d="M552-3735c0-2.76 2.24-5 5-5h150c2.76 0 5 2.24 5 5v50c0 2.76-2.24 5-5 5H557c-2.76 0-5-2.24-5-5z" stroke="#000" stroke-width="2" fill="#fff"/><use xlink:href="#a" transform="matrix(1,0,0,1,552,-3740) translate(37.505 33.16666666666667)"/><use xlink:href="#b" transform="matrix(1,0,0,1,552,-3740) translate(64.91240740740741 33.16666666666667)"/><path d="M792-3735c0-2.76 2.24-5 5-5h150c2.76 0 5 2.24 5 5v50c0 2.76-2.24 5-5 5H797c-2.76 0-5-2.24-5-5z" stroke="#000" stroke-width="2" fill="#fff"/><use xlink:href="#c" transform="matrix(1,0,0,1,792,-3740) translate(54.07907407407408 33.16666666666667)"/><path d="M1032-3735c0-2.76 2.24-5 5-5h150c2.76 0 5 2.24 5 5v50c0 2.76-2.24 5-5 5h-150c-2.76 0-5-2.24-5-5z" stroke="#000" stroke-width="2" fill="#fff"/><use xlink:href="#d" transform="matrix(1,0,0,1,1032,-3740) translate(54.13462962962962 33.16666666666667)"/><path d="M392-3660v840" fill="none"/><path d="M392-3660v10m0 10v20m0 10v20m0 10v20m0 10v20m0 10v20m0 10v20m0 10v20m0 10v20m0 10v20m0 10v20m0 10v20m0 10v20m0 10v20m0 10v20m0 10v20m0 10v20m0 10v20m0 10v20m0 10v20m0 10v20m0 10v20m0 10v20m0 10v20m0 10v20m0 10v20m0 10v20m0 10v20m0 10v10" stroke="#000" stroke-width="2" fill="none"/><path d="M632-3679v859" fill="none"/><path d="M632-3679v9.87m0 9.88v19.74m0 9.87v19.74m0 9.9v19.74m0 9.87v19.76m0 9.87v19.75m0 9.87v19.75m0 9.87v19.75m0 9.87v19.74m0 9.87v19.76m0 9.87v19.75m0 9.87v19.75m0 9.87v19.75m0 9.88v19.74m0 9.88v19.74m0 9.88v19.74m0 9.88v19.74m0 9.88v19.75m0 9.87v19.75m0 9.87v19.75m0 9.87v19.75m0 9.86v19.75m0 9.88v19.75m0 9.87v19.75m0 9.87v19.75m0 9.87v19.75m0 9.86v19.75m0 9.9v19.73m0 9.88v19.75m0 9.88v9.87" stroke="#000" stroke-width="2" fill="none"/><path d="M633-3679h-2v-1h2z"/><path d="M612-3555c0-2.76 2.24-5 5-5h30c2.76 0 5 2.24 5 5v1450c0 2.76-2.24 5-5 5h-30c-2.76 0-5-2.24-5-5z" stroke="#000" stroke-width="2" fill="#fff"/><path d="M872-3679v859" fill="none"/><path d="M872-3679v9.87m0 9.88v19.74m0 9.87v19.74m0 9.9v19.74m0 9.87v19.76m0 9.87v19.75m0 9.87v19.75m0 9.87v19.75m0 9.87v19.74m0 9.87v19.76m0 9.87v19.75m0 9.87v19.75m0 9.87v19.75m0 9.88v19.74m0 9.88v19.74m0 9.88v19.74m0 9.88v19.74m0 9.88v19.75m0 9.87v19.75m0 9.87v19.75m0 9.87v19.75m0 9.86v19.75m0 9.88v19.75m0 9.87v19.75m0 9.87v19.75m0 9.87v19.75m0 9.86v19.75m0 9.9v19.73m0 9.88v19.75m0 9.88v9.87" stroke="#000" stroke-width="2" fill="none"/><path d="M873-3679h-2v-1h2z"/><path d="M1112-3679v859" fill="none"/><path d="M1112-3679v9.87m0 9.88v19.74m0 9.87v19.74m0 9.9v19.74m0 9.87v19.76m0 9.87v19.75m0 9.87v19.75m0 9.87v19.75m0 9.87v19.74m0 9.87v19.76m0 9.87v19.75m0 9.87v19.75m0 9.87v19.75m0 9.88v19.74m0 9.88v19.74m0 9.88v19.74m0 9.88v19.74m0 9.88v19.75m0 9.87v19.75m0 9.87v19.75m0 9.87v19.75m0 9.86v19.75m0 9.88v19.75m0 9.87v19.75m0 9.87v19.75m0 9.87v19.75m0 9.86v19.75m0 9.9v19.73m0 9.88v19.75m0 9.88v9.87" stroke="#000" stroke-width="2" fill="none"/><path d="M1113-3679h-2v-1h2z"/><path d="M152-3620h203.84" stroke="#000" stroke-width="2" fill="none"/><path d="M370.84-3620l-14.27 4.64v-9.28z" stroke="#000" stroke-width="2"/><use xlink:href="#e" transform="matrix(1,0,0,1,186.1475102545321,-3640) translate(0 10.666666666666668)"/><use xlink:href="#f" transform="matrix(1,0,0,1,186.1475102545321,-3640) translate(39.14814814814815 10.666666666666668)"/><use xlink:href="#g" transform="matrix(1,0,0,1,186.1475102545321,-3640) translate(69.4814814814815 10.666666666666668)"/><use xlink:href="#h" transform="matrix(1,0,0,1,186.1475102545321,-3640) translate(83.51851851851853 10.666666666666668)"/><use xlink:href="#i" transform="matrix(1,0,0,1,186.1475102545321,-3640) translate(110.85185185185188 10.666666666666668)"/><path d="M372-3615c0-2.76 2.24-5 5-5h30c2.76 0 5 2.24 5 5v190c0 2.76-2.24 5-5 5h-30c-2.76 0-5-2.24-5-5z" stroke="#000" stroke-width="2" fill="#fff"/><path d="M292-3735c0-2.76 2.24-5 5-5h50c2.76 0 5 2.24 5 5v50c0 2.76-2.24 5-5 5h-50c-2.76 0-5-2.24-5-5z" stroke="#000" stroke-opacity="0" stroke-width="2" fill="#fff" fill-opacity="0"/><use xlink:href="#j" transform="matrix(1,0,0,1,297,-3735) translate(11.703703703703702 27.666666666666668)"/><path d="M152-2820v800" fill="none"/><path d="M152-2820v9.88m0 9.87v19.76m0 9.88v19.76m0 9.87v19.77m0 9.87v19.76m0 9.87v19.75m0 9.88v19.75m0 9.88v19.75m0 9.88v19.75m0 9.9v19.74m0 9.88v19.75m0 9.88v19.75m0 9.88v19.75m0 9.88v19.76m0 9.88v19.75m0 9.87v19.75m0 9.88v19.75m0 9.88v19.75m0 9.88v19.75m0 9.9v19.74m0 9.88v19.75m0 9.88v19.75m0 9.88v19.75m0 9.87v19.76m0 9.87v19.76m0 9.86v19.76m0 9.87v19.75m0 9.87v9.88" stroke="#000" stroke-width="2" fill="none"/><path d="M872-2820v720" fill="none"/><path d="M872-2820v10m0 10v20m0 10v20m0 10v20m0 10v20m0 10v20m0 10v20m0 10v20m0 10v20m0 10v20m0 10v20m0 10v20m0 10v20m0 10v20m0 10v20m0 10v20m0 10v20m0 10v20m0 10v20m0 10v20m0 10v20m0 10v20m0 10v20m0 10v20m0 10v10" stroke="#000" stroke-width="2" fill="none"/><path d="M1112-2820v680" fill="none"/><path d="M1112-2820v9.86m0 9.85v19.72m0 9.86v19.7m0 9.86v19.7m0 9.87v19.72m0 9.85v19.7m0 9.87v19.7m0 9.86v19.7m0 9.87v19.7m0 9.86v19.7m0 9.87v19.7m0 9.86v19.7m0 9.87v19.7m0 9.86v19.7m0 9.86v19.7m0 9.86v19.7m0 9.87v19.7m0 9.85v19.7m0 9.87v19.7m0 9.86v19.7m0 9.87v19.7m0 9.86v19.72m0 9.86v19.7m0 9.86v9.86" stroke="#000" stroke-width="2" fill="none"/><path d="M392-2820v800" fill="none"/><path d="M392-2820v9.88m0 9.87v19.76m0 9.88v19.76m0 9.87v19.77m0 9.87v19.76m0 9.87v19.75m0 9.88v19.75m0 9.88v19.75m0 9.88v19.75m0 9.9v19.74m0 9.88v19.75m0 9.88v19.75m0 9.88v19.75m0 9.88v19.76m0 9.88v19.75m0 9.87v19.75m0 9.88v19.75m0 9.88v19.75m0 9.88v19.75m0 9.9v19.74m0 9.88v19.75m0 9.88v19.75m0 9.88v19.75m0 9.87v19.76m0 9.87v19.76m0 9.86v19.76m0 9.87v19.75m0 9.87v9.88M412-3560h183.84" stroke="#000" stroke-width="2" fill="none"/><path d="M610.84-3560l-14.27 4.64v-9.28z"/><path d="M614.07-3560l-18.5 6v-12zm-16.5 3.26l10.03-3.26-10.03-3.26z"/><use xlink:href="#k" transform="matrix(1,0,0,1,430.88825100547854,-3580) translate(0 10.666666666666668)"/><use xlink:href="#l" transform="matrix(1,0,0,1,430.88825100547854,-3580) translate(53.296296296296305 10.666666666666668)"/><use xlink:href="#m" transform="matrix(1,0,0,1,430.88825100547854,-3580) translate(111.81481481481481 10.666666666666668)"/><path d="M430.24-3500H611" fill="none"/><path d="M430.24-3500h3m4.03 0h6.02m4 0h6.03m4.02 0h6.03m4 0h6.04m4.02 0h6.02m4.02 0h6.02m4.02 0h6.03m4 0h6.04m4 0h6.03m4.02 0h6.02m4.02 0h6.02m4 0h6.04m4.02 0h6.02m4.02 0h6.02m4.02 0h6.03m4 0h6.03m4 0h6.04m4.02 0h3" stroke="#000" stroke-width="2" fill="none"/><path d="M415.24-3500l14.26-4.64v9.28z" stroke="#000" stroke-width="2"/><path d="M612-3499h-1v-2h1z"/><use xlink:href="#n" transform="matrix(1,0,0,1,465.6111111111111,-3520) translate(0 10.666666666666668)"/><use xlink:href="#o" transform="matrix(1,0,0,1,465.6111111111111,-3520) translate(38.44444444444445 10.666666666666668)"/><path d="M170.24-3460H372" stroke="#000" stroke-width="2" fill="none"/><path d="M155.24-3460l14.26-4.64v9.28z" stroke="#000" stroke-width="2"/><use xlink:href="#p" transform="matrix(1,0,0,1,199.07407407407408,-3480) translate(0 10.666666666666668)"/><use xlink:href="#q" transform="matrix(1,0,0,1,199.07407407407408,-3480) translate(37 10.666666666666668)"/><use xlink:href="#r" transform="matrix(1,0,0,1,199.07407407407408,-3480) translate(77.70370370370371 10.666666666666668)"/><path d="M152-3380h440.76" stroke="#000" stroke-width="2" fill="none"/><path d="M607.76-3380l-14.26 4.64v-9.28z"/><path d="M611-3380l-18.5 6v-12zm-16.5 3.26l10.03-3.26-10.03-3.26z"/><use xlink:href="#s" transform="matrix(1,0,0,1,338.9259259259259,-3400) translate(0 10.666666666666668)"/><use xlink:href="#t" transform="matrix(1,0,0,1,338.9259259259259,-3400) translate(38.48148148148149 10.666666666666668)"/><path d="M170.24-3320H611" fill="none"/><path d="M170.24-3320h3m4 0h6.02m4 0h6.02m4 0h6m4.02 0h6m4.02 0h6m4.02 0h6m4 0h6.02m4 0h6.02m4 0h6.02m4 0h6m4.02 0h6m4.02 0h6m4.02 0h6m4 0h6.02m4 0h6.02m4 0h6.02m4 0h6.02m4 0h6m4.02 0h6m4.02 0h6m4.02 0h6m4 0h6.02m4 0h6.02m4 0h6.02m4 0h6.02m4 0h6m4.02 0h6m4.02 0h6m4 0h6.02m4 0h6.02m4 0h6.02m4 0h6.02m4 0h6m4.02 0h6m4.02 0h6m4.02 0h6m4 0h6.02m4 0h6.02m4 0h6.02m4 0h6.02m4 0h6m4.02 0h6m4.02 0h6m4 0H611" stroke="#000" stroke-width="2" fill="none"/><path d="M155.24-3320l14.26-4.64v9.28z" stroke="#000" stroke-width="2"/><path d="M612-3319h-1v-2h1z"/><use xlink:href="#n" transform="matrix(1,0,0,1,317.8703703703704,-3340) translate(0 10.666666666666668)"/><use xlink:href="#u" transform="matrix(1,0,0,1,317.8703703703704,-3340) translate(38.44444444444445 10.666666666666668)"/><use xlink:href="#v" transform="matrix(1,0,0,1,317.8703703703704,-3340) translate(88.81481481481481 10.666666666666668)"/><path d="M152-3260h440.76" stroke="#000" stroke-width="2" fill="none"/><path d="M607.76-3260l-14.26 4.64v-9.28z" stroke="#000" stroke-width="2"/><use xlink:href="#w" transform="matrix(1,0,0,1,327.8703703703704,-3280) translate(0 10.666666666666668)"/><use xlink:href="#x" transform="matrix(1,0,0,1,327.8703703703704,-3280) translate(3.703703703703704 10.666666666666668)"/><use xlink:href="#y" transform="matrix(1,0,0,1,327.8703703703704,-3280) translate(40.7037037037037 10.666666666666668)"/><use xlink:href="#v" transform="matrix(1,0,0,1,327.8703703703704,-3280) translate(68.81481481481481 10.666666666666668)"/><path d="M572-3212.33c0-2.76 2.24-5 5-5h90c2.76 0 5 2.24 5 5v10c0 2.76-1.58 6.58-3.54 8.53l-2.92 2.93c-1.96 1.95-5.78 3.54-8.54 3.54h-80c-2.76 0-5-2.24-5-5z" fill="#fff"/><path d="M572-3212.33c0-2.76 2.24-5 5-5h100c2.76 0 5 2.24 5 5v130c0 2.76-2.24 5-5 5H577c-2.76 0-5-2.24-5-5z" stroke="#000" stroke-width="2" fill="none"/><path d="M672-3217.33v20l-10 10h-90" stroke="#000" stroke-width="2" fill="#fff"/><use xlink:href="#z" transform="matrix(1,0,0,1,580,-3217.3333333333335) translate(0 17.666666666666668)"/><path d="M653-3157.33h59v40h-40.76" stroke="#000" stroke-width="2" fill="none"/><path d="M656.24-3117.33l14.26-4.64v9.27z" stroke="#000" stroke-width="2"/><use xlink:href="#A" transform="matrix(1,0,0,1,720,-3145.3333333333335) translate(0 10.666666666666668)"/><path d="M32-3035c0-2.76 2.24-5 5-5h90c2.76 0 5 2.24 5 5v10c0 2.76-1.58 6.58-3.54 8.54l-2.92 2.92c-1.96 1.96-5.78 3.54-8.54 3.54H37c-2.76 0-5-2.24-5-5z" fill="#fff"/><path d="M132-3040v20l-10 10H32" stroke="#000" stroke-width="2" fill="none"/><path d="M32-3035c0-2.76 2.24-5 5-5h690c2.76 0 5 2.24 5 5v230c0 2.76-2.24 5-5 5H37c-2.76 0-5-2.24-5-5zM32-2920h20m15 0h20m15 0h20m15 0h20m15 0h20m15 0h20m15 0h20m15 0h20m15 0h20m15 0h20m15 0h20m15 0h20m15 0h20m15 0h20m15 0h20m15 0h20m15 0h20m15 0h20m15 0h20m15 0h20" stroke="#000" stroke-width="2" fill="none"/><use xlink:href="#B" transform="matrix(1,0,0,1,40,-3040) translate(0 17.666666666666668)"/><use xlink:href="#C" transform="matrix(1,0,0,1,44,-3002) translate(0 10.666666666666668)"/><use xlink:href="#D" transform="matrix(1,0,0,1,44,-3002) translate(24.407407407407405 10.666666666666668)"/><use xlink:href="#E" transform="matrix(1,0,0,1,44,-3002) translate(41.370370370370374 10.666666666666668)"/><use xlink:href="#F" transform="matrix(1,0,0,1,44,-3002) translate(0 26.666666666666668)"/><use xlink:href="#G" transform="matrix(1,0,0,1,44,-2912) translate(0 10.666666666666668)"/><use xlink:href="#H" transform="matrix(1,0,0,1,44,-2912) translate(18.44444444444445 10.666666666666668)"/><use xlink:href="#I" transform="matrix(1,0,0,1,44,-2912) translate(0 26.666666666666668)"/><path d="M611-2982H170.24" stroke="#000" stroke-width="2" fill="none"/><path d="M155.24-2982l14.26-4.64v9.28z" stroke="#000" stroke-width="2"/><use xlink:href="#J" transform="matrix(1,0,0,1,297.6296296296296,-3002) translate(0 10.666666666666668)"/><use xlink:href="#K" transform="matrix(1,0,0,1,297.6296296296296,-3002) translate(35.44444444444445 10.666666666666668)"/><use xlink:href="#L" transform="matrix(1,0,0,1,297.6296296296296,-3002) translate(84.22222222222223 10.666666666666668)"/><use xlink:href="#M" transform="matrix(1,0,0,1,297.6296296296296,-3002) translate(136.70370370370372 10.666666666666668)"/><path d="M611-2860l-440.76-.64" stroke="#000" stroke-width="2" fill="none"/><path d="M155.24-2860.66l14.27-4.62v9.27z" stroke="#000" stroke-width="2"/><use xlink:href="#N" transform="matrix(1,0,0,1,331.9801900784625,-2880.3330384088504) translate(0 10.666666666666668)"/><use xlink:href="#O" transform="matrix(1,0,0,1,331.9801900784625,-2880.3330384088504) translate(42.14814814814815 10.666666666666668)"/><path d="M653-2760h182.84" stroke="#000" stroke-width="2" fill="none"/><path d="M850.84-2760l-14.27 4.64v-9.28z"/><path d="M854.07-2760l-18.5 6v-12zm-16.5 3.26l10.03-3.26-10.03-3.26z"/><use xlink:href="#P" transform="matrix(1,0,0,1,691.036399143421,-2780) translate(0 10.666666666666668)"/><use xlink:href="#Q" transform="matrix(1,0,0,1,691.036399143421,-2780) translate(56.96296296296297 10.666666666666668)"/><use xlink:href="#R" transform="matrix(1,0,0,1,691.036399143421,-2780) translate(86.55555555555557 10.666666666666668)"/><path d="M852-2755c0-2.76 2.24-5 5-5h30c2.76 0 5 2.24 5 5v610c0 2.76-2.24 5-5 5h-30c-2.76 0-5-2.24-5-5z" stroke="#000" stroke-width="2" fill="#fff"/><path d="M892-2700h183.84" stroke="#000" stroke-width="2" fill="none"/><path d="M1090.84-2700l-14.27 4.64v-9.28z" stroke="#000" stroke-width="2"/><use xlink:href="#S" transform="matrix(1,0,0,1,926.4067695137913,-2720) translate(0 10.666666666666668)"/><use xlink:href="#T" transform="matrix(1,0,0,1,926.4067695137913,-2720) translate(38.518518518518526 10.666666666666668)"/><use xlink:href="#U" transform="matrix(1,0,0,1,926.4067695137913,-2720) translate(48.85185185185186 10.666666666666668)"/><use xlink:href="#V" transform="matrix(1,0,0,1,926.4067695137913,-2720) translate(99.22222222222223 10.666666666666668)"/><path d="M1133-2620h59v40h-40.76" stroke="#000" stroke-width="2" fill="none"/><path d="M1136.24-2580l14.26-4.64v9.28z" stroke="#000" stroke-width="2"/><use xlink:href="#W" transform="matrix(1,0,0,1,1200,-2608) translate(0 10.666666666666668)"/><path d="M1092-2695c0-2.76 2.24-5 5-5h30c2.76 0 5 2.24 5 5v510c0 2.76-2.24 5-5 5h-30c-2.76 0-5-2.24-5-5z" stroke="#000" stroke-width="2" fill="#fff"/><path d="M1057-2675c0-2.76 2.24-5 5-5h90c2.76 0 5 2.24 5 5v10c0 2.76-1.58 6.58-3.54 8.54l-2.92 2.92c-1.96 1.96-5.78 3.54-8.54 3.54h-80c-2.76 0-5-2.24-5-5z" fill="#fff"/><path d="M1057-2675c0-2.76 2.24-5 5-5h100c2.76 0 5 2.24 5 5v130c0 2.76-2.24 5-5 5h-100c-2.76 0-5-2.24-5-5z" stroke="#000" stroke-width="2" fill="none"/><path d="M1157-2680v20l-10 10h-90" stroke="#000" stroke-width="2" fill="#fff"/><g><use xlink:href="#z" transform="matrix(1,0,0,1,1065,-2680) translate(0 17.666666666666668)"/></g><path d="M32-2495c0-2.76 2.24-5 5-5h90c2.76 0 5 2.24 5 5v10c0 2.76-1.58 6.58-3.54 8.54l-2.92 2.92c-1.96 1.96-5.78 3.54-8.54 3.54H37c-2.76 0-5-2.24-5-5z" fill="#fff"/><path d="M132-2500v20l-10 10H32" stroke="#000" stroke-width="2" fill="none"/><path d="M32-2495c0-2.76 2.24-5 5-5h1150c2.76 0 5 2.24 5 5v450c0 2.76-2.24 5-5 5H37c-2.76 0-5-2.24-5-5zM32-2270h20m15 0h20m15 0h20m15 0h20m15 0h20m15 0h20m15 0h20m15 0h20m15 0h20m15 0h20m15 0h20m15 0h20m15 0h20m15 0h20m15 0h20m15 0h20m15 0h20m15 0h20m15 0h20m15 0h20m15 0h20m15 0h20m15 0h20m15 0h20m15 0h20m15 0h20m15 0h20m15 0h20m15 0h20m15 0h20m15 0h20m15 0h20m15 0h20m15 0h5" stroke="#000" stroke-width="2" fill="none"/><g><use xlink:href="#B" transform="matrix(1,0,0,1,40,-2500) translate(0 17.666666666666668)"/></g><g><use xlink:href="#X" transform="matrix(1,0,0,1,44,-2462) translate(0 10.666666666666668)"/><use xlink:href="#Y" transform="matrix(1,0,0,1,44,-2462) translate(50.37037037037037 10.666666666666668)"/><use xlink:href="#Z" transform="matrix(1,0,0,1,44,-2462) translate(0 26.666666666666668)"/><use xlink:href="#aa" transform="matrix(1,0,0,1,44,-2462) translate(22.22222222222222 26.666666666666668)"/></g><g><use xlink:href="#ab" transform="matrix(1,0,0,1,44,-2262) translate(0 10.666666666666668)"/><use xlink:href="#ac" transform="matrix(1,0,0,1,44,-2262) translate(50.37037037037037 10.666666666666668)"/><use xlink:href="#ad" transform="matrix(1,0,0,1,44,-2262) translate(0 26.666666666666668)"/></g><path d="M1092-2440H911.24" stroke="#000" stroke-width="2" fill="none"/><path d="M896.24-2440l14.26-4.64v9.28z" stroke="#000" stroke-width="2"/><g><use xlink:href="#X" transform="matrix(1,0,0,1,948.7962962962963,-2460) translate(0 10.666666666666668)"/><use xlink:href="#ae" transform="matrix(1,0,0,1,948.7962962962963,-2460) translate(50.37037037037037 10.666666666666668)"/></g><path d="M852-2400H671.24" stroke="#000" stroke-width="2" fill="none"/><path d="M656.24-2400l14.26-4.64v9.28z" stroke="#000" stroke-width="2"/><g><use xlink:href="#af" transform="matrix(1,0,0,1,681.4629629629629,-2420) translate(0 10.666666666666668)"/><use xlink:href="#U" transform="matrix(1,0,0,1,681.4629629629629,-2420) translate(47.296296296296305 10.666666666666668)"/><use xlink:href="#ag" transform="matrix(1,0,0,1,681.4629629629629,-2420) translate(97.66666666666667 10.666666666666668)"/></g><path d="M611-2338.14H170.24" stroke="#000" stroke-width="2" fill="none"/><path d="M155.24-2338.14l14.26-4.63v9.27z" stroke="#000" stroke-width="2"/><g><use xlink:href="#ah" transform="matrix(1,0,0,1,306.3333333333333,-2358.137019433634) translate(0 10.666666666666668)"/><use xlink:href="#u" transform="matrix(1,0,0,1,306.3333333333333,-2358.137019433634) translate(55.55555555555557 10.666666666666668)"/><use xlink:href="#ai" transform="matrix(1,0,0,1,306.3333333333333,-2358.137019433634) translate(105.92592592592594 10.666666666666668)"/></g><path d="M1092-2220H911.24" stroke="#000" stroke-width="2" fill="none"/><path d="M896.24-2220l14.26-4.64v9.28z" stroke="#000" stroke-width="2"/><g><use xlink:href="#X" transform="matrix(1,0,0,1,916.9629629629629,-2240) translate(0 10.666666666666668)"/><use xlink:href="#aj" transform="matrix(1,0,0,1,916.9629629629629,-2240) translate(50.37037037037037 10.666666666666668)"/><use xlink:href="#ak" transform="matrix(1,0,0,1,916.9629629629629,-2240) translate(91.81481481481481 10.666666666666668)"/><use xlink:href="#ae" transform="matrix(1,0,0,1,916.9629629629629,-2240) translate(114.03703703703704 10.666666666666668)"/></g><path d="M671.24-2180H852" stroke="#000" stroke-width="2" fill="none"/><path d="M656.24-2180l14.26-4.64v9.28z" stroke="#000" stroke-width="2"/><g><use xlink:href="#af" transform="matrix(1,0,0,1,670.3518518518518,-2200) translate(0 10.666666666666668)"/><use xlink:href="#U" transform="matrix(1,0,0,1,670.3518518518518,-2200) translate(47.296296296296305 10.666666666666668)"/><use xlink:href="#ak" transform="matrix(1,0,0,1,670.3518518518518,-2200) translate(97.66666666666667 10.666666666666668)"/><use xlink:href="#ag" transform="matrix(1,0,0,1,670.3518518518518,-2200) translate(119.88888888888889 10.666666666666668)"/></g><path d="M612-2120H170.24" stroke="#000" stroke-width="2" fill="none"/><path d="M155.24-2120l14.26-4.64v9.28z" stroke="#000" stroke-width="2"/><g><use xlink:href="#al" transform="matrix(1,0,0,1,277.7037037037037,-2140) translate(0 10.666666666666668)"/><use xlink:href="#am" transform="matrix(1,0,0,1,277.7037037037037,-2140) translate(35.44444444444445 10.666666666666668)"/><use xlink:href="#an" transform="matrix(1,0,0,1,277.7037037037037,-2140) translate(70.8888888888889 10.666666666666668)"/><use xlink:href="#ao" transform="matrix(1,0,0,1,277.7037037037037,-2140) translate(118.22222222222223 10.666666666666668)"/><use xlink:href="#ap" transform="matrix(1,0,0,1,277.7037037037037,-2140) translate(143.40740740740742 10.666666666666668)"/><use xlink:href="#t" transform="matrix(1,0,0,1,277.7037037037037,-2140) translate(161.92592592592592 10.666666666666668)"/></g><defs><path d="M205 0l-28-72H64L36 0H1l101-248h38L239 0h-34zm-38-99l-47-123c-12 45-31 82-46 123h93" id="aq"/><path d="M115-194c55 1 70 41 70 98S169 2 115 4C84 4 66-9 55-30l1 105H24l-1-265h31l2 30c10-21 28-34 59-34zm-8 174c40 0 45-34 45-75s-6-73-45-74c-42 0-51 32-51 76 0 43 10 73 51 73" id="ar"/><g id="a"><use transform="matrix(0.03703703703703704,0,0,0.03703703703703704,0,0)" xlink:href="#aq"/><use transform="matrix(0.03703703703703704,0,0,0.03703703703703704,8.88888888888889,0)" xlink:href="#ar"/><use transform="matrix(0.03703703703703704,0,0,0.03703703703703704,16.296296296296298,0)" xlink:href="#ar"/><path d="M-.67.92h28.74v.98H-.67z"/></g><path d="M212-179c-10-28-35-45-73-45-59 0-87 40-87 99 0 60 29 101 89 101 43 0 62-24 78-52l27 14C228-24 195 4 139 4 59 4 22-46 18-125c-6-104 99-153 187-111 19 9 31 26 39 46" id="as"/><path d="M100-194c62-1 85 37 85 99 1 63-27 99-86 99S16-35 15-95c0-66 28-99 85-99zM99-20c44 1 53-31 53-75 0-43-8-75-51-75s-53 32-53 75 10 74 51 75" id="at"/><path d="M117-194c89-4 53 116 60 194h-32v-121c0-31-8-49-39-48C34-167 62-67 57 0H25l-1-190h30c1 10-1 24 2 32 11-22 29-35 61-36" id="au"/><path d="M59-47c-2 24 18 29 38 22v24C64 9 27 4 27-40v-127H5v-23h24l9-43h21v43h35v23H59v120" id="av"/><path d="M114-163C36-179 61-72 57 0H25l-1-190h30c1 12-1 29 2 39 6-27 23-49 58-41v29" id="aw"/><path d="M24 0v-261h32V0H24" id="ax"/><path d="M100-194c63 0 86 42 84 106H49c0 40 14 67 53 68 26 1 43-12 49-29l28 8c-11 28-37 45-77 45C44 4 14-33 15-96c1-61 26-98 85-98zm52 81c6-60-76-77-97-28-3 7-6 17-6 28h103" id="ay"/><g id="b"><use transform="matrix(0.03703703703703704,0,0,0.03703703703703704,0,0)" xlink:href="#as"/><use transform="matrix(0.03703703703703704,0,0,0.03703703703703704,9.592592592592593,0)" xlink:href="#at"/><use transform="matrix(0.03703703703703704,0,0,0.03703703703703704,17,0)" xlink:href="#au"/><use transform="matrix(0.03703703703703704,0,0,0.03703703703703704,24.407407407407405,0)" xlink:href="#av"/><use transform="matrix(0.03703703703703704,0,0,0.03703703703703704,28.111111111111114,0)" xlink:href="#aw"/><use transform="matrix(0.03703703703703704,0,0,0.03703703703703704,32.51851851851852,0)" xlink:href="#at"/><use transform="matrix(0.03703703703703704,0,0,0.03703703703703704,39.925925925925924,0)" xlink:href="#ax"/><use transform="matrix(0.03703703703703704,0,0,0.03703703703703704,42.85185185185185,0)" xlink:href="#ax"/><use transform="matrix(0.03703703703703704,0,0,0.03703703703703704,45.77777777777778,0)" xlink:href="#ay"/><use transform="matrix(0.03703703703703704,0,0,0.03703703703703704,53.185185185185176,0)" xlink:href="#aw"/><path d="M-.67.92h58.93v.98H-.67z"/></g><path d="M160-131c35 5 61 23 61 61C221 17 115-2 30 0v-248c76 3 177-17 177 60 0 33-19 50-47 57zm-97-11c50-1 110 9 110-42 0-47-63-36-110-37v79zm0 115c55-2 124 14 124-45 0-56-70-42-124-44v89" id="az"/><path d="M141-36C126-15 110 5 73 4 37 3 15-17 15-53c-1-64 63-63 125-63 3-35-9-54-41-54-24 1-41 7-42 31l-33-3c5-37 33-52 76-52 45 0 72 20 72 64v82c-1 20 7 32 28 27v20c-31 9-61-2-59-35zM48-53c0 20 12 33 32 33 41-3 63-29 60-74-43 2-92-5-92 41" id="aA"/><path d="M96-169c-40 0-48 33-48 73s9 75 48 75c24 0 41-14 43-38l32 2c-6 37-31 61-74 61-59 0-76-41-82-99-10-93 101-131 147-64 4 7 5 14 7 22l-32 3c-4-21-16-35-41-35" id="aB"/><path d="M143 0L79-87 56-68V0H24v-261h32v163l83-92h37l-77 82L181 0h-38" id="aC"/><path d="M85-194c31 0 48 13 60 33l-1-100h32l1 261h-30c-2-10 0-23-3-31C134-8 116 4 85 4 32 4 16-35 15-94c0-66 23-100 70-100zm9 24c-40 0-46 34-46 75 0 40 6 74 45 74 42 0 51-32 51-76 0-42-9-74-50-73" id="aD"/><g id="c"><use transform="matrix(0.03703703703703704,0,0,0.03703703703703704,0,0)" xlink:href="#az"/><use transform="matrix(0.03703703703703704,0,0,0.03703703703703704,8.88888888888889,0)" xlink:href="#aA"/><use transform="matrix(0.03703703703703704,0,0,0.03703703703703704,16.296296296296298,0)" xlink:href="#aB"/><use transform="matrix(0.03703703703703704,0,0,0.03703703703703704,22.962962962962965,0)" xlink:href="#aC"/><use transform="matrix(0.03703703703703704,0,0,0.03703703703703704,29.629629629629633,0)" xlink:href="#ay"/><use transform="matrix(0.03703703703703704,0,0,0.03703703703703704,37.03703703703704,0)" xlink:href="#au"/><use transform="matrix(0.03703703703703704,0,0,0.03703703703703704,44.44444444444444,0)" xlink:href="#aD"/><path d="M-.67.92h53.2v.98H-.68z"/></g><path d="M63-220v92h138v28H63V0H30v-248h175v28H63" id="aE"/><path d="M24-231v-30h32v30H24zM24 0v-190h32V0H24" id="aF"/><path d="M115-194c53 0 69 39 70 98 0 66-23 100-70 100C84 3 66-7 56-30L54 0H23l1-261h32v101c10-23 28-34 59-34zm-8 174c40 0 45-34 45-75 0-40-5-75-45-74-42 0-51 32-51 76 0 43 10 73 51 73" id="aG"/><path d="M135-143c-3-34-86-38-87 0 15 53 115 12 119 90S17 21 10-45l28-5c4 36 97 45 98 0-10-56-113-15-118-90-4-57 82-63 122-42 12 7 21 19 24 35" id="aH"/><g id="d"><use transform="matrix(0.03703703703703704,0,0,0.03703703703703704,0,0)" xlink:href="#aE"/><use transform="matrix(0.03703703703703704,0,0,0.03703703703703704,8.111111111111112,0)" xlink:href="#aF"/><use transform="matrix(0.03703703703703704,0,0,0.03703703703703704,11.037037037037038,0)" xlink:href="#aw"/><use transform="matrix(0.03703703703703704,0,0,0.03703703703703704,15.444444444444446,0)" xlink:href="#ay"/><use transform="matrix(0.03703703703703704,0,0,0.03703703703703704,22.851851851851855,0)" xlink:href="#aG"/><use transform="matrix(0.03703703703703704,0,0,0.03703703703703704,30.259259259259263,0)" xlink:href="#aA"/><use transform="matrix(0.03703703703703704,0,0,0.03703703703703704,37.66666666666667,0)" xlink:href="#aH"/><use transform="matrix(0.03703703703703704,0,0,0.03703703703703704,44.333333333333336,0)" xlink:href="#ay"/><path d="M-.67.92H52.4v.98H-.67z"/></g><g id="e"><use transform="matrix(0.03703703703703704,0,0,0.03703703703703704,0,0)" xlink:href="#as"/><use transform="matrix(0.03703703703703704,0,0,0.03703703703703704,9.592592592592593,0)" xlink:href="#ax"/><use transform="matrix(0.03703703703703704,0,0,0.03703703703703704,12.518518518518517,0)" xlink:href="#aF"/><use transform="matrix(0.03703703703703704,0,0,0.03703703703703704,15.444444444444446,0)" xlink:href="#aB"/><use transform="matrix(0.03703703703703704,0,0,0.03703703703703704,22.111111111111114,0)" xlink:href="#aC"/><use transform="matrix(0.03703703703703704,0,0,0.03703703703703704,28.777777777777782,0)" xlink:href="#aH"/></g><path d="M185-189c-5-48-123-54-124 2 14 75 158 14 163 119 3 78-121 87-175 55-17-10-28-26-33-46l33-7c5 56 141 63 141-1 0-78-155-14-162-118-5-82 145-84 179-34 5 7 8 16 11 25" id="aI"/><path d="M177-190C167-65 218 103 67 71c-23-6-38-20-44-43l32-5c15 47 100 32 89-28v-30C133-14 115 1 83 1 29 1 15-40 15-95c0-56 16-97 71-98 29-1 48 16 59 35 1-10 0-23 2-32h30zM94-22c36 0 50-32 50-73 0-42-14-75-50-75-39 0-46 34-46 75s6 73 46 73" id="aJ"/><g id="f"><use transform="matrix(0.03703703703703704,0,0,0.03703703703703704,0,0)" xlink:href="#aI"/><use transform="matrix(0.03703703703703704,0,0,0.03703703703703704,8.88888888888889,0)" xlink:href="#aF"/><use transform="matrix(0.03703703703703704,0,0,0.03703703703703704,11.814814814814817,0)" xlink:href="#aJ"/><use transform="matrix(0.03703703703703704,0,0,0.03703703703703704,19.222222222222225,0)" xlink:href="#au"/></g><g id="g"><use transform="matrix(0.03703703703703704,0,0,0.03703703703703704,0,0)" xlink:href="#aF"/><use transform="matrix(0.03703703703703704,0,0,0.03703703703703704,2.9259259259259265,0)" xlink:href="#au"/></g><path d="M206 0h-36l-40-164L89 0H53L-1-190h32L70-26l43-164h34l41 164 42-164h31" id="aK"/><path d="M106-169C34-169 62-67 57 0H25v-261h32l-1 103c12-21 28-36 61-36 89 0 53 116 60 194h-32v-121c2-32-8-49-39-48" id="aL"/><g id="h"><use transform="matrix(0.03703703703703704,0,0,0.03703703703703704,0,0)" xlink:href="#aK"/><use transform="matrix(0.03703703703703704,0,0,0.03703703703703704,9.592592592592593,0)" xlink:href="#aF"/><use transform="matrix(0.03703703703703704,0,0,0.03703703703703704,12.518518518518517,0)" xlink:href="#av"/><use transform="matrix(0.03703703703703704,0,0,0.03703703703703704,16.22222222222222,0)" xlink:href="#aL"/></g><path d="M143 4C61 4 22-44 18-125c-5-107 100-154 193-111 17 8 29 25 37 43l-32 9c-13-25-37-40-76-40-61 0-88 39-88 99 0 61 29 100 91 101 35 0 62-11 79-27v-45h-74v-28h105v86C228-13 192 4 143 4" id="aM"/><g id="i"><use transform="matrix(0.03703703703703704,0,0,0.03703703703703704,0,0)" xlink:href="#aM"/><use transform="matrix(0.03703703703703704,0,0,0.03703703703703704,10.370370370370372,0)" xlink:href="#at"/><use transform="matrix(0.03703703703703704,0,0,0.03703703703703704,17.77777777777778,0)" xlink:href="#at"/><use transform="matrix(0.03703703703703704,0,0,0.03703703703703704,25.185185185185187,0)" xlink:href="#aJ"/><use transform="matrix(0.03703703703703704,0,0,0.03703703703703704,32.592592592592595,0)" xlink:href="#ax"/><use transform="matrix(0.03703703703703704,0,0,0.03703703703703704,35.51851851851852,0)" xlink:href="#ay"/></g><path d="M108 0H70L1-190h34L89-25l56-165h34" id="aN"/><g id="j"><use transform="matrix(0.03703703703703704,0,0,0.03703703703703704,0,0)" xlink:href="#aN"/><use transform="matrix(0.03703703703703704,0,0,0.03703703703703704,6.666666666666668,0)" xlink:href="#aF"/><use transform="matrix(0.03703703703703704,0,0,0.03703703703703704,9.592592592592595,0)" xlink:href="#ay"/><use transform="matrix(0.03703703703703704,0,0,0.03703703703703704,17.000000000000004,0)" xlink:href="#aK"/></g><path d="M233-177c-1 41-23 64-60 70L243 0h-38l-65-103H63V0H30v-248c88 3 205-21 203 71zM63-129c60-2 137 13 137-47 0-61-80-42-137-45v92" id="aO"/><path d="M145-31C134-9 116 4 85 4 32 4 16-35 15-94c0-59 17-99 70-100 32-1 48 14 60 33 0-11-1-24 2-32h30l-1 268h-32zM93-21c41 0 51-33 51-76s-8-73-50-73c-40 0-46 35-46 75s5 74 45 74" id="aP"/><path d="M84 4C-5 8 30-112 23-190h32v120c0 31 7 50 39 49 72-2 45-101 50-169h31l1 190h-30c-1-10 1-25-2-33-11 22-28 36-60 37" id="aQ"/><g id="k"><use transform="matrix(0.03703703703703704,0,0,0.03703703703703704,0,0)" xlink:href="#aO"/><use transform="matrix(0.03703703703703704,0,0,0.03703703703703704,9.592592592592593,0)" xlink:href="#ay"/><use transform="matrix(0.03703703703703704,0,0,0.03703703703703704,17,0)" xlink:href="#aP"/><use transform="matrix(0.03703703703703704,0,0,0.03703703703703704,24.407407407407405,0)" xlink:href="#aQ"/><use transform="matrix(0.03703703703703704,0,0,0.03703703703703704,31.814814814814813,0)" xlink:href="#ay"/><use transform="matrix(0.03703703703703704,0,0,0.03703703703703704,39.22222222222223,0)" xlink:href="#aH"/><use transform="matrix(0.03703703703703704,0,0,0.03703703703703704,45.8888888888889,0)" xlink:href="#av"/></g><g id="l"><use transform="matrix(0.03703703703703704,0,0,0.03703703703703704,0,0)" xlink:href="#aq"/><use transform="matrix(0.03703703703703704,0,0,0.03703703703703704,8.88888888888889,0)" xlink:href="#aB"/><use transform="matrix(0.03703703703703704,0,0,0.03703703703703704,15.555555555555557,0)" xlink:href="#aB"/><use transform="matrix(0.03703703703703704,0,0,0.03703703703703704,22.222222222222225,0)" xlink:href="#at"/><use transform="matrix(0.03703703703703704,0,0,0.03703703703703704,29.629629629629633,0)" xlink:href="#aQ"/><use transform="matrix(0.03703703703703704,0,0,0.03703703703703704,37.03703703703704,0)" xlink:href="#au"/><use transform="matrix(0.03703703703703704,0,0,0.03703703703703704,44.44444444444444,0)" xlink:href="#av"/><use transform="matrix(0.03703703703703704,0,0,0.03703703703703704,48.148148148148145,0)" xlink:href="#aH"/></g><g id="m"><use transform="matrix(0.03703703703703704,0,0,0.03703703703703704,0,0)" xlink:href="#aA"/><use transform="matrix(0.03703703703703704,0,0,0.03703703703703704,7.407407407407408,0)" xlink:href="#aN"/><use transform="matrix(0.03703703703703704,0,0,0.03703703703703704,14.074074074074076,0)" xlink:href="#aA"/><use transform="matrix(0.03703703703703704,0,0,0.03703703703703704,21.481481481481485,0)" xlink:href="#aF"/><use transform="matrix(0.03703703703703704,0,0,0.03703703703703704,24.407407407407412,0)" xlink:href="#ax"/><use transform="matrix(0.03703703703703704,0,0,0.03703703703703704,27.333333333333343,0)" xlink:href="#aA"/><use transform="matrix(0.03703703703703704,0,0,0.03703703703703704,34.74074074074075,0)" xlink:href="#aG"/><use transform="matrix(0.03703703703703704,0,0,0.03703703703703704,42.14814814814815,0)" xlink:href="#ax"/><use transform="matrix(0.03703703703703704,0,0,0.03703703703703704,45.07407407407408,0)" xlink:href="#ay"/></g><g id="n"><use transform="matrix(0.03703703703703704,0,0,0.03703703703703704,0,0)" xlink:href="#aw"/><use transform="matrix(0.03703703703703704,0,0,0.03703703703703704,4.407407407407408,0)" xlink:href="#ay"/><use transform="matrix(0.03703703703703704,0,0,0.03703703703703704,11.814814814814817,0)" xlink:href="#av"/><use transform="matrix(0.03703703703703704,0,0,0.03703703703703704,15.51851851851852,0)" xlink:href="#aQ"/><use transform="matrix(0.03703703703703704,0,0,0.03703703703703704,22.925925925925927,0)" xlink:href="#aw"/><use transform="matrix(0.03703703703703704,0,0,0.03703703703703704,27.333333333333343,0)" xlink:href="#au"/></g><g id="o"><use transform="matrix(0.03703703703703704,0,0,0.03703703703703704,0,0)" xlink:href="#aA"/><use transform="matrix(0.03703703703703704,0,0,0.03703703703703704,7.407407407407408,0)" xlink:href="#aB"/><use transform="matrix(0.03703703703703704,0,0,0.03703703703703704,14.074074074074076,0)" xlink:href="#aB"/><use transform="matrix(0.03703703703703704,0,0,0.03703703703703704,20.740740740740744,0)" xlink:href="#at"/><use transform="matrix(0.03703703703703704,0,0,0.03703703703703704,28.148148148148152,0)" xlink:href="#aQ"/><use transform="matrix(0.03703703703703704,0,0,0.03703703703703704,35.55555555555556,0)" xlink:href="#au"/><use transform="matrix(0.03703703703703704,0,0,0.03703703703703704,42.96296296296296,0)" xlink:href="#av"/><use transform="matrix(0.03703703703703704,0,0,0.03703703703703704,46.666666666666664,0)" xlink:href="#aH"/></g><g id="p"><use transform="matrix(0.03703703703703704,0,0,0.03703703703703704,0,0)" xlink:href="#aI"/><use transform="matrix(0.03703703703703704,0,0,0.03703703703703704,8.88888888888889,0)" xlink:href="#aL"/><use transform="matrix(0.03703703703703704,0,0,0.03703703703703704,16.296296296296298,0)" xlink:href="#at"/><use transform="matrix(0.03703703703703704,0,0,0.03703703703703704,23.703703703703706,0)" xlink:href="#aK"/></g><g id="q"><use transform="matrix(0.03703703703703704,0,0,0.03703703703703704,0,0)" xlink:href="#aI"/><use transform="matrix(0.03703703703703704,0,0,0.03703703703703704,8.88888888888889,0)" xlink:href="#ay"/><use transform="matrix(0.03703703703703704,0,0,0.03703703703703704,16.296296296296298,0)" xlink:href="#ax"/><use transform="matrix(0.03703703703703704,0,0,0.03703703703703704,19.222222222222225,0)" xlink:href="#ay"/><use transform="matrix(0.03703703703703704,0,0,0.03703703703703704,26.629629629629633,0)" xlink:href="#aB"/><use transform="matrix(0.03703703703703704,0,0,0.03703703703703704,33.296296296296305,0)" xlink:href="#av"/></g><g id="r"><use transform="matrix(0.03703703703703704,0,0,0.03703703703703704,0,0)" xlink:href="#aq"/><use transform="matrix(0.03703703703703704,0,0,0.03703703703703704,8.88888888888889,0)" xlink:href="#aB"/><use transform="matrix(0.03703703703703704,0,0,0.03703703703703704,15.555555555555557,0)" xlink:href="#aB"/><use transform="matrix(0.03703703703703704,0,0,0.03703703703703704,22.222222222222225,0)" xlink:href="#at"/><use transform="matrix(0.03703703703703704,0,0,0.03703703703703704,29.629629629629633,0)" xlink:href="#aQ"/><use transform="matrix(0.03703703703703704,0,0,0.03703703703703704,37.03703703703704,0)" xlink:href="#au"/><use transform="matrix(0.03703703703703704,0,0,0.03703703703703704,44.44444444444444,0)" xlink:href="#av"/></g><g id="s"><use transform="matrix(0.03703703703703704,0,0,0.03703703703703704,0,0)" xlink:href="#aH"/><use transform="matrix(0.03703703703703704,0,0,0.03703703703703704,6.666666666666668,0)" xlink:href="#ay"/><use transform="matrix(0.03703703703703704,0,0,0.03703703703703704,14.074074074074076,0)" xlink:href="#ax"/><use transform="matrix(0.03703703703703704,0,0,0.03703703703703704,17.000000000000004,0)" xlink:href="#ay"/><use transform="matrix(0.03703703703703704,0,0,0.03703703703703704,24.407407407407412,0)" xlink:href="#aB"/><use transform="matrix(0.03703703703703704,0,0,0.03703703703703704,31.07407407407408,0)" xlink:href="#av"/></g><g id="t"><use transform="matrix(0.03703703703703704,0,0,0.03703703703703704,0,0)" xlink:href="#aA"/><use transform="matrix(0.03703703703703704,0,0,0.03703703703703704,7.407407407407408,0)" xlink:href="#aB"/><use transform="matrix(0.03703703703703704,0,0,0.03703703703703704,14.074074074074076,0)" xlink:href="#aB"/><use transform="matrix(0.03703703703703704,0,0,0.03703703703703704,20.740740740740744,0)" xlink:href="#at"/><use transform="matrix(0.03703703703703704,0,0,0.03703703703703704,28.148148148148152,0)" xlink:href="#aQ"/><use transform="matrix(0.03703703703703704,0,0,0.03703703703703704,35.55555555555556,0)" xlink:href="#au"/><use transform="matrix(0.03703703703703704,0,0,0.03703703703703704,42.96296296296296,0)" xlink:href="#av"/></g><g id="u"><use transform="matrix(0.03703703703703704,0,0,0.03703703703703704,0,0)" xlink:href="#aA"/><use transform="matrix(0.03703703703703704,0,0,0.03703703703703704,7.407407407407408,0)" xlink:href="#aB"/><use transform="matrix(0.03703703703703704,0,0,0.03703703703703704,14.074074074074076,0)" xlink:href="#aB"/><use transform="matrix(0.03703703703703704,0,0,0.03703703703703704,20.740740740740744,0)" xlink:href="#at"/><use transform="matrix(0.03703703703703704,0,0,0.03703703703703704,28.148148148148152,0)" xlink:href="#aQ"/><use transform="matrix(0.03703703703703704,0,0,0.03703703703703704,35.55555555555556,0)" xlink:href="#au"/><use transform="matrix(0.03703703703703704,0,0,0.03703703703703704,42.96296296296296,0)" xlink:href="#av"/></g><g id="v"><use transform="matrix(0.03703703703703704,0,0,0.03703703703703704,0,0)" xlink:href="#aD"/><use transform="matrix(0.03703703703703704,0,0,0.03703703703703704,7.407407407407408,0)" xlink:href="#ay"/><use transform="matrix(0.03703703703703704,0,0,0.03703703703703704,14.814814814814817,0)" xlink:href="#av"/><use transform="matrix(0.03703703703703704,0,0,0.03703703703703704,18.51851851851852,0)" xlink:href="#aA"/><use transform="matrix(0.03703703703703704,0,0,0.03703703703703704,25.92592592592593,0)" xlink:href="#aF"/><use transform="matrix(0.03703703703703704,0,0,0.03703703703703704,28.851851851851855,0)" xlink:href="#ax"/><use transform="matrix(0.03703703703703704,0,0,0.03703703703703704,31.777777777777782,0)" xlink:href="#aH"/></g><path d="M33 0v-248h34V0H33" id="aR"/><g id="x"><use transform="matrix(0.03703703703703704,0,0,0.03703703703703704,0,0)" xlink:href="#aR"/><use transform="matrix(0.03703703703703704,0,0,0.03703703703703704,3.703703703703704,0)" xlink:href="#au"/><use transform="matrix(0.03703703703703704,0,0,0.03703703703703704,11.111111111111112,0)" xlink:href="#aH"/><use transform="matrix(0.03703703703703704,0,0,0.03703703703703704,17.77777777777778,0)" xlink:href="#ay"/><use transform="matrix(0.03703703703703704,0,0,0.03703703703703704,25.185185185185187,0)" xlink:href="#aw"/><use transform="matrix(0.03703703703703704,0,0,0.03703703703703704,29.592592592592595,0)" xlink:href="#av"/></g><g id="y"><use transform="matrix(0.03703703703703704,0,0,0.03703703703703704,0,0)" xlink:href="#au"/><use transform="matrix(0.03703703703703704,0,0,0.03703703703703704,7.407407407407408,0)" xlink:href="#ay"/><use transform="matrix(0.03703703703703704,0,0,0.03703703703703704,14.814814814814817,0)" xlink:href="#aK"/></g><g id="z"><use transform="matrix(0.03703703703703704,0,0,0.03703703703703704,0,0)" xlink:href="#aA"/><use transform="matrix(0.03703703703703704,0,0,0.03703703703703704,7.407407407407408,0)" xlink:href="#aH"/><use transform="matrix(0.03703703703703704,0,0,0.03703703703703704,14.074074074074076,0)" xlink:href="#aH"/><use transform="matrix(0.03703703703703704,0,0,0.03703703703703704,20.740740740740744,0)" xlink:href="#ay"/><use transform="matrix(0.03703703703703704,0,0,0.03703703703703704,28.148148148148152,0)" xlink:href="#aw"/><use transform="matrix(0.03703703703703704,0,0,0.03703703703703704,32.55555555555556,0)" xlink:href="#av"/></g><path d="M87 75C49 33 22-17 22-94c0-76 28-126 65-167h31c-38 41-64 92-64 168S80 34 118 75H87" id="aS"/><path d="M33-261c38 41 65 92 65 168S71 34 33 75H2C39 34 66-17 66-93S39-220 2-261h31" id="aT"/><g id="A"><use transform="matrix(0.03703703703703704,0,0,0.03703703703703704,0,0)" xlink:href="#aF"/><use transform="matrix(0.03703703703703704,0,0,0.03703703703703704,2.9259259259259265,0)" xlink:href="#aH"/><use transform="matrix(0.03703703703703704,0,0,0.03703703703703704,9.592592592592595,0)" xlink:href="#aq"/><use transform="matrix(0.03703703703703704,0,0,0.03703703703703704,18.481481481481485,0)" xlink:href="#ax"/><use transform="matrix(0.03703703703703704,0,0,0.03703703703703704,21.407407407407412,0)" xlink:href="#ax"/><use transform="matrix(0.03703703703703704,0,0,0.03703703703703704,24.33333333333334,0)" xlink:href="#aO"/><use transform="matrix(0.03703703703703704,0,0,0.03703703703703704,33.92592592592593,0)" xlink:href="#ay"/><use transform="matrix(0.03703703703703704,0,0,0.03703703703703704,41.333333333333336,0)" xlink:href="#aP"/><use transform="matrix(0.03703703703703704,0,0,0.03703703703703704,48.74074074074075,0)" xlink:href="#aQ"/><use transform="matrix(0.03703703703703704,0,0,0.03703703703703704,56.14814814814815,0)" xlink:href="#aF"/><use transform="matrix(0.03703703703703704,0,0,0.03703703703703704,59.074074074074076,0)" xlink:href="#aw"/><use transform="matrix(0.03703703703703704,0,0,0.03703703703703704,63.48148148148148,0)" xlink:href="#ay"/><use transform="matrix(0.03703703703703704,0,0,0.03703703703703704,70.88888888888889,0)" xlink:href="#aD"/><use transform="matrix(0.03703703703703704,0,0,0.03703703703703704,78.29629629629629,0)" xlink:href="#aE"/><use transform="matrix(0.03703703703703704,0,0,0.03703703703703704,86.4074074074074,0)" xlink:href="#aF"/><use transform="matrix(0.03703703703703704,0,0,0.03703703703703704,89.33333333333333,0)" xlink:href="#ay"/><use transform="matrix(0.03703703703703704,0,0,0.03703703703703704,96.74074074074073,0)" xlink:href="#ax"/><use transform="matrix(0.03703703703703704,0,0,0.03703703703703704,99.66666666666666,0)" xlink:href="#aD"/><use transform="matrix(0.03703703703703704,0,0,0.03703703703703704,107.07407407407405,0)" xlink:href="#aH"/><use transform="matrix(0.03703703703703704,0,0,0.03703703703703704,113.74074074074073,0)" xlink:href="#aS"/><use transform="matrix(0.03703703703703704,0,0,0.03703703703703704,118.14814814814812,0)" xlink:href="#aT"/></g><g id="B"><use transform="matrix(0.03703703703703704,0,0,0.03703703703703704,0,0)" xlink:href="#aq"/><use transform="matrix(0.03703703703703704,0,0,0.03703703703703704,8.88888888888889,0)" xlink:href="#ax"/><use transform="matrix(0.03703703703703704,0,0,0.03703703703703704,11.814814814814817,0)" xlink:href="#av"/><use transform="matrix(0.03703703703703704,0,0,0.03703703703703704,15.51851851851852,0)" xlink:href="#ay"/><use transform="matrix(0.03703703703703704,0,0,0.03703703703703704,22.925925925925927,0)" xlink:href="#aw"/><use transform="matrix(0.03703703703703704,0,0,0.03703703703703704,27.333333333333343,0)" xlink:href="#au"/><use transform="matrix(0.03703703703703704,0,0,0.03703703703703704,34.74074074074075,0)" xlink:href="#aA"/><use transform="matrix(0.03703703703703704,0,0,0.03703703703703704,42.14814814814815,0)" xlink:href="#av"/><use transform="matrix(0.03703703703703704,0,0,0.03703703703703704,45.851851851851855,0)" xlink:href="#aF"/><use transform="matrix(0.03703703703703704,0,0,0.03703703703703704,48.77777777777778,0)" xlink:href="#aN"/><use transform="matrix(0.03703703703703704,0,0,0.03703703703703704,55.44444444444444,0)" xlink:href="#ay"/></g><path d="M190 0L58-211 59 0H30v-248h39L202-35l-2-213h31V0h-41" id="aU"/><g id="C"><use transform="matrix(0.03703703703703704,0,0,0.03703703703703704,0,0)" xlink:href="#aU"/><use transform="matrix(0.03703703703703704,0,0,0.03703703703703704,9.592592592592593,0)" xlink:href="#at"/><use transform="matrix(0.03703703703703704,0,0,0.03703703703703704,17,0)" xlink:href="#av"/></g><g id="D"><use transform="matrix(0.03703703703703704,0,0,0.03703703703703704,0,0)" xlink:href="#aA"/><use transform="matrix(0.03703703703703704,0,0,0.03703703703703704,7.407407407407408,0)" xlink:href="#ax"/><use transform="matrix(0.03703703703703704,0,0,0.03703703703703704,10.333333333333334,0)" xlink:href="#ax"/></g><g id="E"><use transform="matrix(0.03703703703703704,0,0,0.03703703703703704,0,0)" xlink:href="#aw"/><use transform="matrix(0.03703703703703704,0,0,0.03703703703703704,4.407407407407408,0)" xlink:href="#ay"/><use transform="matrix(0.03703703703703704,0,0,0.03703703703703704,11.814814814814817,0)" xlink:href="#aP"/><use transform="matrix(0.03703703703703704,0,0,0.03703703703703704,19.222222222222225,0)" xlink:href="#aQ"/><use transform="matrix(0.03703703703703704,0,0,0.03703703703703704,26.629629629629633,0)" xlink:href="#aF"/><use transform="matrix(0.03703703703703704,0,0,0.03703703703703704,29.55555555555556,0)" xlink:href="#aw"/><use transform="matrix(0.03703703703703704,0,0,0.03703703703703704,33.96296296296297,0)" xlink:href="#ay"/><use transform="matrix(0.03703703703703704,0,0,0.03703703703703704,41.37037037037038,0)" xlink:href="#aD"/></g><path d="M101-234c-31-9-42 10-38 44h38v23H63V0H32v-167H5v-23h27c-7-52 17-82 69-68v24" id="aV"/><g id="F"><use transform="matrix(0.03703703703703704,0,0,0.03703703703703704,0,0)" xlink:href="#aV"/><use transform="matrix(0.03703703703703704,0,0,0.03703703703703704,3.703703703703704,0)" xlink:href="#aF"/><use transform="matrix(0.03703703703703704,0,0,0.03703703703703704,6.629629629629631,0)" xlink:href="#ay"/><use transform="matrix(0.03703703703703704,0,0,0.03703703703703704,14.037037037037038,0)" xlink:href="#ax"/><use transform="matrix(0.03703703703703704,0,0,0.03703703703703704,16.962962962962965,0)" xlink:href="#aD"/><use transform="matrix(0.03703703703703704,0,0,0.03703703703703704,24.370370370370374,0)" xlink:href="#aH"/></g><g id="G"><use transform="matrix(0.03703703703703704,0,0,0.03703703703703704,0,0)" xlink:href="#aq"/><use transform="matrix(0.03703703703703704,0,0,0.03703703703703704,8.88888888888889,0)" xlink:href="#ax"/><use transform="matrix(0.03703703703703704,0,0,0.03703703703703704,11.814814814814817,0)" xlink:href="#ax"/></g><g id="H"><use transform="matrix(0.03703703703703704,0,0,0.03703703703703704,0,0)" xlink:href="#aw"/><use transform="matrix(0.03703703703703704,0,0,0.03703703703703704,4.407407407407408,0)" xlink:href="#ay"/><use transform="matrix(0.03703703703703704,0,0,0.03703703703703704,11.814814814814817,0)" xlink:href="#aP"/><use transform="matrix(0.03703703703703704,0,0,0.03703703703703704,19.222222222222225,0)" xlink:href="#aQ"/><use transform="matrix(0.03703703703703704,0,0,0.03703703703703704,26.629629629629633,0)" xlink:href="#aF"/><use transform="matrix(0.03703703703703704,0,0,0.03703703703703704,29.55555555555556,0)" xlink:href="#aw"/><use transform="matrix(0.03703703703703704,0,0,0.03703703703703704,33.96296296296297,0)" xlink:href="#ay"/><use transform="matrix(0.03703703703703704,0,0,0.03703703703703704,41.37037037037038,0)" xlink:href="#aD"/></g><g id="I"><use transform="matrix(0.03703703703703704,0,0,0.03703703703703704,0,0)" xlink:href="#aD"/><use transform="matrix(0.03703703703703704,0,0,0.03703703703703704,7.407407407407408,0)" xlink:href="#ay"/><use transform="matrix(0.03703703703703704,0,0,0.03703703703703704,14.814814814814817,0)" xlink:href="#av"/><use transform="matrix(0.03703703703703704,0,0,0.03703703703703704,18.51851851851852,0)" xlink:href="#aA"/><use transform="matrix(0.03703703703703704,0,0,0.03703703703703704,25.92592592592593,0)" xlink:href="#aF"/><use transform="matrix(0.03703703703703704,0,0,0.03703703703703704,28.851851851851855,0)" xlink:href="#ax"/><use transform="matrix(0.03703703703703704,0,0,0.03703703703703704,31.777777777777782,0)" xlink:href="#aH"/></g><path d="M33-154v-36h34v36H33zM33 0v-36h34V0H33" id="aW"/><g id="J"><use transform="matrix(0.03703703703703704,0,0,0.03703703703703704,0,0)" xlink:href="#ay"/><use transform="matrix(0.03703703703703704,0,0,0.03703703703703704,7.407407407407408,0)" xlink:href="#aw"/><use transform="matrix(0.03703703703703704,0,0,0.03703703703703704,11.814814814814817,0)" xlink:href="#aw"/><use transform="matrix(0.03703703703703704,0,0,0.03703703703703704,16.222222222222225,0)" xlink:href="#at"/><use transform="matrix(0.03703703703703704,0,0,0.03703703703703704,23.629629629629633,0)" xlink:href="#aw"/><use transform="matrix(0.03703703703703704,0,0,0.03703703703703704,28.03703703703704,0)" xlink:href="#aW"/></g><path d="M210-169c-67 3-38 105-44 169h-31v-121c0-29-5-50-35-48C34-165 62-65 56 0H25l-1-190h30c1 10-1 24 2 32 10-44 99-50 107 0 11-21 27-35 58-36 85-2 47 119 55 194h-31v-121c0-29-5-49-35-48" id="aX"/><g id="K"><use transform="matrix(0.03703703703703704,0,0,0.03703703703703704,0,0)" xlink:href="#aX"/><use transform="matrix(0.03703703703703704,0,0,0.03703703703703704,11.074074074074076,0)" xlink:href="#aF"/><use transform="matrix(0.03703703703703704,0,0,0.03703703703703704,14.000000000000004,0)" xlink:href="#aH"/><use transform="matrix(0.03703703703703704,0,0,0.03703703703703704,20.666666666666668,0)" xlink:href="#aH"/><use transform="matrix(0.03703703703703704,0,0,0.03703703703703704,27.333333333333343,0)" xlink:href="#aF"/><use transform="matrix(0.03703703703703704,0,0,0.03703703703703704,30.259259259259267,0)" xlink:href="#au"/><use transform="matrix(0.03703703703703704,0,0,0.03703703703703704,37.66666666666667,0)" xlink:href="#aJ"/></g><g id="L"><use transform="matrix(0.03703703703703704,0,0,0.03703703703703704,0,0)" xlink:href="#aw"/><use transform="matrix(0.03703703703703704,0,0,0.03703703703703704,4.407407407407408,0)" xlink:href="#ay"/><use transform="matrix(0.03703703703703704,0,0,0.03703703703703704,11.814814814814817,0)" xlink:href="#aP"/><use transform="matrix(0.03703703703703704,0,0,0.03703703703703704,19.222222222222225,0)" xlink:href="#aQ"/><use transform="matrix(0.03703703703703704,0,0,0.03703703703703704,26.629629629629633,0)" xlink:href="#aF"/><use transform="matrix(0.03703703703703704,0,0,0.03703703703703704,29.55555555555556,0)" xlink:href="#aw"/><use transform="matrix(0.03703703703703704,0,0,0.03703703703703704,33.96296296296297,0)" xlink:href="#ay"/><use transform="matrix(0.03703703703703704,0,0,0.03703703703703704,41.37037037037038,0)" xlink:href="#aD"/></g><g id="M"><use transform="matrix(0.03703703703703704,0,0,0.03703703703703704,0,0)" xlink:href="#aV"/><use transform="matrix(0.03703703703703704,0,0,0.03703703703703704,3.703703703703704,0)" xlink:href="#aF"/><use transform="matrix(0.03703703703703704,0,0,0.03703703703703704,6.629629629629631,0)" xlink:href="#ay"/><use transform="matrix(0.03703703703703704,0,0,0.03703703703703704,14.037037037037038,0)" xlink:href="#ax"/><use transform="matrix(0.03703703703703704,0,0,0.03703703703703704,16.962962962962965,0)" xlink:href="#aD"/><use transform="matrix(0.03703703703703704,0,0,0.03703703703703704,24.370370370370374,0)" xlink:href="#aH"/></g><g id="N"><use transform="matrix(0.03703703703703704,0,0,0.03703703703703704,0,0)" xlink:href="#aD"/><use transform="matrix(0.03703703703703704,0,0,0.03703703703703704,7.407407407407408,0)" xlink:href="#ay"/><use transform="matrix(0.03703703703703704,0,0,0.03703703703703704,14.814814814814817,0)" xlink:href="#av"/><use transform="matrix(0.03703703703703704,0,0,0.03703703703703704,18.51851851851852,0)" xlink:href="#aA"/><use transform="matrix(0.03703703703703704,0,0,0.03703703703703704,25.92592592592593,0)" xlink:href="#aF"/><use transform="matrix(0.03703703703703704,0,0,0.03703703703703704,28.851851851851855,0)" xlink:href="#ax"/><use transform="matrix(0.03703703703703704,0,0,0.03703703703703704,31.777777777777782,0)" xlink:href="#aH"/></g><g id="O"><use transform="matrix(0.03703703703703704,0,0,0.03703703703703704,0,0)" xlink:href="#aH"/><use transform="matrix(0.03703703703703704,0,0,0.03703703703703704,6.666666666666668,0)" xlink:href="#aQ"/><use transform="matrix(0.03703703703703704,0,0,0.03703703703703704,14.074074074074076,0)" xlink:href="#aG"/><use transform="matrix(0.03703703703703704,0,0,0.03703703703703704,21.481481481481485,0)" xlink:href="#aX"/><use transform="matrix(0.03703703703703704,0,0,0.03703703703703704,32.55555555555556,0)" xlink:href="#aF"/><use transform="matrix(0.03703703703703704,0,0,0.03703703703703704,35.48148148148148,0)" xlink:href="#av"/><use transform="matrix(0.03703703703703704,0,0,0.03703703703703704,39.18518518518518,0)" xlink:href="#av"/><use transform="matrix(0.03703703703703704,0,0,0.03703703703703704,42.888888888888886,0)" xlink:href="#ay"/><use transform="matrix(0.03703703703703704,0,0,0.03703703703703704,50.2962962962963,0)" xlink:href="#aD"/></g><g id="P"><use transform="matrix(0.03703703703703704,0,0,0.03703703703703704,0,0)" xlink:href="#aN"/><use transform="matrix(0.03703703703703704,0,0,0.03703703703703704,6.666666666666668,0)" xlink:href="#aA"/><use transform="matrix(0.03703703703703704,0,0,0.03703703703703704,14.074074074074076,0)" xlink:href="#ax"/><use transform="matrix(0.03703703703703704,0,0,0.03703703703703704,17.000000000000004,0)" xlink:href="#aF"/><use transform="matrix(0.03703703703703704,0,0,0.03703703703703704,19.925925925925934,0)" xlink:href="#aD"/><use transform="matrix(0.03703703703703704,0,0,0.03703703703703704,27.333333333333343,0)" xlink:href="#aA"/><use transform="matrix(0.03703703703703704,0,0,0.03703703703703704,34.74074074074075,0)" xlink:href="#av"/><use transform="matrix(0.03703703703703704,0,0,0.03703703703703704,38.44444444444445,0)" xlink:href="#ay"/><use transform="matrix(0.03703703703703704,0,0,0.03703703703703704,45.851851851851855,0)" xlink:href="#aD"/></g><g id="Q"><use transform="matrix(0.03703703703703704,0,0,0.03703703703703704,0,0)" xlink:href="#aQ"/><use transform="matrix(0.03703703703703704,0,0,0.03703703703703704,7.407407407407408,0)" xlink:href="#aH"/><use transform="matrix(0.03703703703703704,0,0,0.03703703703703704,14.074074074074076,0)" xlink:href="#ay"/><use transform="matrix(0.03703703703703704,0,0,0.03703703703703704,21.481481481481485,0)" xlink:href="#aw"/></g><g id="R"><use transform="matrix(0.03703703703703704,0,0,0.03703703703703704,0,0)" xlink:href="#aD"/><use transform="matrix(0.03703703703703704,0,0,0.03703703703703704,7.407407407407408,0)" xlink:href="#ay"/><use transform="matrix(0.03703703703703704,0,0,0.03703703703703704,14.814814814814817,0)" xlink:href="#av"/><use transform="matrix(0.03703703703703704,0,0,0.03703703703703704,18.51851851851852,0)" xlink:href="#aA"/><use transform="matrix(0.03703703703703704,0,0,0.03703703703703704,25.92592592592593,0)" xlink:href="#aF"/><use transform="matrix(0.03703703703703704,0,0,0.03703703703703704,28.851851851851855,0)" xlink:href="#ax"/><use transform="matrix(0.03703703703703704,0,0,0.03703703703703704,31.777777777777782,0)" xlink:href="#aH"/></g><g id="S"><use transform="matrix(0.03703703703703704,0,0,0.03703703703703704,0,0)" xlink:href="#aB"/><use transform="matrix(0.03703703703703704,0,0,0.03703703703703704,6.666666666666668,0)" xlink:href="#aL"/><use transform="matrix(0.03703703703703704,0,0,0.03703703703703704,14.074074074074076,0)" xlink:href="#ay"/><use transform="matrix(0.03703703703703704,0,0,0.03703703703703704,21.481481481481485,0)" xlink:href="#aB"/><use transform="matrix(0.03703703703703704,0,0,0.03703703703703704,28.148148148148152,0)" xlink:href="#aC"/></g><g id="T"><use transform="matrix(0.03703703703703704,0,0,0.03703703703703704,0,0)" xlink:href="#aF"/><use transform="matrix(0.03703703703703704,0,0,0.03703703703703704,2.9259259259259265,0)" xlink:href="#aV"/></g><g id="U"><use transform="matrix(0.03703703703703704,0,0,0.03703703703703704,0,0)" xlink:href="#aA"/><use transform="matrix(0.03703703703703704,0,0,0.03703703703703704,7.407407407407408,0)" xlink:href="#aB"/><use transform="matrix(0.03703703703703704,0,0,0.03703703703703704,14.074074074074076,0)" xlink:href="#aB"/><use transform="matrix(0.03703703703703704,0,0,0.03703703703703704,20.740740740740744,0)" xlink:href="#at"/><use transform="matrix(0.03703703703703704,0,0,0.03703703703703704,28.148148148148152,0)" xlink:href="#aQ"/><use transform="matrix(0.03703703703703704,0,0,0.03703703703703704,35.55555555555556,0)" xlink:href="#au"/><use transform="matrix(0.03703703703703704,0,0,0.03703703703703704,42.96296296296296,0)" xlink:href="#av"/></g><path d="M141 0L90-78 38 0H4l68-98-65-92h35l48 74 47-74h35l-64 92 68 98h-35" id="aY"/><g id="V"><use transform="matrix(0.03703703703703704,0,0,0.03703703703703704,0,0)" xlink:href="#ay"/><use transform="matrix(0.03703703703703704,0,0,0.03703703703703704,7.407407407407408,0)" xlink:href="#aY"/><use transform="matrix(0.03703703703703704,0,0,0.03703703703703704,14.074074074074076,0)" xlink:href="#aF"/><use transform="matrix(0.03703703703703704,0,0,0.03703703703703704,17.000000000000004,0)" xlink:href="#aH"/><use transform="matrix(0.03703703703703704,0,0,0.03703703703703704,23.66666666666667,0)" xlink:href="#av"/><use transform="matrix(0.03703703703703704,0,0,0.03703703703703704,27.370370370370374,0)" xlink:href="#aH"/></g><path d="M30 0v-248h187v28H63v79h144v27H63v87h162V0H30" id="aZ"/><g id="W"><use transform="matrix(0.03703703703703704,0,0,0.03703703703703704,0,0)" xlink:href="#aA"/><use transform="matrix(0.03703703703703704,0,0,0.03703703703703704,7.407407407407408,0)" xlink:href="#aB"/><use transform="matrix(0.03703703703703704,0,0,0.03703703703703704,14.074074074074076,0)" xlink:href="#aB"/><use transform="matrix(0.03703703703703704,0,0,0.03703703703703704,20.740740740740744,0)" xlink:href="#at"/><use transform="matrix(0.03703703703703704,0,0,0.03703703703703704,28.148148148148152,0)" xlink:href="#aQ"/><use transform="matrix(0.03703703703703704,0,0,0.03703703703703704,35.55555555555556,0)" xlink:href="#au"/><use transform="matrix(0.03703703703703704,0,0,0.03703703703703704,42.96296296296296,0)" xlink:href="#av"/><use transform="matrix(0.03703703703703704,0,0,0.03703703703703704,46.666666666666664,0)" xlink:href="#aZ"/><use transform="matrix(0.03703703703703704,0,0,0.03703703703703704,55.55555555555556,0)" xlink:href="#aY"/><use transform="matrix(0.03703703703703704,0,0,0.03703703703703704,62.22222222222223,0)" xlink:href="#aF"/><use transform="matrix(0.03703703703703704,0,0,0.03703703703703704,65.14814814814815,0)" xlink:href="#aH"/><use transform="matrix(0.03703703703703704,0,0,0.03703703703703704,71.81481481481482,0)" xlink:href="#av"/><use transform="matrix(0.03703703703703704,0,0,0.03703703703703704,75.51851851851853,0)" xlink:href="#aH"/><use transform="matrix(0.03703703703703704,0,0,0.03703703703703704,82.18518518518522,0)" xlink:href="#aS"/><use transform="matrix(0.03703703703703704,0,0,0.03703703703703704,86.59259259259261,0)" xlink:href="#aT"/></g><g id="X"><use transform="matrix(0.03703703703703704,0,0,0.03703703703703704,0,0)" xlink:href="#aA"/><use transform="matrix(0.03703703703703704,0,0,0.03703703703703704,7.407407407407408,0)" xlink:href="#aB"/><use transform="matrix(0.03703703703703704,0,0,0.03703703703703704,14.074074074074076,0)" xlink:href="#aB"/><use transform="matrix(0.03703703703703704,0,0,0.03703703703703704,20.740740740740744,0)" xlink:href="#at"/><use transform="matrix(0.03703703703703704,0,0,0.03703703703703704,28.148148148148152,0)" xlink:href="#aQ"/><use transform="matrix(0.03703703703703704,0,0,0.03703703703703704,35.55555555555556,0)" xlink:href="#au"/><use transform="matrix(0.03703703703703704,0,0,0.03703703703703704,42.96296296296296,0)" xlink:href="#av"/></g><g id="Y"><use transform="matrix(0.03703703703703704,0,0,0.03703703703703704,0,0)" xlink:href="#aD"/><use transform="matrix(0.03703703703703704,0,0,0.03703703703703704,7.407407407407408,0)" xlink:href="#at"/><use transform="matrix(0.03703703703703704,0,0,0.03703703703703704,14.814814814814817,0)" xlink:href="#ay"/><use transform="matrix(0.03703703703703704,0,0,0.03703703703703704,22.222222222222225,0)" xlink:href="#aH"/></g><g id="Z"><use transform="matrix(0.03703703703703704,0,0,0.03703703703703704,0,0)" xlink:href="#au"/><use transform="matrix(0.03703703703703704,0,0,0.03703703703703704,7.407407407407408,0)" xlink:href="#at"/><use transform="matrix(0.03703703703703704,0,0,0.03703703703703704,14.814814814814817,0)" xlink:href="#av"/></g><g id="aa"><use transform="matrix(0.03703703703703704,0,0,0.03703703703703704,0,0)" xlink:href="#ay"/><use transform="matrix(0.03703703703703704,0,0,0.03703703703703704,7.407407407407408,0)" xlink:href="#aY"/><use transform="matrix(0.03703703703703704,0,0,0.03703703703703704,14.074074074074076,0)" xlink:href="#aF"/><use transform="matrix(0.03703703703703704,0,0,0.03703703703703704,17.000000000000004,0)" xlink:href="#aH"/><use transform="matrix(0.03703703703703704,0,0,0.03703703703703704,23.66666666666667,0)" xlink:href="#av"/></g><g id="ab"><use transform="matrix(0.03703703703703704,0,0,0.03703703703703704,0,0)" xlink:href="#aA"/><use transform="matrix(0.03703703703703704,0,0,0.03703703703703704,7.407407407407408,0)" xlink:href="#aB"/><use transform="matrix(0.03703703703703704,0,0,0.03703703703703704,14.074074074074076,0)" xlink:href="#aB"/><use transform="matrix(0.03703703703703704,0,0,0.03703703703703704,20.740740740740744,0)" xlink:href="#at"/><use transform="matrix(0.03703703703703704,0,0,0.03703703703703704,28.148148148148152,0)" xlink:href="#aQ"/><use transform="matrix(0.03703703703703704,0,0,0.03703703703703704,35.55555555555556,0)" xlink:href="#au"/><use transform="matrix(0.03703703703703704,0,0,0.03703703703703704,42.96296296296296,0)" xlink:href="#av"/></g><g id="ac"><use transform="matrix(0.03703703703703704,0,0,0.03703703703703704,0,0)" xlink:href="#aD"/><use transform="matrix(0.03703703703703704,0,0,0.03703703703703704,7.407407407407408,0)" xlink:href="#at"/><use transform="matrix(0.03703703703703704,0,0,0.03703703703703704,14.814814814814817,0)" xlink:href="#ay"/><use transform="matrix(0.03703703703703704,0,0,0.03703703703703704,22.222222222222225,0)" xlink:href="#aH"/></g><g id="ad"><use transform="matrix(0.03703703703703704,0,0,0.03703703703703704,0,0)" xlink:href="#ay"/><use transform="matrix(0.03703703703703704,0,0,0.03703703703703704,7.407407407407408,0)" xlink:href="#aY"/><use transform="matrix(0.03703703703703704,0,0,0.03703703703703704,14.074074074074076,0)" xlink:href="#aF"/><use transform="matrix(0.03703703703703704,0,0,0.03703703703703704,17.000000000000004,0)" xlink:href="#aH"/><use transform="matrix(0.03703703703703704,0,0,0.03703703703703704,23.66666666666667,0)" xlink:href="#av"/><use transform="matrix(0.03703703703703704,0,0,0.03703703703703704,27.370370370370374,0)" xlink:href="#aH"/></g><g id="ae"><use transform="matrix(0.03703703703703704,0,0,0.03703703703703704,0,0)" xlink:href="#aA"/><use transform="matrix(0.03703703703703704,0,0,0.03703703703703704,7.407407407407408,0)" xlink:href="#aD"/><use transform="matrix(0.03703703703703704,0,0,0.03703703703703704,14.814814814814817,0)" xlink:href="#aD"/><use transform="matrix(0.03703703703703704,0,0,0.03703703703703704,22.222222222222225,0)" xlink:href="#ay"/><use transform="matrix(0.03703703703703704,0,0,0.03703703703703704,29.629629629629633,0)" xlink:href="#aD"/></g><g id="af"><use transform="matrix(0.03703703703703704,0,0,0.03703703703703704,0,0)" xlink:href="#aB"/><use transform="matrix(0.03703703703703704,0,0,0.03703703703703704,6.666666666666668,0)" xlink:href="#at"/><use transform="matrix(0.03703703703703704,0,0,0.03703703703703704,14.074074074074076,0)" xlink:href="#au"/><use transform="matrix(0.03703703703703704,0,0,0.03703703703703704,21.481481481481485,0)" xlink:href="#aV"/><use transform="matrix(0.03703703703703704,0,0,0.03703703703703704,25.185185185185187,0)" xlink:href="#aF"/><use transform="matrix(0.03703703703703704,0,0,0.03703703703703704,28.111111111111118,0)" xlink:href="#aw"/><use transform="matrix(0.03703703703703704,0,0,0.03703703703703704,32.518518518518526,0)" xlink:href="#aX"/></g><g id="ag"><use transform="matrix(0.03703703703703704,0,0,0.03703703703703704,0,0)" xlink:href="#aB"/><use transform="matrix(0.03703703703703704,0,0,0.03703703703703704,6.666666666666668,0)" xlink:href="#aw"/><use transform="matrix(0.03703703703703704,0,0,0.03703703703703704,11.074074074074076,0)" xlink:href="#ay"/><use transform="matrix(0.03703703703703704,0,0,0.03703703703703704,18.481481481481485,0)" xlink:href="#aA"/><use transform="matrix(0.03703703703703704,0,0,0.03703703703703704,25.888888888888893,0)" xlink:href="#av"/><use transform="matrix(0.03703703703703704,0,0,0.03703703703703704,29.592592592592595,0)" xlink:href="#ay"/><use transform="matrix(0.03703703703703704,0,0,0.03703703703703704,37,0)" xlink:href="#aD"/></g><path d="M68-38c1 34 0 65-14 84H32c9-13 17-26 17-46H33v-38h35" id="ba"/><g id="ah"><use transform="matrix(0.03703703703703704,0,0,0.03703703703703704,0,0)" xlink:href="#aH"/><use transform="matrix(0.03703703703703704,0,0,0.03703703703703704,6.666666666666668,0)" xlink:href="#aQ"/><use transform="matrix(0.03703703703703704,0,0,0.03703703703703704,14.074074074074076,0)" xlink:href="#aB"/><use transform="matrix(0.03703703703703704,0,0,0.03703703703703704,20.740740740740744,0)" xlink:href="#aB"/><use transform="matrix(0.03703703703703704,0,0,0.03703703703703704,27.407407407407412,0)" xlink:href="#ay"/><use transform="matrix(0.03703703703703704,0,0,0.03703703703703704,34.814814814814824,0)" xlink:href="#aH"/><use transform="matrix(0.03703703703703704,0,0,0.03703703703703704,41.481481481481495,0)" xlink:href="#aH"/><use transform="matrix(0.03703703703703704,0,0,0.03703703703703704,48.14814814814816,0)" xlink:href="#ba"/></g><g id="ai"><use transform="matrix(0.03703703703703704,0,0,0.03703703703703704,0,0)" xlink:href="#aB"/><use transform="matrix(0.03703703703703704,0,0,0.03703703703703704,6.666666666666668,0)" xlink:href="#aw"/><use transform="matrix(0.03703703703703704,0,0,0.03703703703703704,11.074074074074076,0)" xlink:href="#ay"/><use transform="matrix(0.03703703703703704,0,0,0.03703703703703704,18.481481481481485,0)" xlink:href="#aA"/><use transform="matrix(0.03703703703703704,0,0,0.03703703703703704,25.888888888888893,0)" xlink:href="#av"/><use transform="matrix(0.03703703703703704,0,0,0.03703703703703704,29.592592592592595,0)" xlink:href="#ay"/><use transform="matrix(0.03703703703703704,0,0,0.03703703703703704,37,0)" xlink:href="#aD"/></g><g id="aj"><use transform="matrix(0.03703703703703704,0,0,0.03703703703703704,0,0)" xlink:href="#ay"/><use transform="matrix(0.03703703703703704,0,0,0.03703703703703704,7.407407407407408,0)" xlink:href="#aY"/><use transform="matrix(0.03703703703703704,0,0,0.03703703703703704,14.074074074074076,0)" xlink:href="#aF"/><use transform="matrix(0.03703703703703704,0,0,0.03703703703703704,17.000000000000004,0)" xlink:href="#aH"/><use transform="matrix(0.03703703703703704,0,0,0.03703703703703704,23.66666666666667,0)" xlink:href="#av"/><use transform="matrix(0.03703703703703704,0,0,0.03703703703703704,27.370370370370374,0)" xlink:href="#aH"/><use transform="matrix(0.03703703703703704,0,0,0.03703703703703704,34.03703703703704,0)" xlink:href="#ba"/></g><g id="ak"><use transform="matrix(0.03703703703703704,0,0,0.03703703703703704,0,0)" xlink:href="#au"/><use transform="matrix(0.03703703703703704,0,0,0.03703703703703704,7.407407407407408,0)" xlink:href="#at"/><use transform="matrix(0.03703703703703704,0,0,0.03703703703703704,14.814814814814817,0)" xlink:href="#av"/></g><path d="M68-36c1 33-1 63-14 82H32c9-13 17-26 17-46H33v-36h35zM33-154v-36h35v36H33" id="bb"/><g id="al"><use transform="matrix(0.03703703703703704,0,0,0.03703703703703704,0,0)" xlink:href="#ay"/><use transform="matrix(0.03703703703703704,0,0,0.03703703703703704,7.407407407407408,0)" xlink:href="#aw"/><use transform="matrix(0.03703703703703704,0,0,0.03703703703703704,11.814814814814817,0)" xlink:href="#aw"/><use transform="matrix(0.03703703703703704,0,0,0.03703703703703704,16.222222222222225,0)" xlink:href="#at"/><use transform="matrix(0.03703703703703704,0,0,0.03703703703703704,23.629629629629633,0)" xlink:href="#aw"/><use transform="matrix(0.03703703703703704,0,0,0.03703703703703704,28.03703703703704,0)" xlink:href="#bb"/></g><g id="am"><use transform="matrix(0.03703703703703704,0,0,0.03703703703703704,0,0)" xlink:href="#ay"/><use transform="matrix(0.03703703703703704,0,0,0.03703703703703704,7.407407407407408,0)" xlink:href="#aX"/><use transform="matrix(0.03703703703703704,0,0,0.03703703703703704,18.481481481481485,0)" xlink:href="#aA"/><use transform="matrix(0.03703703703703704,0,0,0.03703703703703704,25.888888888888893,0)" xlink:href="#aF"/><use transform="matrix(0.03703703703703704,0,0,0.03703703703703704,28.81481481481482,0)" xlink:href="#ax"/></g><path d="M179-190L93 31C79 59 56 82 12 73V49c39 6 53-20 64-50L1-190h34L92-34l54-156h33" id="bc"/><g id="an"><use transform="matrix(0.03703703703703704,0,0,0.03703703703703704,0,0)" xlink:href="#aA"/><use transform="matrix(0.03703703703703704,0,0,0.03703703703703704,7.407407407407408,0)" xlink:href="#ax"/><use transform="matrix(0.03703703703703704,0,0,0.03703703703703704,10.333333333333334,0)" xlink:href="#aw"/><use transform="matrix(0.03703703703703704,0,0,0.03703703703703704,14.740740740740744,0)" xlink:href="#ay"/><use transform="matrix(0.03703703703703704,0,0,0.03703703703703704,22.148148148148152,0)" xlink:href="#aA"/><use transform="matrix(0.03703703703703704,0,0,0.03703703703703704,29.55555555555556,0)" xlink:href="#aD"/><use transform="matrix(0.03703703703703704,0,0,0.03703703703703704,36.96296296296297,0)" xlink:href="#bc"/></g><g id="ao"><use transform="matrix(0.03703703703703704,0,0,0.03703703703703704,0,0)" xlink:href="#aL"/><use transform="matrix(0.03703703703703704,0,0,0.03703703703703704,7.407407407407408,0)" xlink:href="#aA"/><use transform="matrix(0.03703703703703704,0,0,0.03703703703703704,14.814814814814817,0)" xlink:href="#aH"/></g><g id="ap"><use transform="matrix(0.03703703703703704,0,0,0.03703703703703704,0,0)" xlink:href="#aA"/><use transform="matrix(0.03703703703703704,0,0,0.03703703703703704,7.407407407407408,0)" xlink:href="#au"/></g></defs></g></svg>