<svg xmlns="http://www.w3.org/2000/svg" xmlns:xlink="http://www.w3.org/1999/xlink" xmlns:lucid="lucid" width="1601.15" height="1371"><g transform="translate(-20 1240)" lucid:page-tab-id="0_0"><path d="M880-300V80" fill="none"/><path d="M880-300v9.74m0 9.75v19.47m0 9.75v19.5m0 9.73v19.5m0 9.73v19.5m0 9.73v19.5m0 9.74v19.5m0 9.73v19.5m0 9.73v19.5m0 9.73v19.5m0 9.73v19.5m0 9.73v19.48m0 9.75V60.5m0 9.76V80" stroke="#000" stroke-width="2" fill="none"/><path d="M640-332V40" fill="none"/><path d="M640-332v10.33m0 10.34v20.66m0 10.34v20.66m0 10.34v20.66m0 10.34v20.66m0 10.34v20.66m0 10.34v20.66m0 10.34v20.66m0 10.34v20.66m0 10.34v20.66m0 10.34v20.66m0 10.34v20.66m0 10.34V40" stroke="#000" stroke-width="2" fill="none"/><path d="M167.25-1212.75c0 4-3.25 7.25-7.25 7.25s-7.25-3.25-7.25-7.25S156-1220 160-1220s7.25 3.25 7.25 7.25z" stroke="#000" stroke-width="2" fill="#fff"/><path d="M140-1215c0-2.76 2.24-5 5-5h30c2.76 0 5 2.24 5 5v48c0 2.76-2.24 5-5 5h-30c-2.76 0-5-2.24-5-5z" fill="none"/><path d="M160-1205.5v15.3c0 2.76 1.46 6.7 3.26 8.8L180-1162m-20-23.2l-20 23.2m0-36.25h40" stroke="#000" stroke-width="2" fill="none"/><path d="M160-1140v840" fill="none"/><path d="M160-1140v10m0 10v20m0 10v20m0 10v20m0 10v20m0 10v20m0 10v20m0 10v20m0 10v20m0 10v20m0 10v20m0 10v20m0 10v20m0 10v20m0 10v20m0 10v20m0 10v20m0 10v20m0 10v20m0 10v20m0 10v20m0 10v20m0 10v20m0 10v20m0 10v20m0 10v20m0 10v20m0 10v20m0 10v10" stroke="#000" stroke-width="2" fill="none"/><path d="M161-1140h-2v-3h2z"/><path d="M360-1190h16m64 0c0 16.57-14.33 30-32 30s-32-13.43-32-30 14.33-30 32-30 32 13.43 32 30z" stroke="#000" stroke-width="2" fill="#fff"/><path d="M360-1191.2h16v2.4h-16z" fill="none"/><path d="M560-1215c0-2.76 2.24-5 5-5h150c2.76 0 5 2.24 5 5v50c0 2.76-2.24 5-5 5H565c-2.76 0-5-2.24-5-5z" stroke="#000" stroke-width="2" fill="#fff"/><use xlink:href="#a" transform="matrix(1,0,0,1,560,-1220) translate(37.505 33.16666666666667)"/><use xlink:href="#b" transform="matrix(1,0,0,1,560,-1220) translate(64.91240740740741 33.16666666666667)"/><path d="M800-1215c0-2.76 2.24-5 5-5h150c2.76 0 5 2.24 5 5v50c0 2.76-2.24 5-5 5H805c-2.76 0-5-2.24-5-5z" stroke="#000" stroke-width="2" fill="#fff"/><use xlink:href="#c" transform="matrix(1,0,0,1,800,-1220) translate(54.07907407407408 33.16666666666667)"/><path d="M1040-1215c0-2.76 2.24-5 5-5h150c2.76 0 5 2.24 5 5v50c0 2.76-2.24 5-5 5h-150c-2.76 0-5-2.24-5-5z" stroke="#000" stroke-width="2" fill="#fff"/><use xlink:href="#d" transform="matrix(1,0,0,1,1040,-1220) translate(43.72722222222222 33.16666666666667)"/><use xlink:href="#e" transform="matrix(1,0,0,1,1040,-1220) translate(94.8012962962963 33.16666666666667)"/><path d="M400-1140v840" fill="none"/><path d="M400-1140v10m0 10v20m0 10v20m0 10v20m0 10v20m0 10v20m0 10v20m0 10v20m0 10v20m0 10v20m0 10v20m0 10v20m0 10v20m0 10v20m0 10v20m0 10v20m0 10v20m0 10v20m0 10v20m0 10v20m0 10v20m0 10v20m0 10v20m0 10v20m0 10v20m0 10v20m0 10v20m0 10v20m0 10v10" stroke="#000" stroke-width="2" fill="none"/><path d="M640-1159v859" fill="none"/><path d="M640-1159v9.87m0 9.88v19.74m0 9.87v19.74m0 9.9v19.74m0 9.87v19.76m0 9.87v19.75m0 9.87v19.75m0 9.87v19.75m0 9.87v19.74m0 9.87v19.76m0 9.87v19.75m0 9.87v19.75m0 9.87v19.75m0 9.88v19.74m0 9.88v19.74m0 9.88v19.74m0 9.88v19.74m0 9.88v19.75m0 9.87v19.75m0 9.87v19.75m0 9.87v19.75m0 9.86v19.75m0 9.88v19.75m0 9.87v19.75m0 9.87v19.75m0 9.87v19.75m0 9.86V-379m0 9.9v19.73m0 9.88v19.75m0 9.88v9.87" stroke="#000" stroke-width="2" fill="none"/><path d="M641-1159h-2v-1h2z"/><path d="M880-1159v859" fill="none"/><path d="M880-1159v9.87m0 9.88v19.74m0 9.87v19.74m0 9.9v19.74m0 9.87v19.76m0 9.87v19.75m0 9.87v19.75m0 9.87v19.75m0 9.87v19.74m0 9.87v19.76m0 9.87v19.75m0 9.87v19.75m0 9.87v19.75m0 9.88v19.74m0 9.88v19.74m0 9.88v19.74m0 9.88v19.74m0 9.88v19.75m0 9.87v19.75m0 9.87v19.75m0 9.87v19.75m0 9.86v19.75m0 9.88v19.75m0 9.87v19.75m0 9.87v19.75m0 9.87v19.75m0 9.86V-379m0 9.9v19.73m0 9.88v19.75m0 9.88v9.87" stroke="#000" stroke-width="2" fill="none"/><path d="M881-1159h-2v-1h2z"/><path d="M1120-1159v859" fill="none"/><path d="M1120-1159v9.87m0 9.88v19.74m0 9.87v19.74m0 9.9v19.74m0 9.87v19.76m0 9.87v19.75m0 9.87v19.75m0 9.87v19.75m0 9.87v19.74m0 9.87v19.76m0 9.87v19.75m0 9.87v19.75m0 9.87v19.75m0 9.88v19.74m0 9.88v19.74m0 9.88v19.74m0 9.88v19.74m0 9.88v19.75m0 9.87v19.75m0 9.87v19.75m0 9.87v19.75m0 9.86v19.75m0 9.88v19.75m0 9.87v19.75m0 9.87v19.75m0 9.87v19.75m0 9.86V-379m0 9.9v19.73m0 9.88v19.75m0 9.88v9.87" stroke="#000" stroke-width="2" fill="none"/><path d="M1121-1159h-2v-1h2z"/><path d="M160-1100h203.84" stroke="#000" stroke-width="2" fill="none"/><path d="M378.84-1100l-14.27 4.64v-9.28z" stroke="#000" stroke-width="2"/><use xlink:href="#f" transform="matrix(1,0,0,1,194.83269543971733,-1120) translate(0 10.666666666666668)"/><use xlink:href="#g" transform="matrix(1,0,0,1,194.83269543971733,-1120) translate(39.14814814814815 10.666666666666668)"/><use xlink:href="#h" transform="matrix(1,0,0,1,194.83269543971733,-1120) translate(61.370370370370374 10.666666666666668)"/><use xlink:href="#i" transform="matrix(1,0,0,1,194.83269543971733,-1120) translate(102.07407407407408 10.666666666666668)"/><path d="M300-1215c0-2.76 2.24-5 5-5h50c2.76 0 5 2.24 5 5v50c0 2.76-2.24 5-5 5h-50c-2.76 0-5-2.24-5-5z" stroke="#000" stroke-opacity="0" stroke-width="2" fill="#fff" fill-opacity="0"/><use xlink:href="#j" transform="matrix(1,0,0,1,305,-1215) translate(11.703703703703702 27.666666666666668)"/><path d="M1280-1215c0-2.76 2.24-5 5-5h150c2.76 0 5 2.24 5 5v50c0 2.76-2.24 5-5 5h-150c-2.76 0-5-2.24-5-5z" stroke="#000" stroke-width="2" fill="#fff"/><use xlink:href="#k" transform="matrix(1,0,0,1,1280,-1220) translate(54.13462962962962 33.16666666666667)"/><path d="M1360-1159v859" fill="none"/><path d="M1360-1159v9.87m0 9.88v19.74m0 9.87v19.74m0 9.9v19.74m0 9.87v19.76m0 9.87v19.75m0 9.87v19.75m0 9.87v19.75m0 9.87v19.74m0 9.87v19.76m0 9.87v19.75m0 9.87v19.75m0 9.87v19.75m0 9.88v19.74m0 9.88v19.74m0 9.88v19.74m0 9.88v19.74m0 9.88v19.75m0 9.87v19.75m0 9.87v19.75m0 9.87v19.75m0 9.86v19.75m0 9.88v19.75m0 9.87v19.75m0 9.87v19.75m0 9.87v19.75m0 9.86V-379m0 9.9v19.73m0 9.88v19.75m0 9.88v9.87" stroke="#000" stroke-width="2" fill="none"/><path d="M1361-1159h-2v-1h2z"/><path d="M380-1100h40v440h-40z" stroke="#000" stroke-width="2" fill="#fff"/><path d="M420-1060h181.26" stroke="#000" stroke-width="2" fill="none"/><path d="M616.26-1060l-14.26 4.64v-9.28z" stroke="#000" stroke-width="2"/><use xlink:href="#l" transform="matrix(1,0,0,1,459.0833333039845,-1080.0000000074506) translate(0 10.666666666666668)"/><use xlink:href="#m" transform="matrix(1,0,0,1,459.0833333039845,-1080.0000000074506) translate(48.111111111111114 10.666666666666668)"/><use xlink:href="#n" transform="matrix(1,0,0,1,459.0833333039845,-1080.0000000074506) translate(77.70370370370371 10.666666666666668)"/><path d="M620.5-1060h40V0h-40z" stroke="#000" stroke-width="2" fill="#fff"/><path d="M660-820h215c0-2.76 2.24-5 5-5s5 2.24 5 5h195.76" stroke="#000" stroke-width="2" fill="none"/><path d="M1095.76-820l-14.26 4.64v-9.28z"/><path d="M1099-820l-18.5 6v-12zm-16.5 3.26l10.03-3.26-10.03-3.26z"/><use xlink:href="#l" transform="matrix(1,0,0,1,827.3333333333334,-840) translate(0 10.666666666666668)"/><use xlink:href="#o" transform="matrix(1,0,0,1,827.3333333333334,-840) translate(48.111111111111114 10.666666666666668)"/><use xlink:href="#p" transform="matrix(1,0,0,1,827.3333333333334,-840) translate(78.44444444444446 10.666666666666668)"/><path d="M1100-820h40v80h-40z" stroke="#000" stroke-width="2" fill="#fff"/><path d="M679.74-760H875c0-2.76 2.24-5 5-5s5 2.24 5 5h215" fill="none"/><path d="M679.74-760h2.93m3.9 0h5.86m3.9 0h5.86m3.9 0h5.85m3.9 0h5.87m3.9 0h5.86m3.9 0h5.86m3.9 0h5.87m3.9 0h5.87m3.9 0h5.86m3.9 0h5.87m3.9 0h5.86m3.9 0h5.86m3.9 0h5.87m3.9 0h5.85m3.9 0h5.86m3.92 0h5.86m3.9 0h5.86m3.9 0h5.86m3.9 0h5.87m3.9 0H875l.72-2.2m2.12-2.12l.58-.43L880-765l2.2.72m2.12 2.12l.43.58.25 1.58h2.93m3.9 0h5.87m3.9 0h5.88m3.9 0h5.87m3.9 0h5.87m3.9 0h5.88m3.9 0h5.87m3.9 0h5.87m3.9 0h5.87m3.92 0h5.87m3.9 0h5.86m3.9 0h5.87m3.9 0h5.87m3.9 0h5.88m3.9 0h5.87m3.9 0h5.87m3.9 0h5.88m3.9 0h5.87m3.9 0h5.87m3.9 0h5.87m3.92 0h5.87m3.9 0h5.86m3.9 0h2.94" stroke="#000" stroke-width="2" fill="none"/><path d="M679-755.36L664.74-760l14.26-4.64z"/><path d="M680-754l-18.5-6 18.5-6zm-12.03-6l10.03 3.26v-6.52z"/><use xlink:href="#q" transform="matrix(1,0,0,1,848.583333337902,-780.0000000074506) translate(0 10.666666666666668)"/><use xlink:href="#p" transform="matrix(1,0,0,1,848.583333337902,-780.0000000074506) translate(38.44444444444445 10.666666666666668)"/><path d="M439.24-720H619.5" fill="none"/><path d="M439.24-720h3m4 0h6.02m4 0h6m4.02 0h6m4 0h6.02m4 0h6m4.02 0h6m4 0h6.02m4 0h6.02m4 0h6m4.02 0h6m4 0h6.02m4 0h6.02m4 0h6m4.02 0h6m4 0h6.02m4 0h6.02m4 0h6m4.02 0h3" stroke="#000" stroke-width="2" fill="none"/><path d="M438.5-715.36L424.24-720l14.26-4.64z"/><path d="M439.5-714l-18.5-6 18.5-6zm-12.03-6l10.03 3.26v-6.52zM620.5-719h-1v-2h1z"/><use xlink:href="#q" transform="matrix(1,0,0,1,435.00925925925924,-740.0000000000001) translate(0 10.666666666666668)"/><use xlink:href="#m" transform="matrix(1,0,0,1,435.00925925925924,-740.0000000000001) translate(38.44444444444445 10.666666666666668)"/><use xlink:href="#r" transform="matrix(1,0,0,1,435.00925925925924,-740.0000000000001) translate(68.03703703703704 10.666666666666668)"/><use xlink:href="#s" transform="matrix(1,0,0,1,435.00925925925924,-740.0000000000001) translate(79.51851851851852 10.666666666666668)"/><use xlink:href="#t" transform="matrix(1,0,0,1,435.00925925925924,-740.0000000000001) translate(124.62962962962963 10.666666666666668)"/><path d="M178.24-680H380" stroke="#000" stroke-width="2" fill="none"/><path d="M163.24-680l14.26-4.64v9.28z" stroke="#000" stroke-width="2"/><use xlink:href="#u" transform="matrix(1,0,0,1,196.75925925925924,-700) translate(0 10.666666666666668)"/><use xlink:href="#v" transform="matrix(1,0,0,1,196.75925925925924,-700) translate(29.592592592592595 10.666666666666668)"/><use xlink:href="#s" transform="matrix(1,0,0,1,196.75925925925924,-700) translate(55.518518518518526 10.666666666666668)"/><use xlink:href="#t" transform="matrix(1,0,0,1,196.75925925925924,-700) translate(100.62962962962965 10.666666666666668)"/><path d="M580-1015c0-2.76 2.24-5 5-5h90c2.76 0 5 2.24 5 5v10c0 2.76-1.58 6.58-3.54 8.54l-2.92 2.92c-1.96 1.96-5.78 3.54-8.54 3.54h-80c-2.76 0-5-2.24-5-5z" fill="#fff"/><path d="M580-1015c0-2.76 2.24-5 5-5h100c2.76 0 5 2.24 5 5v130c0 2.76-2.24 5-5 5H585c-2.76 0-5-2.24-5-5z" stroke="#000" stroke-width="2" fill="none"/><path d="M680-1020v20l-10 10h-90" stroke="#000" stroke-width="2" fill="#fff"/><use xlink:href="#w" transform="matrix(1,0,0,1,588,-1020) translate(0 17.666666666666668)"/><path d="M661-960h59v40h-40.76" stroke="#000" stroke-width="2" fill="none"/><path d="M664.24-920l14.26-4.64v9.28z" stroke="#000" stroke-width="2"/><use xlink:href="#x" transform="matrix(1,0,0,1,728,-948) translate(0 10.666666666666668)"/><path d="M160-580h235c0-2.76 2.24-5 5-5s5 2.24 5 5h196.26" stroke="#000" stroke-width="2" fill="none"/><path d="M616.26-580L602-575.36v-9.28z"/><path d="M619.5-580l-18.5 6v-12zm-16.5 3.26l10.03-3.26-10.03-3.26z"/><use xlink:href="#y" transform="matrix(1,0,0,1,317.28703703703707,-600) translate(0 10.666666666666668)"/><use xlink:href="#s" transform="matrix(1,0,0,1,317.28703703703707,-600) translate(53.96296296296297 10.666666666666668)"/><use xlink:href="#t" transform="matrix(1,0,0,1,317.28703703703707,-600) translate(99.07407407407408 10.666666666666668)"/><path d="M860-20h40v80h-40z" stroke="#000" stroke-width="2" fill="#fff"/><path d="M160-332v312" fill="none"/><path d="M160-332v10.4m0 10.4v20.8m0 10.4v20.8m0 10.4v20.8m0 10.4v20.8m0 10.4v20.8m0 10.4v20.8m0 10.4v20.8m0 10.4V-72m0 10.4v20.8m0 10.4V-20" stroke="#000" stroke-width="2" fill="none"/><path d="M400-328v268" fill="none"/><path d="M400-328v9.93m0 9.92v19.85m0 9.93v19.85m0 9.93v19.86m0 9.93v19.84m0 9.92v19.85m0 9.94v19.85m0 9.92v19.85m0 9.93v19.85m0 9.92V-60" stroke="#000" stroke-width="2" fill="none"/><path d="M1120-300v100" fill="none"/><path d="M1120-300v11.1m0 11.12v22.22m0 11.12v22.22m0 11.1V-200" stroke="#000" stroke-width="2" fill="none"/><path d="M1360-300v420" fill="none"/><path d="M1360-300v10m0 10v20m0 10v20m0 10v20m0 10v20m0 10v20m0 10v20m0 10v20m0 10v20m0 10v20m0 10v20m0 10v20m0 10v20m0 10v20m0 10v10M161-480h200.76" stroke="#000" stroke-width="2" fill="none"/><path d="M376.76-480l-14.26 4.64v-9.28z" stroke="#000" stroke-width="2"/><use xlink:href="#z" transform="matrix(1,0,0,1,221.8148148148148,-500) translate(0 10.666666666666668)"/><use xlink:href="#t" transform="matrix(1,0,0,1,221.8148148148148,-500) translate(51.51851851851852 10.666666666666668)"/><path d="M381-480h40v320h-40z" stroke="#000" stroke-width="2" fill="#fff"/><path d="M178.24-420H381" fill="none"/><path d="M178.24-420h3.04m4.05 0h6.1m4.04 0h6.08m4.06 0h6.1m4.05 0h6.08m4.06 0h6.07m4.05 0h6.1m4.04 0h6.08m4.06 0h6.08m4.06 0h6.08m4.06 0h6.08m4.05 0h6.1m4.05 0h6.1m4.04 0h6.07m4.06 0h6.08m4.07 0h6.08m4.06 0h6.1m4.04 0h6.1m4.04 0h6.1m4.04 0h6.08m4.06 0H381" stroke="#000" stroke-width="2" fill="none"/><path d="M163.24-420l14.26-4.64v9.28z" stroke="#000" stroke-width="2"/><use xlink:href="#A" transform="matrix(1,0,0,1,235.37037037037038,-440) translate(0 10.666666666666668)"/><use xlink:href="#B" transform="matrix(1,0,0,1,235.37037037037038,-440) translate(43.666666666666664 10.666666666666668)"/><path d="M161-360h234c0-2.76 2.24-5 5-5s5 2.24 5 5h196.26" stroke="#000" stroke-width="2" fill="none"/><path d="M616.26-360L602-355.36v-9.28z"/><path d="M619.5-360l-18.5 6v-12zm-16.5 3.26l10.03-3.26-10.03-3.26z"/><use xlink:href="#C" transform="matrix(1,0,0,1,345.1203703627254,-380.0000000074506) translate(0 10.666666666666668)"/><use xlink:href="#D" transform="matrix(1,0,0,1,345.1203703627254,-380.0000000074506) translate(42.888888888888886 10.666666666666668)"/><path d="M1100-320h40v80h-40z" stroke="#000" stroke-width="2" fill="#fff"/><path d="M661.5-319.2H875c0-2.76 2.24-5 5-5s5 2.24 5 5h195.76" stroke="#000" stroke-width="2" fill="none"/><path d="M661.5-318.2h-1v-2h1zM1095.76-319.2l-14.26 4.64v-9.28z"/><path d="M1099-319.2l-18.5 6v-12zm-16.5 3.26l10.03-3.26-10.03-3.26z"/><use xlink:href="#l" transform="matrix(1,0,0,1,748.4907407407406,-339.1999999999998) translate(0 10.666666666666668)"/><use xlink:href="#m" transform="matrix(1,0,0,1,748.4907407407406,-339.1999999999998) translate(48.111111111111114 10.666666666666668)"/><use xlink:href="#v" transform="matrix(1,0,0,1,748.4907407407406,-339.1999999999998) translate(77.70370370370371 10.666666666666668)"/><use xlink:href="#E" transform="matrix(1,0,0,1,748.4907407407406,-339.1999999999998) translate(103.62962962962965 10.666666666666668)"/><use xlink:href="#F" transform="matrix(1,0,0,1,748.4907407407406,-339.1999999999998) translate(128.81481481481484 10.666666666666668)"/><use xlink:href="#G" transform="matrix(1,0,0,1,748.4907407407406,-339.1999999999998) translate(201.33333333333337 10.666666666666668)"/><use xlink:href="#D" transform="matrix(1,0,0,1,748.4907407407406,-339.1999999999998) translate(216.14814814814818 10.666666666666668)"/><path d="M1099-265.87H885c0-2.76-2.24-5-5-5s-5 2.24-5 5H679.74" fill="none"/><path d="M1099-265.87h-3.06m-4.07 0h-6.12m-4.07 0h-6.12m-4.07 0h-6.13m-4.07 0h-6.12m-4.08 0h-6.1m-4.1 0h-6.1m-4.08 0h-6.1m-4.1 0h-6.1m-4.08 0h-6.1m-4.1 0h-6.1m-4.08 0h-6.1m-4.1 0h-6.1m-4.08 0h-6.1m-4.1 0h-6.1m-4.08 0h-6.1m-4.1 0h-6.1m-4.08 0h-6.12m-4.07 0h-6.12m-4.06 0h-6.12m-4.07 0h-6.12m-4.07 0H885l-.72-2.2m-2.12-2.12l-.58-.4-1.58-.27-2.2.73m-2.12 2.1l-.43.6-.25 1.57h-2.93m-3.9 0h-5.86m-3.9 0h-5.86m-3.9 0h-5.86m-3.9 0h-5.86m-3.9 0h-5.86m-3.9 0h-5.87m-3.9 0h-5.87m-3.9 0h-5.86m-3.9 0h-5.87m-3.9 0h-5.86m-3.9 0h-5.86m-3.9 0h-5.87m-3.9 0h-5.85m-3.9 0h-5.86m-3.92 0h-5.86m-3.9 0h-5.86m-3.9 0h-5.86m-3.9 0h-5.87m-3.9 0h-5.86m-3.9 0h-2.93" stroke="#000" stroke-width="2" fill="none"/><path d="M1100-264.87h-1v-2h1zM679-261.23l-14.26-4.64L679-270.5z"/><path d="M680-259.85l-18.5-6.02 18.5-6zm-12.03-6.02L678-262.6v-6.53z"/><use xlink:href="#q" transform="matrix(1,0,0,1,753.324074074074,-285.86666666666633) translate(0 10.666666666666668)"/><use xlink:href="#m" transform="matrix(1,0,0,1,753.324074074074,-285.86666666666633) translate(38.44444444444445 10.666666666666668)"/><use xlink:href="#v" transform="matrix(1,0,0,1,753.324074074074,-285.86666666666633) translate(68.03703703703704 10.666666666666668)"/><use xlink:href="#E" transform="matrix(1,0,0,1,753.324074074074,-285.86666666666633) translate(93.96296296296296 10.666666666666668)"/><use xlink:href="#F" transform="matrix(1,0,0,1,753.324074074074,-285.86666666666633) translate(119.14814814814815 10.666666666666668)"/><use xlink:href="#G" transform="matrix(1,0,0,1,753.324074074074,-285.86666666666633) translate(191.66666666666669 10.666666666666668)"/><use xlink:href="#D" transform="matrix(1,0,0,1,753.324074074074,-285.86666666666633) translate(206.4814814814815 10.666666666666668)"/><path d="M40-640h100v20l-10 10H40z" fill="#fff"/><path d="M140-640v20l-10 10H40" stroke="#000" stroke-width="2" fill="none"/><path d="M40-640h1140v560H40zM40-542h20m15 0h20m15 0h20m15 0h20m15 0h20m15 0h20m15 0h20m15 0h20m15 0h20m15 0h20m15 0h20m15 0h20m15 0h20m15 0h20m15 0h20m15 0h20m15 0h20m15 0h20m15 0h20m15 0h20m15 0h20m15 0h20m15 0h20m15 0h20m15 0h20m15 0h20m15 0h20m15 0h20m15 0h20m15 0h20m15 0h20m15 0h20m15 0h20" stroke="#000" stroke-width="2" fill="none"/><g><use xlink:href="#H" transform="matrix(1,0,0,1,48,-640) translate(0 17.666666666666668)"/></g><g><use xlink:href="#I" transform="matrix(1,0,0,1,52,-602) translate(0 10.666666666666668)"/><use xlink:href="#J" transform="matrix(1,0,0,1,52,-602) translate(0 26.666666666666668)"/></g><g><use xlink:href="#K" transform="matrix(1,0,0,1,52,-534) translate(0 10.666666666666668)"/><use xlink:href="#L" transform="matrix(1,0,0,1,52,-534) translate(0 26.666666666666668)"/></g><path d="M1340 40h40v60h-40z" stroke="#000" stroke-width="2" fill="#fff"/><path d="M662.67-20h178.1" stroke="#000" stroke-width="2" fill="none"/><path d="M855.76-20l-14.26 4.64v-9.28z"/><path d="M859-20l-18.5 6v-12zm-16.5 3.26L852.53-20l-10.03-3.26z"/><g><use xlink:href="#M" transform="matrix(1,0,0,1,705.6851851851853,-40.000000000000036) translate(0 10.666666666666668)"/><use xlink:href="#N" transform="matrix(1,0,0,1,705.6851851851853,-40.000000000000036) translate(41.48148148148149 10.666666666666668)"/></g><path d="M901 39h422.1" stroke="#000" stroke-width="2" fill="none"/><path d="M901 40h-1v-2h1z"/><path d="M1338.1 39l-14.27 4.64v-9.28z" stroke="#000" stroke-width="2"/><g><use xlink:href="#O" transform="matrix(1,0,0,1,1080.4814814814813,19.000000000000057) translate(0 10.666666666666668)"/><use xlink:href="#t" transform="matrix(1,0,0,1,1080.4814814814813,19.000000000000057) translate(35.51851851851852 10.666666666666668)"/></g><path d="M440.24-220H620.5" stroke="#000" stroke-width="2" fill="none"/><path d="M439.5-215.36L425.24-220l14.26-4.64z"/><path d="M440.5-214l-18.5-6 18.5-6zm-12.03-6l10.03 3.26v-6.52z"/><g><use xlink:href="#u" transform="matrix(1,0,0,1,484.6388888888889,-240) translate(0 10.666666666666668)"/><use xlink:href="#n" transform="matrix(1,0,0,1,484.6388888888889,-240) translate(29.592592592592595 10.666666666666668)"/></g><path d="M178.24-180H380" stroke="#000" stroke-width="2" fill="none"/><path d="M163.24-180l14.26-4.64v9.27z" stroke="#000" stroke-width="2"/><g><use xlink:href="#P" transform="matrix(1,0,0,1,223.4270540810624,-200.000499997436) translate(0 10.666666666666668)"/><use xlink:href="#t" transform="matrix(1,0,0,1,223.4270540810624,-200.000499997436) translate(47.296296296296305 10.666666666666668)"/></g><path d="M160-120h441.26" fill="none"/><path d="M160-120h3m4.02 0h6.02m4 0h6.03m4 0h6.02m4 0h6.02m4.02 0h6m4.02 0h6.02m4 0h6.03m4.02 0h6.02m4 0h6.03m4 0h6.03m4 0h6.02m4.02 0h6m4.02 0h6.02m4 0h6.03m4.02 0h6.02m4 0h6.03m4 0h6.03m4 0h6.03m4 0h6.02m4.02 0h6m4.02 0h6m4.02 0h6.02m4 0h6.03m4 0h6.03m4 0h6.03m4 0h6.03m4 0h6.02m4.02 0h6m4.02 0h6.02m4 0h6.03m4 0h6.03m4 0h6.03m4 0h6.03m4 0H504m4 0h6m4.03 0h6m4.02 0h6.02m4 0h6.03m4 0h6.03m4 0h6.03m4 0h6.03m4 0h6.02m4 0h6.02m4.02 0h3" stroke="#000" stroke-width="2" fill="none"/><path d="M616.26-120L602-115.36v-9.28z"/><path d="M619.5-120l-18.5 6v-12zm-16.5 3.26l10.03-3.26-10.03-3.26z"/><g><use xlink:href="#Q" transform="matrix(1,0,0,1,335.7685185185185,-140) translate(0 10.666666666666668)"/><use xlink:href="#R" transform="matrix(1,0,0,1,335.7685185185185,-140) translate(49.555555555555564 10.666666666666668)"/></g><path d="M901 .08l454-.74c0-2.76 2.23-5 5-5 2.75 0 5 2.23 5 5l56.9-.1" stroke="#000" stroke-width="2" fill="none"/><path d="M901 1.08h-1v-2h1zM1436.9-.8l-14.24 4.67-.02-9.27z"/><path d="M1440.15-.8l-18.5 6.05V-6.78zm-16.5 3.3l10.03-3.3-10.04-3.23z"/><g><use xlink:href="#S" transform="matrix(1,0,0,1,1155.5278074741516,-20.411978207167344) translate(0 10.666666666666668)"/><use xlink:href="#i" transform="matrix(1,0,0,1,1155.5278074741516,-20.411978207167344) translate(46.629629629629626 10.666666666666668)"/></g><path d="M1542-25h59.15v74.2h-160v-100H1537zm-100.85 0H1542" stroke="#000" stroke-width="2" fill="#fff"/><g><use xlink:href="#T" transform="matrix(1,0,0,1,1449.150553711997,-50.795570304025205) translate(0 15.666666666666668)"/></g><g><use xlink:href="#U" transform="matrix(1,0,0,1,1453.150553711997,-16.795570304025205) translate(0 23.666666666666668)"/><use xlink:href="#V" transform="matrix(1,0,0,1,1453.150553711997,-16.795570304025205) translate(78.4814814814815 23.666666666666668)"/><use xlink:href="#W" transform="matrix(1,0,0,1,1453.150553711997,-16.795570304025205) translate(0 39.66666666666667)"/></g><defs><path d="M205 0l-28-72H64L36 0H1l101-248h38L239 0h-34zm-38-99l-47-123c-12 45-31 82-46 123h93" id="X"/><path d="M115-194c55 1 70 41 70 98S169 2 115 4C84 4 66-9 55-30l1 105H24l-1-265h31l2 30c10-21 28-34 59-34zm-8 174c40 0 45-34 45-75s-6-73-45-74c-42 0-51 32-51 76 0 43 10 73 51 73" id="Y"/><g id="a"><use transform="matrix(0.03703703703703704,0,0,0.03703703703703704,0,0)" xlink:href="#X"/><use transform="matrix(0.03703703703703704,0,0,0.03703703703703704,8.88888888888889,0)" xlink:href="#Y"/><use transform="matrix(0.03703703703703704,0,0,0.03703703703703704,16.296296296296298,0)" xlink:href="#Y"/><path d="M-.67.92h28.74v.98H-.67z"/></g><path d="M212-179c-10-28-35-45-73-45-59 0-87 40-87 99 0 60 29 101 89 101 43 0 62-24 78-52l27 14C228-24 195 4 139 4 59 4 22-46 18-125c-6-104 99-153 187-111 19 9 31 26 39 46" id="Z"/><path d="M100-194c62-1 85 37 85 99 1 63-27 99-86 99S16-35 15-95c0-66 28-99 85-99zM99-20c44 1 53-31 53-75 0-43-8-75-51-75s-53 32-53 75 10 74 51 75" id="aa"/><path d="M117-194c89-4 53 116 60 194h-32v-121c0-31-8-49-39-48C34-167 62-67 57 0H25l-1-190h30c1 10-1 24 2 32 11-22 29-35 61-36" id="ab"/><path d="M59-47c-2 24 18 29 38 22v24C64 9 27 4 27-40v-127H5v-23h24l9-43h21v43h35v23H59v120" id="ac"/><path d="M114-163C36-179 61-72 57 0H25l-1-190h30c1 12-1 29 2 39 6-27 23-49 58-41v29" id="ad"/><path d="M24 0v-261h32V0H24" id="ae"/><path d="M100-194c63 0 86 42 84 106H49c0 40 14 67 53 68 26 1 43-12 49-29l28 8c-11 28-37 45-77 45C44 4 14-33 15-96c1-61 26-98 85-98zm52 81c6-60-76-77-97-28-3 7-6 17-6 28h103" id="af"/><g id="b"><use transform="matrix(0.03703703703703704,0,0,0.03703703703703704,0,0)" xlink:href="#Z"/><use transform="matrix(0.03703703703703704,0,0,0.03703703703703704,9.592592592592593,0)" xlink:href="#aa"/><use transform="matrix(0.03703703703703704,0,0,0.03703703703703704,17,0)" xlink:href="#ab"/><use transform="matrix(0.03703703703703704,0,0,0.03703703703703704,24.407407407407405,0)" xlink:href="#ac"/><use transform="matrix(0.03703703703703704,0,0,0.03703703703703704,28.111111111111114,0)" xlink:href="#ad"/><use transform="matrix(0.03703703703703704,0,0,0.03703703703703704,32.51851851851852,0)" xlink:href="#aa"/><use transform="matrix(0.03703703703703704,0,0,0.03703703703703704,39.925925925925924,0)" xlink:href="#ae"/><use transform="matrix(0.03703703703703704,0,0,0.03703703703703704,42.85185185185185,0)" xlink:href="#ae"/><use transform="matrix(0.03703703703703704,0,0,0.03703703703703704,45.77777777777778,0)" xlink:href="#af"/><use transform="matrix(0.03703703703703704,0,0,0.03703703703703704,53.185185185185176,0)" xlink:href="#ad"/><path d="M-.67.92h58.93v.98H-.67z"/></g><path d="M160-131c35 5 61 23 61 61C221 17 115-2 30 0v-248c76 3 177-17 177 60 0 33-19 50-47 57zm-97-11c50-1 110 9 110-42 0-47-63-36-110-37v79zm0 115c55-2 124 14 124-45 0-56-70-42-124-44v89" id="ag"/><path d="M141-36C126-15 110 5 73 4 37 3 15-17 15-53c-1-64 63-63 125-63 3-35-9-54-41-54-24 1-41 7-42 31l-33-3c5-37 33-52 76-52 45 0 72 20 72 64v82c-1 20 7 32 28 27v20c-31 9-61-2-59-35zM48-53c0 20 12 33 32 33 41-3 63-29 60-74-43 2-92-5-92 41" id="ah"/><path d="M96-169c-40 0-48 33-48 73s9 75 48 75c24 0 41-14 43-38l32 2c-6 37-31 61-74 61-59 0-76-41-82-99-10-93 101-131 147-64 4 7 5 14 7 22l-32 3c-4-21-16-35-41-35" id="ai"/><path d="M143 0L79-87 56-68V0H24v-261h32v163l83-92h37l-77 82L181 0h-38" id="aj"/><path d="M85-194c31 0 48 13 60 33l-1-100h32l1 261h-30c-2-10 0-23-3-31C134-8 116 4 85 4 32 4 16-35 15-94c0-66 23-100 70-100zm9 24c-40 0-46 34-46 75 0 40 6 74 45 74 42 0 51-32 51-76 0-42-9-74-50-73" id="ak"/><g id="c"><use transform="matrix(0.03703703703703704,0,0,0.03703703703703704,0,0)" xlink:href="#ag"/><use transform="matrix(0.03703703703703704,0,0,0.03703703703703704,8.88888888888889,0)" xlink:href="#ah"/><use transform="matrix(0.03703703703703704,0,0,0.03703703703703704,16.296296296296298,0)" xlink:href="#ai"/><use transform="matrix(0.03703703703703704,0,0,0.03703703703703704,22.962962962962965,0)" xlink:href="#aj"/><use transform="matrix(0.03703703703703704,0,0,0.03703703703703704,29.629629629629633,0)" xlink:href="#af"/><use transform="matrix(0.03703703703703704,0,0,0.03703703703703704,37.03703703703704,0)" xlink:href="#ab"/><use transform="matrix(0.03703703703703704,0,0,0.03703703703703704,44.44444444444444,0)" xlink:href="#ak"/><path d="M-.67.92h53.2v.98H-.68z"/></g><path d="M240 0l2-218c-23 76-54 145-80 218h-23L58-218 59 0H30v-248h44l77 211c21-75 51-140 76-211h43V0h-30" id="al"/><path d="M115-194c53 0 69 39 70 98 0 66-23 100-70 100C84 3 66-7 56-30L54 0H23l1-261h32v101c10-23 28-34 59-34zm-8 174c40 0 45-34 45-75 0-40-5-75-45-74-42 0-51 32-51 76 0 43 10 73 51 73" id="am"/><path d="M141 0L90-78 38 0H4l68-98-65-92h35l48 74 47-74h35l-64 92 68 98h-35" id="an"/><g id="d"><use transform="matrix(0.03703703703703704,0,0,0.03703703703703704,0,0)" xlink:href="#al"/><use transform="matrix(0.03703703703703704,0,0,0.03703703703703704,11.074074074074076,0)" xlink:href="#ah"/><use transform="matrix(0.03703703703703704,0,0,0.03703703703703704,18.481481481481485,0)" xlink:href="#Y"/><use transform="matrix(0.03703703703703704,0,0,0.03703703703703704,25.888888888888893,0)" xlink:href="#am"/><use transform="matrix(0.03703703703703704,0,0,0.03703703703703704,33.296296296296305,0)" xlink:href="#aa"/><use transform="matrix(0.03703703703703704,0,0,0.03703703703703704,40.70370370370371,0)" xlink:href="#an"/><path d="M-.67.92h52.4v.98H-.66z"/></g><path d="M30-248c87 1 191-15 191 75 0 78-77 80-158 76V0H30v-248zm33 125c57 0 124 11 124-50 0-59-68-47-124-48v98" id="ao"/><path d="M33 0v-248h34V0H33" id="ap"/><g id="e"><use transform="matrix(0.03703703703703704,0,0,0.03703703703703704,0,0)" xlink:href="#X"/><use transform="matrix(0.03703703703703704,0,0,0.03703703703703704,8.88888888888889,0)" xlink:href="#ao"/><use transform="matrix(0.03703703703703704,0,0,0.03703703703703704,17.77777777777778,0)" xlink:href="#ap"/><path d="M-.67.92h22.8v.98H-.66z"/></g><path d="M24-231v-30h32v30H24zM24 0v-190h32V0H24" id="aq"/><path d="M135-143c-3-34-86-38-87 0 15 53 115 12 119 90S17 21 10-45l28-5c4 36 97 45 98 0-10-56-113-15-118-90-4-57 82-63 122-42 12 7 21 19 24 35" id="ar"/><g id="f"><use transform="matrix(0.03703703703703704,0,0,0.03703703703703704,0,0)" xlink:href="#Z"/><use transform="matrix(0.03703703703703704,0,0,0.03703703703703704,9.592592592592593,0)" xlink:href="#ae"/><use transform="matrix(0.03703703703703704,0,0,0.03703703703703704,12.518518518518517,0)" xlink:href="#aq"/><use transform="matrix(0.03703703703703704,0,0,0.03703703703703704,15.444444444444446,0)" xlink:href="#ai"/><use transform="matrix(0.03703703703703704,0,0,0.03703703703703704,22.111111111111114,0)" xlink:href="#aj"/><use transform="matrix(0.03703703703703704,0,0,0.03703703703703704,28.777777777777782,0)" xlink:href="#ar"/></g><g id="g"><use transform="matrix(0.03703703703703704,0,0,0.03703703703703704,0,0)" xlink:href="#aa"/><use transform="matrix(0.03703703703703704,0,0,0.03703703703703704,7.407407407407408,0)" xlink:href="#ab"/></g><path d="M185-189c-5-48-123-54-124 2 14 75 158 14 163 119 3 78-121 87-175 55-17-10-28-26-33-46l33-7c5 56 141 63 141-1 0-78-155-14-162-118-5-82 145-84 179-34 5 7 8 16 11 25" id="as"/><g id="h"><use transform="matrix(0.03703703703703704,0,0,0.03703703703703704,0,0)" xlink:href="#as"/><use transform="matrix(0.03703703703703704,0,0,0.03703703703703704,8.88888888888889,0)" xlink:href="#af"/><use transform="matrix(0.03703703703703704,0,0,0.03703703703703704,16.296296296296298,0)" xlink:href="#ae"/><use transform="matrix(0.03703703703703704,0,0,0.03703703703703704,19.222222222222225,0)" xlink:href="#af"/><use transform="matrix(0.03703703703703704,0,0,0.03703703703703704,26.629629629629633,0)" xlink:href="#ai"/><use transform="matrix(0.03703703703703704,0,0,0.03703703703703704,33.296296296296305,0)" xlink:href="#ac"/></g><path d="M30 0v-248h33v221h125V0H30" id="at"/><g id="i"><use transform="matrix(0.03703703703703704,0,0,0.03703703703703704,0,0)" xlink:href="#at"/><use transform="matrix(0.03703703703703704,0,0,0.03703703703703704,7.407407407407408,0)" xlink:href="#aa"/><use transform="matrix(0.03703703703703704,0,0,0.03703703703703704,14.814814814814817,0)" xlink:href="#ai"/><use transform="matrix(0.03703703703703704,0,0,0.03703703703703704,21.481481481481485,0)" xlink:href="#ah"/><use transform="matrix(0.03703703703703704,0,0,0.03703703703703704,28.888888888888893,0)" xlink:href="#ac"/><use transform="matrix(0.03703703703703704,0,0,0.03703703703703704,32.592592592592595,0)" xlink:href="#aq"/><use transform="matrix(0.03703703703703704,0,0,0.03703703703703704,35.51851851851852,0)" xlink:href="#aa"/><use transform="matrix(0.03703703703703704,0,0,0.03703703703703704,42.925925925925924,0)" xlink:href="#ab"/></g><path d="M108 0H70L1-190h34L89-25l56-165h34" id="au"/><path d="M206 0h-36l-40-164L89 0H53L-1-190h32L70-26l43-164h34l41 164 42-164h31" id="av"/><g id="j"><use transform="matrix(0.03703703703703704,0,0,0.03703703703703704,0,0)" xlink:href="#au"/><use transform="matrix(0.03703703703703704,0,0,0.03703703703703704,6.666666666666668,0)" xlink:href="#aq"/><use transform="matrix(0.03703703703703704,0,0,0.03703703703703704,9.592592592592595,0)" xlink:href="#af"/><use transform="matrix(0.03703703703703704,0,0,0.03703703703703704,17.000000000000004,0)" xlink:href="#av"/></g><path d="M63-220v92h138v28H63V0H30v-248h175v28H63" id="aw"/><g id="k"><use transform="matrix(0.03703703703703704,0,0,0.03703703703703704,0,0)" xlink:href="#aw"/><use transform="matrix(0.03703703703703704,0,0,0.03703703703703704,8.111111111111112,0)" xlink:href="#aq"/><use transform="matrix(0.03703703703703704,0,0,0.03703703703703704,11.037037037037038,0)" xlink:href="#ad"/><use transform="matrix(0.03703703703703704,0,0,0.03703703703703704,15.444444444444446,0)" xlink:href="#af"/><use transform="matrix(0.03703703703703704,0,0,0.03703703703703704,22.851851851851855,0)" xlink:href="#am"/><use transform="matrix(0.03703703703703704,0,0,0.03703703703703704,30.259259259259263,0)" xlink:href="#ah"/><use transform="matrix(0.03703703703703704,0,0,0.03703703703703704,37.66666666666667,0)" xlink:href="#ar"/><use transform="matrix(0.03703703703703704,0,0,0.03703703703703704,44.333333333333336,0)" xlink:href="#af"/><path d="M-.67.92H52.4v.98H-.67z"/></g><path d="M145-31C134-9 116 4 85 4 32 4 16-35 15-94c0-59 17-99 70-100 32-1 48 14 60 33 0-11-1-24 2-32h30l-1 268h-32zM93-21c41 0 51-33 51-76s-8-73-50-73c-40 0-46 35-46 75s5 74 45 74" id="ax"/><path d="M84 4C-5 8 30-112 23-190h32v120c0 31 7 50 39 49 72-2 45-101 50-169h31l1 190h-30c-1-10 1-25-2-33-11 22-28 36-60 37" id="ay"/><g id="l"><use transform="matrix(0.03703703703703704,0,0,0.03703703703703704,0,0)" xlink:href="#ad"/><use transform="matrix(0.03703703703703704,0,0,0.03703703703703704,4.407407407407408,0)" xlink:href="#af"/><use transform="matrix(0.03703703703703704,0,0,0.03703703703703704,11.814814814814817,0)" xlink:href="#ax"/><use transform="matrix(0.03703703703703704,0,0,0.03703703703703704,19.222222222222225,0)" xlink:href="#ay"/><use transform="matrix(0.03703703703703704,0,0,0.03703703703703704,26.629629629629633,0)" xlink:href="#af"/><use transform="matrix(0.03703703703703704,0,0,0.03703703703703704,34.03703703703704,0)" xlink:href="#ar"/><use transform="matrix(0.03703703703703704,0,0,0.03703703703703704,40.70370370370371,0)" xlink:href="#ac"/></g><path d="M210-169c-67 3-38 105-44 169h-31v-121c0-29-5-50-35-48C34-165 62-65 56 0H25l-1-190h30c1 10-1 24 2 32 10-44 99-50 107 0 11-21 27-35 58-36 85-2 47 119 55 194h-31v-121c0-29-5-49-35-48" id="az"/><g id="m"><use transform="matrix(0.03703703703703704,0,0,0.03703703703703704,0,0)" xlink:href="#az"/><use transform="matrix(0.03703703703703704,0,0,0.03703703703703704,11.074074074074076,0)" xlink:href="#ah"/><use transform="matrix(0.03703703703703704,0,0,0.03703703703703704,18.481481481481485,0)" xlink:href="#Y"/></g><g id="n"><use transform="matrix(0.03703703703703704,0,0,0.03703703703703704,0,0)" xlink:href="#az"/><use transform="matrix(0.03703703703703704,0,0,0.03703703703703704,11.074074074074076,0)" xlink:href="#aa"/><use transform="matrix(0.03703703703703704,0,0,0.03703703703703704,18.481481481481485,0)" xlink:href="#ak"/><use transform="matrix(0.03703703703703704,0,0,0.03703703703703704,25.888888888888893,0)" xlink:href="#ay"/><use transform="matrix(0.03703703703703704,0,0,0.03703703703703704,33.296296296296305,0)" xlink:href="#ae"/><use transform="matrix(0.03703703703703704,0,0,0.03703703703703704,36.22222222222223,0)" xlink:href="#af"/></g><g id="o"><use transform="matrix(0.03703703703703704,0,0,0.03703703703703704,0,0)" xlink:href="#ab"/><use transform="matrix(0.03703703703703704,0,0,0.03703703703703704,7.407407407407408,0)" xlink:href="#af"/><use transform="matrix(0.03703703703703704,0,0,0.03703703703703704,14.814814814814817,0)" xlink:href="#ah"/><use transform="matrix(0.03703703703703704,0,0,0.03703703703703704,22.222222222222225,0)" xlink:href="#ad"/></g><g id="p"><use transform="matrix(0.03703703703703704,0,0,0.03703703703703704,0,0)" xlink:href="#az"/><use transform="matrix(0.03703703703703704,0,0,0.03703703703703704,11.074074074074076,0)" xlink:href="#ah"/><use transform="matrix(0.03703703703703704,0,0,0.03703703703703704,18.481481481481485,0)" xlink:href="#Y"/></g><g id="q"><use transform="matrix(0.03703703703703704,0,0,0.03703703703703704,0,0)" xlink:href="#ad"/><use transform="matrix(0.03703703703703704,0,0,0.03703703703703704,4.407407407407408,0)" xlink:href="#af"/><use transform="matrix(0.03703703703703704,0,0,0.03703703703703704,11.814814814814817,0)" xlink:href="#ac"/><use transform="matrix(0.03703703703703704,0,0,0.03703703703703704,15.51851851851852,0)" xlink:href="#ay"/><use transform="matrix(0.03703703703703704,0,0,0.03703703703703704,22.925925925925927,0)" xlink:href="#ad"/><use transform="matrix(0.03703703703703704,0,0,0.03703703703703704,27.333333333333343,0)" xlink:href="#ab"/></g><path d="M118-107v75H92v-75H18v-26h74v-75h26v75h74v26h-74" id="aA"/><use transform="matrix(0.03703703703703704,0,0,0.03703703703703704,0,0)" xlink:href="#aA" id="r"/><g id="s"><use transform="matrix(0.03703703703703704,0,0,0.03703703703703704,0,0)" xlink:href="#ai"/><use transform="matrix(0.03703703703703704,0,0,0.03703703703703704,6.666666666666668,0)" xlink:href="#ay"/><use transform="matrix(0.03703703703703704,0,0,0.03703703703703704,14.074074074074076,0)" xlink:href="#ad"/><use transform="matrix(0.03703703703703704,0,0,0.03703703703703704,18.481481481481485,0)" xlink:href="#ad"/><use transform="matrix(0.03703703703703704,0,0,0.03703703703703704,22.888888888888893,0)" xlink:href="#af"/><use transform="matrix(0.03703703703703704,0,0,0.03703703703703704,30.2962962962963,0)" xlink:href="#ab"/><use transform="matrix(0.03703703703703704,0,0,0.03703703703703704,37.70370370370371,0)" xlink:href="#ac"/></g><g id="t"><use transform="matrix(0.03703703703703704,0,0,0.03703703703703704,0,0)" xlink:href="#ae"/><use transform="matrix(0.03703703703703704,0,0,0.03703703703703704,2.9259259259259265,0)" xlink:href="#aa"/><use transform="matrix(0.03703703703703704,0,0,0.03703703703703704,10.333333333333334,0)" xlink:href="#ai"/><use transform="matrix(0.03703703703703704,0,0,0.03703703703703704,17.000000000000004,0)" xlink:href="#ah"/><use transform="matrix(0.03703703703703704,0,0,0.03703703703703704,24.407407407407412,0)" xlink:href="#ac"/><use transform="matrix(0.03703703703703704,0,0,0.03703703703703704,28.111111111111114,0)" xlink:href="#aq"/><use transform="matrix(0.03703703703703704,0,0,0.03703703703703704,31.03703703703704,0)" xlink:href="#aa"/><use transform="matrix(0.03703703703703704,0,0,0.03703703703703704,38.44444444444445,0)" xlink:href="#ab"/></g><g id="u"><use transform="matrix(0.03703703703703704,0,0,0.03703703703703704,0,0)" xlink:href="#az"/><use transform="matrix(0.03703703703703704,0,0,0.03703703703703704,11.074074074074076,0)" xlink:href="#ah"/><use transform="matrix(0.03703703703703704,0,0,0.03703703703703704,18.481481481481485,0)" xlink:href="#Y"/></g><g id="v"><use transform="matrix(0.03703703703703704,0,0,0.03703703703703704,0,0)" xlink:href="#ah"/><use transform="matrix(0.03703703703703704,0,0,0.03703703703703704,7.407407407407408,0)" xlink:href="#ab"/><use transform="matrix(0.03703703703703704,0,0,0.03703703703703704,14.814814814814817,0)" xlink:href="#ak"/></g><g id="w"><use transform="matrix(0.03703703703703704,0,0,0.03703703703703704,0,0)" xlink:href="#ah"/><use transform="matrix(0.03703703703703704,0,0,0.03703703703703704,7.407407407407408,0)" xlink:href="#ar"/><use transform="matrix(0.03703703703703704,0,0,0.03703703703703704,14.074074074074076,0)" xlink:href="#ar"/><use transform="matrix(0.03703703703703704,0,0,0.03703703703703704,20.740740740740744,0)" xlink:href="#af"/><use transform="matrix(0.03703703703703704,0,0,0.03703703703703704,28.148148148148152,0)" xlink:href="#ad"/><use transform="matrix(0.03703703703703704,0,0,0.03703703703703704,32.55555555555556,0)" xlink:href="#ac"/></g><path d="M177-190C167-65 218 103 67 71c-23-6-38-20-44-43l32-5c15 47 100 32 89-28v-30C133-14 115 1 83 1 29 1 15-40 15-95c0-56 16-97 71-98 29-1 48 16 59 35 1-10 0-23 2-32h30zM94-22c36 0 50-32 50-73 0-42-14-75-50-75-39 0-46 34-46 75s6 73 46 73" id="aB"/><path d="M179-190L93 31C79 59 56 82 12 73V49c39 6 53-20 64-50L1-190h34L92-34l54-156h33" id="aC"/><path d="M106-169C34-169 62-67 57 0H25v-261h32l-1 103c12-21 28-36 61-36 89 0 53 116 60 194h-32v-121c2-32-8-49-39-48" id="aD"/><path d="M87 75C49 33 22-17 22-94c0-76 28-126 65-167h31c-38 41-64 92-64 168S80 34 118 75H87" id="aE"/><path d="M33-261c38 41 65 92 65 168S71 34 33 75H2C39 34 66-17 66-93S39-220 2-261h31" id="aF"/><g id="x"><use transform="matrix(0.03703703703703704,0,0,0.03703703703703704,0,0)" xlink:href="#aB"/><use transform="matrix(0.03703703703703704,0,0,0.03703703703703704,7.407407407407408,0)" xlink:href="#af"/><use transform="matrix(0.03703703703703704,0,0,0.03703703703703704,14.814814814814817,0)" xlink:href="#ac"/><use transform="matrix(0.03703703703703704,0,0,0.03703703703703704,18.51851851851852,0)" xlink:href="#at"/><use transform="matrix(0.03703703703703704,0,0,0.03703703703703704,25.92592592592593,0)" xlink:href="#aa"/><use transform="matrix(0.03703703703703704,0,0,0.03703703703703704,33.333333333333336,0)" xlink:href="#ai"/><use transform="matrix(0.03703703703703704,0,0,0.03703703703703704,40,0)" xlink:href="#ah"/><use transform="matrix(0.03703703703703704,0,0,0.03703703703703704,47.407407407407405,0)" xlink:href="#ac"/><use transform="matrix(0.03703703703703704,0,0,0.03703703703703704,51.11111111111111,0)" xlink:href="#aq"/><use transform="matrix(0.03703703703703704,0,0,0.03703703703703704,54.037037037037024,0)" xlink:href="#aa"/><use transform="matrix(0.03703703703703704,0,0,0.03703703703703704,61.44444444444444,0)" xlink:href="#ab"/><use transform="matrix(0.03703703703703704,0,0,0.03703703703703704,68.85185185185185,0)" xlink:href="#ag"/><use transform="matrix(0.03703703703703704,0,0,0.03703703703703704,77.74074074074073,0)" xlink:href="#aC"/><use transform="matrix(0.03703703703703704,0,0,0.03703703703703704,84.4074074074074,0)" xlink:href="#ao"/><use transform="matrix(0.03703703703703704,0,0,0.03703703703703704,93.29629629629629,0)" xlink:href="#aD"/><use transform="matrix(0.03703703703703704,0,0,0.03703703703703704,100.7037037037037,0)" xlink:href="#aa"/><use transform="matrix(0.03703703703703704,0,0,0.03703703703703704,108.11111111111109,0)" xlink:href="#ab"/><use transform="matrix(0.03703703703703704,0,0,0.03703703703703704,115.5185185185185,0)" xlink:href="#af"/><use transform="matrix(0.03703703703703704,0,0,0.03703703703703704,122.92592592592591,0)" xlink:href="#aE"/><use transform="matrix(0.03703703703703704,0,0,0.03703703703703704,127.33333333333331,0)" xlink:href="#aF"/></g><path d="M101-234c-31-9-42 10-38 44h38v23H63V0H32v-167H5v-23h27c-7-52 17-82 69-68v24" id="aG"/><g id="y"><use transform="matrix(0.03703703703703704,0,0,0.03703703703703704,0,0)" xlink:href="#ai"/><use transform="matrix(0.03703703703703704,0,0,0.03703703703703704,6.666666666666668,0)" xlink:href="#aa"/><use transform="matrix(0.03703703703703704,0,0,0.03703703703703704,14.074074074074076,0)" xlink:href="#ab"/><use transform="matrix(0.03703703703703704,0,0,0.03703703703703704,21.481481481481485,0)" xlink:href="#aG"/><use transform="matrix(0.03703703703703704,0,0,0.03703703703703704,25.185185185185187,0)" xlink:href="#aq"/><use transform="matrix(0.03703703703703704,0,0,0.03703703703703704,28.111111111111118,0)" xlink:href="#ad"/><use transform="matrix(0.03703703703703704,0,0,0.03703703703703704,32.518518518518526,0)" xlink:href="#az"/><use transform="matrix(0.03703703703703704,0,0,0.03703703703703704,43.592592592592595,0)" xlink:href="#ar"/></g><g id="z"><use transform="matrix(0.03703703703703704,0,0,0.03703703703703704,0,0)" xlink:href="#ak"/><use transform="matrix(0.03703703703703704,0,0,0.03703703703703704,7.407407407407408,0)" xlink:href="#aq"/><use transform="matrix(0.03703703703703704,0,0,0.03703703703703704,10.333333333333334,0)" xlink:href="#aG"/><use transform="matrix(0.03703703703703704,0,0,0.03703703703703704,13.77777777777778,0)" xlink:href="#aG"/><use transform="matrix(0.03703703703703704,0,0,0.03703703703703704,17.481481481481485,0)" xlink:href="#af"/><use transform="matrix(0.03703703703703704,0,0,0.03703703703703704,24.888888888888893,0)" xlink:href="#ad"/><use transform="matrix(0.03703703703703704,0,0,0.03703703703703704,29.2962962962963,0)" xlink:href="#af"/><use transform="matrix(0.03703703703703704,0,0,0.03703703703703704,36.70370370370371,0)" xlink:href="#ab"/><use transform="matrix(0.03703703703703704,0,0,0.03703703703703704,44.111111111111114,0)" xlink:href="#ac"/></g><g id="A"><use transform="matrix(0.03703703703703704,0,0,0.03703703703703704,0,0)" xlink:href="#ar"/><use transform="matrix(0.03703703703703704,0,0,0.03703703703703704,6.666666666666668,0)" xlink:href="#af"/><use transform="matrix(0.03703703703703704,0,0,0.03703703703703704,14.074074074074076,0)" xlink:href="#ah"/><use transform="matrix(0.03703703703703704,0,0,0.03703703703703704,21.481481481481485,0)" xlink:href="#ad"/><use transform="matrix(0.03703703703703704,0,0,0.03703703703703704,25.888888888888893,0)" xlink:href="#ai"/><use transform="matrix(0.03703703703703704,0,0,0.03703703703703704,32.55555555555556,0)" xlink:href="#aD"/></g><g id="B"><use transform="matrix(0.03703703703703704,0,0,0.03703703703703704,0,0)" xlink:href="#aG"/><use transform="matrix(0.03703703703703704,0,0,0.03703703703703704,3.703703703703704,0)" xlink:href="#aa"/><use transform="matrix(0.03703703703703704,0,0,0.03703703703703704,11.111111111111112,0)" xlink:href="#ad"/><use transform="matrix(0.03703703703703704,0,0,0.03703703703703704,15.51851851851852,0)" xlink:href="#az"/></g><g id="C"><use transform="matrix(0.03703703703703704,0,0,0.03703703703703704,0,0)" xlink:href="#ar"/><use transform="matrix(0.03703703703703704,0,0,0.03703703703703704,6.666666666666668,0)" xlink:href="#ay"/><use transform="matrix(0.03703703703703704,0,0,0.03703703703703704,14.074074074074076,0)" xlink:href="#am"/><use transform="matrix(0.03703703703703704,0,0,0.03703703703703704,21.481481481481485,0)" xlink:href="#az"/><use transform="matrix(0.03703703703703704,0,0,0.03703703703703704,32.55555555555556,0)" xlink:href="#aq"/><use transform="matrix(0.03703703703703704,0,0,0.03703703703703704,35.48148148148148,0)" xlink:href="#ac"/></g><g id="D"><use transform="matrix(0.03703703703703704,0,0,0.03703703703703704,0,0)" xlink:href="#ah"/><use transform="matrix(0.03703703703703704,0,0,0.03703703703703704,7.407407407407408,0)" xlink:href="#ak"/><use transform="matrix(0.03703703703703704,0,0,0.03703703703703704,14.814814814814817,0)" xlink:href="#ak"/><use transform="matrix(0.03703703703703704,0,0,0.03703703703703704,22.222222222222225,0)" xlink:href="#ad"/><use transform="matrix(0.03703703703703704,0,0,0.03703703703703704,26.629629629629633,0)" xlink:href="#af"/><use transform="matrix(0.03703703703703704,0,0,0.03703703703703704,34.03703703703704,0)" xlink:href="#ar"/><use transform="matrix(0.03703703703703704,0,0,0.03703703703703704,40.70370370370371,0)" xlink:href="#ar"/></g><g id="E"><use transform="matrix(0.03703703703703704,0,0,0.03703703703703704,0,0)" xlink:href="#aB"/><use transform="matrix(0.03703703703703704,0,0,0.03703703703703704,7.407407407407408,0)" xlink:href="#Y"/><use transform="matrix(0.03703703703703704,0,0,0.03703703703703704,14.814814814814817,0)" xlink:href="#ar"/></g><g id="F"><use transform="matrix(0.03703703703703704,0,0,0.03703703703703704,0,0)" xlink:href="#ai"/><use transform="matrix(0.03703703703703704,0,0,0.03703703703703704,6.666666666666668,0)" xlink:href="#aa"/><use transform="matrix(0.03703703703703704,0,0,0.03703703703703704,14.074074074074076,0)" xlink:href="#aa"/><use transform="matrix(0.03703703703703704,0,0,0.03703703703703704,21.481481481481485,0)" xlink:href="#ad"/><use transform="matrix(0.03703703703703704,0,0,0.03703703703703704,25.888888888888893,0)" xlink:href="#ak"/><use transform="matrix(0.03703703703703704,0,0,0.03703703703703704,33.296296296296305,0)" xlink:href="#aq"/><use transform="matrix(0.03703703703703704,0,0,0.03703703703703704,36.22222222222223,0)" xlink:href="#ab"/><use transform="matrix(0.03703703703703704,0,0,0.03703703703703704,43.62962962962963,0)" xlink:href="#ah"/><use transform="matrix(0.03703703703703704,0,0,0.03703703703703704,51.03703703703704,0)" xlink:href="#ac"/><use transform="matrix(0.03703703703703704,0,0,0.03703703703703704,54.74074074074074,0)" xlink:href="#af"/><use transform="matrix(0.03703703703703704,0,0,0.03703703703703704,62.14814814814816,0)" xlink:href="#ar"/></g><g id="G"><use transform="matrix(0.03703703703703704,0,0,0.03703703703703704,0,0)" xlink:href="#aa"/><use transform="matrix(0.03703703703703704,0,0,0.03703703703703704,7.407407407407408,0)" xlink:href="#aG"/></g><g id="H"><use transform="matrix(0.03703703703703704,0,0,0.03703703703703704,0,0)" xlink:href="#X"/><use transform="matrix(0.03703703703703704,0,0,0.03703703703703704,8.88888888888889,0)" xlink:href="#ae"/><use transform="matrix(0.03703703703703704,0,0,0.03703703703703704,11.814814814814817,0)" xlink:href="#ac"/><use transform="matrix(0.03703703703703704,0,0,0.03703703703703704,15.51851851851852,0)" xlink:href="#af"/><use transform="matrix(0.03703703703703704,0,0,0.03703703703703704,22.925925925925927,0)" xlink:href="#ad"/><use transform="matrix(0.03703703703703704,0,0,0.03703703703703704,27.333333333333343,0)" xlink:href="#ab"/><use transform="matrix(0.03703703703703704,0,0,0.03703703703703704,34.74074074074075,0)" xlink:href="#ah"/><use transform="matrix(0.03703703703703704,0,0,0.03703703703703704,42.14814814814815,0)" xlink:href="#ac"/><use transform="matrix(0.03703703703703704,0,0,0.03703703703703704,45.851851851851855,0)" xlink:href="#aq"/><use transform="matrix(0.03703703703703704,0,0,0.03703703703703704,48.77777777777778,0)" xlink:href="#au"/><use transform="matrix(0.03703703703703704,0,0,0.03703703703703704,55.44444444444444,0)" xlink:href="#af"/></g><g id="I"><use transform="matrix(0.03703703703703704,0,0,0.03703703703703704,0,0)" xlink:href="#ai"/><use transform="matrix(0.03703703703703704,0,0,0.03703703703703704,6.666666666666668,0)" xlink:href="#ay"/><use transform="matrix(0.03703703703703704,0,0,0.03703703703703704,14.074074074074076,0)" xlink:href="#ad"/><use transform="matrix(0.03703703703703704,0,0,0.03703703703703704,18.481481481481485,0)" xlink:href="#ad"/><use transform="matrix(0.03703703703703704,0,0,0.03703703703703704,22.888888888888893,0)" xlink:href="#af"/><use transform="matrix(0.03703703703703704,0,0,0.03703703703703704,30.2962962962963,0)" xlink:href="#ab"/><use transform="matrix(0.03703703703703704,0,0,0.03703703703703704,37.70370370370371,0)" xlink:href="#ac"/></g><g id="J"><use transform="matrix(0.03703703703703704,0,0,0.03703703703703704,0,0)" xlink:href="#ae"/><use transform="matrix(0.03703703703703704,0,0,0.03703703703703704,2.9259259259259265,0)" xlink:href="#aa"/><use transform="matrix(0.03703703703703704,0,0,0.03703703703703704,10.333333333333334,0)" xlink:href="#ai"/><use transform="matrix(0.03703703703703704,0,0,0.03703703703703704,17.000000000000004,0)" xlink:href="#ah"/><use transform="matrix(0.03703703703703704,0,0,0.03703703703703704,24.407407407407412,0)" xlink:href="#ac"/><use transform="matrix(0.03703703703703704,0,0,0.03703703703703704,28.111111111111114,0)" xlink:href="#aq"/><use transform="matrix(0.03703703703703704,0,0,0.03703703703703704,31.03703703703704,0)" xlink:href="#aa"/><use transform="matrix(0.03703703703703704,0,0,0.03703703703703704,38.44444444444445,0)" xlink:href="#ab"/></g><g id="K"><use transform="matrix(0.03703703703703704,0,0,0.03703703703703704,0,0)" xlink:href="#ak"/><use transform="matrix(0.03703703703703704,0,0,0.03703703703703704,7.407407407407408,0)" xlink:href="#aq"/><use transform="matrix(0.03703703703703704,0,0,0.03703703703703704,10.333333333333334,0)" xlink:href="#aG"/><use transform="matrix(0.03703703703703704,0,0,0.03703703703703704,13.77777777777778,0)" xlink:href="#aG"/><use transform="matrix(0.03703703703703704,0,0,0.03703703703703704,17.481481481481485,0)" xlink:href="#af"/><use transform="matrix(0.03703703703703704,0,0,0.03703703703703704,24.888888888888893,0)" xlink:href="#ad"/><use transform="matrix(0.03703703703703704,0,0,0.03703703703703704,29.2962962962963,0)" xlink:href="#af"/><use transform="matrix(0.03703703703703704,0,0,0.03703703703703704,36.70370370370371,0)" xlink:href="#ab"/><use transform="matrix(0.03703703703703704,0,0,0.03703703703703704,44.111111111111114,0)" xlink:href="#ac"/></g><g id="L"><use transform="matrix(0.03703703703703704,0,0,0.03703703703703704,0,0)" xlink:href="#ae"/><use transform="matrix(0.03703703703703704,0,0,0.03703703703703704,2.9259259259259265,0)" xlink:href="#aa"/><use transform="matrix(0.03703703703703704,0,0,0.03703703703703704,10.333333333333334,0)" xlink:href="#ai"/><use transform="matrix(0.03703703703703704,0,0,0.03703703703703704,17.000000000000004,0)" xlink:href="#ah"/><use transform="matrix(0.03703703703703704,0,0,0.03703703703703704,24.407407407407412,0)" xlink:href="#ac"/><use transform="matrix(0.03703703703703704,0,0,0.03703703703703704,28.111111111111114,0)" xlink:href="#aq"/><use transform="matrix(0.03703703703703704,0,0,0.03703703703703704,31.03703703703704,0)" xlink:href="#aa"/><use transform="matrix(0.03703703703703704,0,0,0.03703703703703704,38.44444444444445,0)" xlink:href="#ab"/></g><g id="M"><use transform="matrix(0.03703703703703704,0,0,0.03703703703703704,0,0)" xlink:href="#as"/><use transform="matrix(0.03703703703703704,0,0,0.03703703703703704,8.88888888888889,0)" xlink:href="#af"/><use transform="matrix(0.03703703703703704,0,0,0.03703703703703704,16.296296296296298,0)" xlink:href="#ab"/><use transform="matrix(0.03703703703703704,0,0,0.03703703703703704,23.703703703703706,0)" xlink:href="#ak"/><use transform="matrix(0.03703703703703704,0,0,0.03703703703703704,31.111111111111114,0)" xlink:href="#ar"/></g><g id="N"><use transform="matrix(0.03703703703703704,0,0,0.03703703703703704,0,0)" xlink:href="#ai"/><use transform="matrix(0.03703703703703704,0,0,0.03703703703703704,6.666666666666668,0)" xlink:href="#aa"/><use transform="matrix(0.03703703703703704,0,0,0.03703703703703704,14.074074074074076,0)" xlink:href="#aa"/><use transform="matrix(0.03703703703703704,0,0,0.03703703703703704,21.481481481481485,0)" xlink:href="#ad"/><use transform="matrix(0.03703703703703704,0,0,0.03703703703703704,25.888888888888893,0)" xlink:href="#ak"/><use transform="matrix(0.03703703703703704,0,0,0.03703703703703704,33.296296296296305,0)" xlink:href="#aq"/><use transform="matrix(0.03703703703703704,0,0,0.03703703703703704,36.22222222222223,0)" xlink:href="#ab"/><use transform="matrix(0.03703703703703704,0,0,0.03703703703703704,43.62962962962963,0)" xlink:href="#ah"/><use transform="matrix(0.03703703703703704,0,0,0.03703703703703704,51.03703703703704,0)" xlink:href="#ac"/><use transform="matrix(0.03703703703703704,0,0,0.03703703703703704,54.74074074074074,0)" xlink:href="#af"/><use transform="matrix(0.03703703703703704,0,0,0.03703703703703704,62.14814814814816,0)" xlink:href="#ar"/></g><g id="O"><use transform="matrix(0.03703703703703704,0,0,0.03703703703703704,0,0)" xlink:href="#as"/><use transform="matrix(0.03703703703703704,0,0,0.03703703703703704,8.88888888888889,0)" xlink:href="#ac"/><use transform="matrix(0.03703703703703704,0,0,0.03703703703703704,12.592592592592593,0)" xlink:href="#aa"/><use transform="matrix(0.03703703703703704,0,0,0.03703703703703704,20,0)" xlink:href="#ad"/><use transform="matrix(0.03703703703703704,0,0,0.03703703703703704,24.407407407407405,0)" xlink:href="#af"/></g><g id="P"><use transform="matrix(0.03703703703703704,0,0,0.03703703703703704,0,0)" xlink:href="#ai"/><use transform="matrix(0.03703703703703704,0,0,0.03703703703703704,6.666666666666668,0)" xlink:href="#aa"/><use transform="matrix(0.03703703703703704,0,0,0.03703703703703704,14.074074074074076,0)" xlink:href="#ab"/><use transform="matrix(0.03703703703703704,0,0,0.03703703703703704,21.481481481481485,0)" xlink:href="#aG"/><use transform="matrix(0.03703703703703704,0,0,0.03703703703703704,25.185185185185187,0)" xlink:href="#aq"/><use transform="matrix(0.03703703703703704,0,0,0.03703703703703704,28.111111111111118,0)" xlink:href="#ad"/><use transform="matrix(0.03703703703703704,0,0,0.03703703703703704,32.518518518518526,0)" xlink:href="#az"/></g><g id="Q"><use transform="matrix(0.03703703703703704,0,0,0.03703703703703704,0,0)" xlink:href="#ae"/><use transform="matrix(0.03703703703703704,0,0,0.03703703703703704,2.9259259259259265,0)" xlink:href="#aa"/><use transform="matrix(0.03703703703703704,0,0,0.03703703703703704,10.333333333333334,0)" xlink:href="#ai"/><use transform="matrix(0.03703703703703704,0,0,0.03703703703703704,17.000000000000004,0)" xlink:href="#ah"/><use transform="matrix(0.03703703703703704,0,0,0.03703703703703704,24.407407407407412,0)" xlink:href="#ac"/><use transform="matrix(0.03703703703703704,0,0,0.03703703703703704,28.111111111111114,0)" xlink:href="#aq"/><use transform="matrix(0.03703703703703704,0,0,0.03703703703703704,31.03703703703704,0)" xlink:href="#aa"/><use transform="matrix(0.03703703703703704,0,0,0.03703703703703704,38.44444444444445,0)" xlink:href="#ab"/></g><g id="R"><use transform="matrix(0.03703703703703704,0,0,0.03703703703703704,0,0)" xlink:href="#ai"/><use transform="matrix(0.03703703703703704,0,0,0.03703703703703704,6.666666666666668,0)" xlink:href="#aa"/><use transform="matrix(0.03703703703703704,0,0,0.03703703703703704,14.074074074074076,0)" xlink:href="#ab"/><use transform="matrix(0.03703703703703704,0,0,0.03703703703703704,21.481481481481485,0)" xlink:href="#aG"/><use transform="matrix(0.03703703703703704,0,0,0.03703703703703704,25.185185185185187,0)" xlink:href="#aq"/><use transform="matrix(0.03703703703703704,0,0,0.03703703703703704,28.111111111111118,0)" xlink:href="#ad"/><use transform="matrix(0.03703703703703704,0,0,0.03703703703703704,32.518518518518526,0)" xlink:href="#az"/><use transform="matrix(0.03703703703703704,0,0,0.03703703703703704,43.592592592592595,0)" xlink:href="#af"/><use transform="matrix(0.03703703703703704,0,0,0.03703703703703704,51.000000000000014,0)" xlink:href="#ak"/></g><path d="M232-93c-1 65-40 97-104 97C67 4 28-28 28-90v-158h33c8 89-33 224 67 224 102 0 64-133 71-224h33v155" id="aH"/><g id="S"><use transform="matrix(0.03703703703703704,0,0,0.03703703703703704,0,0)" xlink:href="#aH"/><use transform="matrix(0.03703703703703704,0,0,0.03703703703703704,9.592592592592593,0)" xlink:href="#Y"/><use transform="matrix(0.03703703703703704,0,0,0.03703703703703704,17,0)" xlink:href="#ak"/><use transform="matrix(0.03703703703703704,0,0,0.03703703703703704,24.407407407407405,0)" xlink:href="#ah"/><use transform="matrix(0.03703703703703704,0,0,0.03703703703703704,31.814814814814813,0)" xlink:href="#ac"/><use transform="matrix(0.03703703703703704,0,0,0.03703703703703704,35.51851851851852,0)" xlink:href="#af"/></g><g id="T"><use transform="matrix(0.03703703703703704,0,0,0.03703703703703704,0,0)" xlink:href="#as"/><use transform="matrix(0.03703703703703704,0,0,0.03703703703703704,8.88888888888889,0)" xlink:href="#af"/><use transform="matrix(0.03703703703703704,0,0,0.03703703703703704,16.296296296296298,0)" xlink:href="#ad"/><use transform="matrix(0.03703703703703704,0,0,0.03703703703703704,20.703703703703706,0)" xlink:href="#au"/><use transform="matrix(0.03703703703703704,0,0,0.03703703703703704,27.370370370370374,0)" xlink:href="#aq"/><use transform="matrix(0.03703703703703704,0,0,0.03703703703703704,30.2962962962963,0)" xlink:href="#ai"/><use transform="matrix(0.03703703703703704,0,0,0.03703703703703704,36.96296296296297,0)" xlink:href="#af"/></g><g id="U"><use transform="matrix(0.03703703703703704,0,0,0.03703703703703704,0,0)" xlink:href="#X"/><use transform="matrix(0.03703703703703704,0,0,0.03703703703703704,8.88888888888889,0)" xlink:href="#ay"/><use transform="matrix(0.03703703703703704,0,0,0.03703703703703704,16.296296296296298,0)" xlink:href="#ac"/><use transform="matrix(0.03703703703703704,0,0,0.03703703703703704,20,0)" xlink:href="#aa"/><use transform="matrix(0.03703703703703704,0,0,0.03703703703703704,27.40740740740741,0)" xlink:href="#ab"/><use transform="matrix(0.03703703703703704,0,0,0.03703703703703704,34.81481481481482,0)" xlink:href="#aa"/><use transform="matrix(0.03703703703703704,0,0,0.03703703703703704,42.22222222222223,0)" xlink:href="#az"/><use transform="matrix(0.03703703703703704,0,0,0.03703703703703704,53.296296296296305,0)" xlink:href="#aa"/><use transform="matrix(0.03703703703703704,0,0,0.03703703703703704,60.70370370370371,0)" xlink:href="#ay"/><use transform="matrix(0.03703703703703704,0,0,0.03703703703703704,68.11111111111111,0)" xlink:href="#ar"/></g><path d="M30-248c118-7 216 8 213 122C240-48 200 0 122 0H30v-248zM63-27c89 8 146-16 146-99s-60-101-146-95v194" id="aI"/><g id="V"><use transform="matrix(0.03703703703703704,0,0,0.03703703703703704,0,0)" xlink:href="#aI"/><use transform="matrix(0.03703703703703704,0,0,0.03703703703703704,9.592592592592593,0)" xlink:href="#ad"/><use transform="matrix(0.03703703703703704,0,0,0.03703703703703704,14.000000000000002,0)" xlink:href="#aq"/><use transform="matrix(0.03703703703703704,0,0,0.03703703703703704,16.925925925925927,0)" xlink:href="#au"/><use transform="matrix(0.03703703703703704,0,0,0.03703703703703704,23.592592592592595,0)" xlink:href="#aq"/><use transform="matrix(0.03703703703703704,0,0,0.03703703703703704,26.518518518518523,0)" xlink:href="#ab"/><use transform="matrix(0.03703703703703704,0,0,0.03703703703703704,33.92592592592593,0)" xlink:href="#aB"/></g><g id="W"><use transform="matrix(0.03703703703703704,0,0,0.03703703703703704,0,0)" xlink:href="#al"/><use transform="matrix(0.03703703703703704,0,0,0.03703703703703704,11.074074074074076,0)" xlink:href="#aa"/><use transform="matrix(0.03703703703703704,0,0,0.03703703703703704,18.481481481481485,0)" xlink:href="#ak"/><use transform="matrix(0.03703703703703704,0,0,0.03703703703703704,25.888888888888893,0)" xlink:href="#ay"/><use transform="matrix(0.03703703703703704,0,0,0.03703703703703704,33.296296296296305,0)" xlink:href="#ae"/><use transform="matrix(0.03703703703703704,0,0,0.03703703703703704,36.22222222222223,0)" xlink:href="#af"/></g></defs></g></svg>