<svg xmlns="http://www.w3.org/2000/svg" xmlns:xlink="http://www.w3.org/1999/xlink" xmlns:lucid="lucid" width="1659.04" height="811"><g transform="translate(-120 1240)" lucid:page-tab-id="0_0"><path d="M640-1159v659" fill="none"/><path d="M640-1159v9.98m0 10v19.96m0 9.98v19.97m0 9.98v19.97m0 9.98v19.97m0 10v19.96m0 9.98v19.97m0 10v19.97m0 9.98v19.97m0 10v19.96m0 9.98v19.97m0 10v19.95m0 10v19.96m0 9.98v19.97m0 9.98v19.97m0 9.98v19.97m0 10v19.96m0 9.98v19.97m0 10v19.97m0 9.98v19.97m0 10v19.96m0 9.98v19.97m0 10v9.97" stroke="#000" stroke-width="2" fill="none"/><path d="M641-1159h-2v-1h2z"/><path d="M167.25-1212.75c0 4-3.25 7.25-7.25 7.25s-7.25-3.25-7.25-7.25S156-1220 160-1220s7.25 3.25 7.25 7.25z" stroke="#000" stroke-width="2" fill="#fff"/><path d="M140-1215c0-2.76 2.24-5 5-5h30c2.76 0 5 2.24 5 5v48c0 2.76-2.24 5-5 5h-30c-2.76 0-5-2.24-5-5z" fill="none"/><path d="M160-1205.5v15.3c0 2.76 1.46 6.7 3.26 8.8L180-1162m-20-23.2l-20 23.2m0-36.25h40" stroke="#000" stroke-width="2" fill="none"/><path d="M160-1140v700" fill="none"/><path d="M160-1140v10.14m0 10.15v20.28m0 10.14v20.3m0 10.14v20.3m0 10.13v20.28m0 10.15v20.3m0 10.13v20.3m0 10.14v20.3m0 10.13v20.3m0 10.14v20.3m0 10.13v20.3m0 10.14v20.3m0 10.13v20.3m0 10.14v20.3m0 10.14v20.3m0 10.14v20.3m0 10.13v20.3m0 10.15v20.3m0 10.13v20.3m0 10.14v20.3m0 10.13v20.3m0 10.14v20.28m0 10.14v20.3m0 10.14V-440" stroke="#000" stroke-width="2" fill="none"/><path d="M161-1140h-2v-3h2z"/><path d="M360-1190h16m64 0c0 16.57-14.33 30-32 30s-32-13.43-32-30 14.33-30 32-30 32 13.43 32 30z" stroke="#000" stroke-width="2" fill="#fff"/><path d="M360-1191.2h16v2.4h-16z" fill="none"/><path d="M560-1215c0-2.76 2.24-5 5-5h150c2.76 0 5 2.24 5 5v50c0 2.76-2.24 5-5 5H565c-2.76 0-5-2.24-5-5z" stroke="#000" stroke-width="2" fill="#fff"/><use xlink:href="#a" transform="matrix(1,0,0,1,560,-1220) translate(37.505 33.16666666666667)"/><use xlink:href="#b" transform="matrix(1,0,0,1,560,-1220) translate(64.91240740740741 33.16666666666667)"/><path d="M800-1215c0-2.76 2.24-5 5-5h150c2.76 0 5 2.24 5 5v50c0 2.76-2.24 5-5 5H805c-2.76 0-5-2.24-5-5z" stroke="#000" stroke-width="2" fill="#fff"/><use xlink:href="#c" transform="matrix(1,0,0,1,800,-1220) translate(54.07907407407408 33.16666666666667)"/><path d="M1040-1215c0-2.76 2.24-5 5-5h150c2.76 0 5 2.24 5 5v50c0 2.76-2.24 5-5 5h-150c-2.76 0-5-2.24-5-5z" stroke="#000" stroke-width="2" fill="#fff"/><use xlink:href="#d" transform="matrix(1,0,0,1,1040,-1220) translate(43.72722222222222 33.16666666666667)"/><use xlink:href="#e" transform="matrix(1,0,0,1,1040,-1220) translate(94.8012962962963 33.16666666666667)"/><path d="M401-460h-2v-9.86h2zm0-19.7h-2v-19.72h2zm0-29.58h-2v-19.7h2zm0-29.56h-2v-19.7h2zm0-29.57h-2v-19.72h2zm0-29.57h-2v-19.7h2zm0-29.57h-2v-19.7h2zm0-29.56h-2v-19.7h2zm0-29.57h-2v-19.7h2zm0-29.56h-2v-19.7h2zm0-29.57h-2v-19.7h2zm0-29.56h-2v-19.7h2zm0-29.57h-2v-19.7h2zm0-29.56h-2v-19.7h2zm0-29.56h-2v-19.7h2zm0-29.56h-2v-19.7h2zm0-29.57h-2v-19.7h2zm0-29.55h-2v-19.7h2zm0-29.57h-2v-19.7h2zm0-29.56h-2v-19.7h2zm0-29.57h-2v-19.7h2zm0-29.56h-2v-19.72h2zm0-29.58h-2v-19.7h2zm0-29.56h-2v-9.86h2z"/><use xlink:href="#f" transform="matrix(1,0,0,1,400,-1036.0078683276831) translate(0 10.666666666666668)"/><path d="M880-1159l-4 580" fill="none"/><path d="M880-1159l-.07 10.18m-.07 10.17l-.14 20.35m-.07 10.18l-.14 20.35m-.06 10.17l-.14 20.35m-.07 10.18l-.14 20.35m-.08 10.18l-.14 20.35M878.8-986l-.13 20.35m-.07 10.18l-.14 20.36m-.07 10.18l-.15 20.35m-.07 10.16l-.14 20.35m-.08 10.2l-.14 20.34m-.07 10.17l-.14 20.36m-.06 10.18l-.14 20.35m-.07 10.17l-.14 20.35m-.08 10.17l-.14 20.34m-.07 10.18l-.13 20.35m-.07 10.18l-.14 20.35m-.07 10.17l-.15 20.35m-.07 10.18l-.14 20.35m-.07 10.17L876-579" stroke="#000" stroke-width="2" fill="none"/><path d="M881-1159h-2v-1h2z"/><path/><path d="M1120-1159v439" fill="none"/><path d="M1120-1159v9.76m0 9.75v19.52m0 9.76v19.5m0 9.76v19.52m0 9.75v19.52m0 9.76v19.5m0 9.76v19.52m0 9.75v19.52m0 9.76v19.5m0 9.76v19.52m0 9.75v19.52m0 9.76v19.5m0 9.76v19.52m0 9.75v19.52m0 9.76v19.5m0 9.76v9.76" stroke="#000" stroke-width="2" fill="none"/><path d="M1121-1159h-2v-1h2z"/><path d="M300-1215c0-2.76 2.24-5 5-5h50c2.76 0 5 2.24 5 5v50c0 2.76-2.24 5-5 5h-50c-2.76 0-5-2.24-5-5z" stroke="#000" stroke-opacity="0" stroke-width="2" fill="#fff" fill-opacity="0"/><use xlink:href="#g" transform="matrix(1,0,0,1,305,-1215) translate(11.703703703703702 27.666666666666668)"/><path d="M380-1080h40v580h-40zM1520-1215c0-2.76 2.24-5 5-5h150c2.76 0 5 2.24 5 5v50c0 2.76-2.24 5-5 5h-150c-2.76 0-5-2.24-5-5z" stroke="#000" stroke-width="2" fill="#fff"/><use xlink:href="#h" transform="matrix(1,0,0,1,1520,-1220) translate(57.079074074074065 33.16666666666667)"/><path d="M1600-1159v159" fill="none"/><path d="M1600-1159v10.6m0 10.6v21.2m0 10.6v21.2m0 10.6v21.2m0 10.6v21.2m0 10.6v10.6" stroke="#000" stroke-width="2" fill="none"/><path d="M1601-1159h-2v-1h2z"/><path d="M1580-1120h40v80h-40zM1100-820h40v60h-40z" stroke="#000" stroke-width="2" fill="#fff"/><path d="M1382.96-1078.53H1579" stroke="#000" stroke-width="2" fill="none"/><path d="M1400.7-1087.85l-15.77 9.32 15.76 9.32-1.03 1.7-18.67-11.03 18.67-11.04zM1580-1077.53h-1v-2h1z"/><use xlink:href="#i" transform="matrix(1,0,0,1,1434.5,-1098.533333333333) translate(0 10.666666666666668)"/><use xlink:href="#j" transform="matrix(1,0,0,1,1434.5,-1098.533333333333) translate(22.18518518518519 10.666666666666668)"/><path d="M620-1040h40v500h-40z" stroke="#000" stroke-width="2" fill="#fff"/><path d="M160-1080h200.76" stroke="#000" stroke-width="2" fill="none"/><path d="M375.76-1080l-14.26 4.64v-9.28z"/><path d="M379-1080l-18.5 6v-12zm-16.5 3.26l10.03-3.26-10.03-3.26z"/><use xlink:href="#k" transform="matrix(1,0,0,1,237.09259259259258,-1100) translate(0 10.666666666666668)"/><use xlink:href="#l" transform="matrix(1,0,0,1,237.09259259259258,-1100) translate(29.592592592592595 10.666666666666668)"/><path d="M420-1040h180.76" stroke="#000" stroke-width="2" fill="none"/><path d="M615.76-1040l-14.26 4.64v-9.28z" stroke="#000" stroke-width="2"/><use xlink:href="#m" transform="matrix(1,0,0,1,458.8333333333333,-1060) translate(0 10.666666666666668)"/><use xlink:href="#n" transform="matrix(1,0,0,1,458.8333333333333,-1060) translate(48.111111111111114 10.666666666666668)"/><use xlink:href="#o" transform="matrix(1,0,0,1,458.8333333333333,-1060) translate(77.70370370370371 10.666666666666668)"/><path d="M660-820h212.66c0-2.76 2.24-5 5-5s5 2.24 5 5h198.1" stroke="#000" stroke-width="2" fill="none"/><path d="M1095.76-820l-14.26 4.64v-9.28z"/><path d="M1099-820l-18.5 6v-12zm-16.5 3.26l10.03-3.26-10.03-3.26z"/><use xlink:href="#m" transform="matrix(1,0,0,1,827.3333333333334,-840) translate(0 10.666666666666668)"/><use xlink:href="#p" transform="matrix(1,0,0,1,827.3333333333334,-840) translate(48.111111111111114 10.666666666666668)"/><use xlink:href="#q" transform="matrix(1,0,0,1,827.3333333333334,-840) translate(78.44444444444446 10.666666666666668)"/><path d="M1280-1215c0-2.76 2.24-5 5-5h150c2.76 0 5 2.24 5 5v50c0 2.76-2.24 5-5 5h-150c-2.76 0-5-2.24-5-5z" stroke="#000" stroke-width="2" fill="#fff"/><use xlink:href="#r" transform="matrix(1,0,0,1,1280,-1220) translate(54.13462962962962 33.16666666666667)"/><path d="M1360-1159v599" fill="none"/><path d="M1360-1159v9.98m0 10v19.95m0 10v19.95m0 10v19.95m0 10v19.95m0 10v19.95m0 10v19.95m0 10v19.95m0 10v19.95m0 10v19.95m0 10v19.95m0 10v19.95m0 10v19.95m0 10v19.95m0 10v19.95m0 10v19.95m0 10v19.95m0 10v19.95m0 10v19.95m0 10v19.95m0 10v9.97" stroke="#000" stroke-width="2" fill="none"/><path d="M1361-1159h-2v-1h2z"/><path d="M1340-1080h40v480h-40z" stroke="#000" stroke-width="2" fill="#fff"/><path d="M580-995c0-2.76 2.24-5 5-5h90c2.76 0 5 2.24 5 5v10c0 2.76-1.58 6.58-3.54 8.54l-2.92 2.92c-1.96 1.96-5.78 3.54-8.54 3.54h-80c-2.76 0-5-2.24-5-5z" fill="#fff"/><path d="M580-995c0-2.76 2.24-5 5-5h100c2.76 0 5 2.24 5 5v130c0 2.76-2.24 5-5 5H585c-2.76 0-5-2.24-5-5z" stroke="#000" stroke-width="2" fill="none"/><path d="M680-1000v20l-10 10h-90" stroke="#000" stroke-width="2" fill="#fff"/><use xlink:href="#s" transform="matrix(1,0,0,1,588,-1000) translate(0 17.666666666666668)"/><path d="M661-940h59v40h-40.76" stroke="#000" stroke-width="2" fill="none"/><path d="M664.24-900l14.26-4.64v9.28z" stroke="#000" stroke-width="2"/><use xlink:href="#t" transform="matrix(1,0,0,1,728,-928) translate(0 10.666666666666668)"/><path d="M439.24-742.53H619" fill="none"/><path d="M439.24-742.53h3m4 0h5.98m4 0h6m3.98 0h6m4 0h5.98m4 0h6m3.98 0h6m4 0h5.98m4 0h6m3.98 0h6m4 0h5.98m4 0h6m3.98 0h6m4 0h5.98m4 0h6m3.98 0h6m4 0H602m4 0h6m3.98 0h3" stroke="#000" stroke-width="2" fill="none"/><path d="M438.5-737.9l-14.26-4.63 14.26-4.64z"/><path d="M439.5-736.52l-18.5-6 18.5-6.03zm-12.03-6l10.03 3.25v-6.52zM620-741.53h-1v-2h1z"/><use xlink:href="#u" transform="matrix(1,0,0,1,507.05555555555554,-762.5333333333332) translate(0 10.666666666666668)"/><path d="M679.24-780H872.4c0-2.76 2.22-5 5-5 2.75 0 5 2.24 5 5H1100" fill="none"/><path d="M679.24-780h3.05m4.05 0h6.1m4.07 0h6.1m4.06 0h6.1m4.07 0h6.1m4.07 0h6.1m4.06 0h6.1m4.07 0h6.1m4.06 0h6.1m4.08 0h6.1m4.06 0h6.1m4.07 0h6.1m4.08 0h6.1m4.06 0h6.1m4.07 0h6.1m4.07 0h6.1m4.07 0h6.1m4.06 0h6.1m4.07 0h6.1m4.07 0h3.05l.7-2.2m2.12-2.12l.6-.43 1.57-.25 2.2.72m2.1 2.12l.43.58.26 1.58h2.95m3.96 0h5.95m3.95 0h5.94m3.95 0h5.93m3.95 0h5.94m3.96 0h5.93m3.97 0h5.93m3.96 0h5.93m3.95 0h5.94m3.94 0h5.94m3.95 0h5.94m3.96 0h5.93m3.96 0h5.93m3.96 0h5.94m3.96 0h5.94m3.95 0h5.93m3.95 0h5.94m3.95 0h5.94m3.97 0h5.93m3.96 0h5.93m3.95 0h5.93m3.96 0h5.94m3.95 0h2.97" stroke="#000" stroke-width="2" fill="none"/><path d="M678.5-775.36L664.24-780l14.26-4.64z"/><path d="M679.5-774l-18.5-6 18.5-6zm-12.03-6l10.03 3.26v-6.52z"/><use xlink:href="#u" transform="matrix(1,0,0,1,867.5555555555555,-800) translate(0 10.666666666666668)"/><path d="M660-700h180.76" stroke="#000" stroke-width="2" fill="none"/><path d="M855.76-700l-14.26 4.64v-9.28z"/><path d="M859-700l-18.5 6v-12zm-16.5 3.26l10.03-3.26-10.03-3.26z"/><use xlink:href="#i" transform="matrix(1,0,0,1,714,-720) translate(0 10.666666666666668)"/><use xlink:href="#j" transform="matrix(1,0,0,1,714,-720) translate(22.18518518518519 10.666666666666668)"/><path d="M860-700h40v120h-40z" stroke="#000" stroke-width="2" fill="#fff"/><path d="M900-660h420.76" stroke="#000" stroke-width="2" fill="none"/><path d="M1335.76-660l-14.26 4.64v-9.28z"/><path d="M1339-660l-18.5 6v-12zm-16.5 3.26l10.03-3.26-10.03-3.26z"/><use xlink:href="#m" transform="matrix(1,0,0,1,1049.9444444444443,-680) translate(0 10.666666666666668)"/><use xlink:href="#v" transform="matrix(1,0,0,1,1049.9444444444443,-680) translate(48.111111111111114 10.666666666666668)"/><use xlink:href="#j" transform="matrix(1,0,0,1,1049.9444444444443,-680) translate(70.2962962962963 10.666666666666668)"/><path d="M902.96-620H1340" fill="none"/><path d="M902.96-620h2.98m3.98 0h5.96m3.97 0h5.96m3.98 0h5.96m3.98 0h5.95m3.98 0h5.96m3.98 0h5.96m3.97 0h5.97m3.98 0h5.96m3.98 0h5.96m3.97 0h5.97m3.97 0h5.96m3.98 0h5.96m3.97 0h5.97m3.97 0h5.96m3.97 0h5.96m3.98 0h5.97m3.97 0h5.96m3.97 0h5.96m3.97 0h5.96m3.98 0h5.96m3.97 0h5.96m3.97 0h5.96m3.98 0h5.95m3.97 0h5.96m3.97 0h5.96m3.97 0h5.96m3.97 0h5.96m3.97 0h5.96m3.97 0h5.96m3.96 0h5.96m3.98 0h5.96m3.97 0h5.96m3.96 0h5.96m3.97 0h5.95m3.98 0h5.96m3.96 0h5.96m3.97 0h5.95m3.97 0h5.96m3.98 0h5.96m3.97 0h5.95m3.97 0h5.96m3.97 0h5.96m4 0h5.95m3.97 0h2.98" stroke="#000" stroke-width="2" fill="none"/><path d="M920.7-629.32L904.92-620l15.76 9.32-1.03 1.72L901-620l18.67-11.04z"/><use xlink:href="#i" transform="matrix(1,0,0,1,1075,-640) translate(0 10.666666666666668)"/><use xlink:href="#j" transform="matrix(1,0,0,1,1075,-640) translate(22.18518518518519 10.666666666666668)"/><path d="M662.96-598.53H859" fill="none"/><path d="M662.96-598.53h2.95m3.93 0h5.88m3.93 0h5.88m3.93 0h5.88m3.93 0h5.88m3.93 0h5.88m3.93 0h5.9m3.9 0h5.9m3.9 0h5.9m3.9 0h5.9m3.9 0h5.9m3.9 0h5.9m3.92 0h5.88m3.92 0h5.88m3.92 0h5.88m3.92 0h5.88m3.92 0h5.88m3.92 0h5.9m3.9 0h5.9m3.9 0h5.9m3.9 0H859" stroke="#000" stroke-width="2" fill="none"/><path d="M680.7-607.85l-15.77 9.32 15.76 9.32-1.03 1.7L661-598.52l18.67-11.04zM860-597.53h-1v-2h1z"/><use xlink:href="#i" transform="matrix(1,0,0,1,714.5,-618.5333333333332) translate(0 10.666666666666668)"/><use xlink:href="#j" transform="matrix(1,0,0,1,714.5,-618.5333333333332) translate(22.18518518518519 10.666666666666668)"/><path d="M422.96-560H620" fill="none"/><path d="M422.96-560h2.96m3.94 0h5.9m3.95 0h5.92m3.94 0h5.92m3.94 0h5.9m3.95 0h5.9m3.95 0h5.9m3.95 0h5.9m3.95 0h5.9m3.95 0h5.92m3.93 0h5.9m3.95 0h5.9m3.95 0h5.9m3.95 0h5.9m3.95 0h5.9m3.96 0h5.9m3.94 0h5.9m3.95 0h5.9m3.94 0h5.9m3.95 0h5.9m3.94 0H620" stroke="#000" stroke-width="2" fill="none"/><path d="M440.7-569.32L424.92-560l15.76 9.32-1.03 1.72L421-560l18.67-11.04z"/><g><use xlink:href="#i" transform="matrix(1,0,0,1,475,-580) translate(0 10.666666666666668)"/><use xlink:href="#j" transform="matrix(1,0,0,1,475,-580) translate(22.18518518518519 10.666666666666668)"/></g><path d="M161.96-520H380" fill="none"/><path d="M161.96-520h2.98m3.96 0h5.95m3.96 0h5.96m3.96 0h5.95m3.96 0h5.95m3.96 0h5.95m3.96 0h5.94m3.97 0h5.94m3.98 0h5.94m3.97 0h5.93m3.97 0h5.94m3.97 0h5.96m3.96 0h5.95m3.96 0h5.95m3.96 0h5.95m3.95 0h5.95m3.96 0h5.95m3.97 0h5.95m3.96 0h5.95m3.96 0h5.94m3.97 0h5.95m3.97 0h5.94m3.97 0H380M179.18-530.18L161.96-520l17.22 10.18" stroke="#000" stroke-width="2" fill="none"/><g><use xlink:href="#w" transform="matrix(1,0,0,1,207.5185185185185,-540) translate(0 10.666666666666668)"/><use xlink:href="#x" transform="matrix(1,0,0,1,207.5185185185185,-540) translate(29.592592592592595 10.666666666666668)"/><use xlink:href="#v" transform="matrix(1,0,0,1,207.5185185185185,-540) translate(56.92592592592593 10.666666666666668)"/><use xlink:href="#y" transform="matrix(1,0,0,1,207.5185185185185,-540) translate(79.11111111111111 10.666666666666668)"/></g><path d="M1621-1058.53h40v-38.67h-21.76" stroke="#000" stroke-width="2" fill="none"/><path d="M1621-1057.53h-1v-2h1zM1638.5-1092.56l-14.26-4.64 14.26-4.64z"/><path d="M1639.5-1091.2l-18.5-6 18.5-6zm-12.03-6l10.03 3.26v-6.52z"/><g><use xlink:href="#z" transform="matrix(1,0,0,1,1669,-1085.8666666666663) translate(0 10.666666666666668)"/></g><defs><path d="M205 0l-28-72H64L36 0H1l101-248h38L239 0h-34zm-38-99l-47-123c-12 45-31 82-46 123h93" id="A"/><path d="M115-194c55 1 70 41 70 98S169 2 115 4C84 4 66-9 55-30l1 105H24l-1-265h31l2 30c10-21 28-34 59-34zm-8 174c40 0 45-34 45-75s-6-73-45-74c-42 0-51 32-51 76 0 43 10 73 51 73" id="B"/><g id="a"><use transform="matrix(0.03703703703703704,0,0,0.03703703703703704,0,0)" xlink:href="#A"/><use transform="matrix(0.03703703703703704,0,0,0.03703703703703704,8.88888888888889,0)" xlink:href="#B"/><use transform="matrix(0.03703703703703704,0,0,0.03703703703703704,16.296296296296298,0)" xlink:href="#B"/><path d="M-.67.92h28.74v.98H-.67z"/></g><path d="M212-179c-10-28-35-45-73-45-59 0-87 40-87 99 0 60 29 101 89 101 43 0 62-24 78-52l27 14C228-24 195 4 139 4 59 4 22-46 18-125c-6-104 99-153 187-111 19 9 31 26 39 46" id="C"/><path d="M100-194c62-1 85 37 85 99 1 63-27 99-86 99S16-35 15-95c0-66 28-99 85-99zM99-20c44 1 53-31 53-75 0-43-8-75-51-75s-53 32-53 75 10 74 51 75" id="D"/><path d="M117-194c89-4 53 116 60 194h-32v-121c0-31-8-49-39-48C34-167 62-67 57 0H25l-1-190h30c1 10-1 24 2 32 11-22 29-35 61-36" id="E"/><path d="M59-47c-2 24 18 29 38 22v24C64 9 27 4 27-40v-127H5v-23h24l9-43h21v43h35v23H59v120" id="F"/><path d="M114-163C36-179 61-72 57 0H25l-1-190h30c1 12-1 29 2 39 6-27 23-49 58-41v29" id="G"/><path d="M24 0v-261h32V0H24" id="H"/><path d="M100-194c63 0 86 42 84 106H49c0 40 14 67 53 68 26 1 43-12 49-29l28 8c-11 28-37 45-77 45C44 4 14-33 15-96c1-61 26-98 85-98zm52 81c6-60-76-77-97-28-3 7-6 17-6 28h103" id="I"/><g id="b"><use transform="matrix(0.03703703703703704,0,0,0.03703703703703704,0,0)" xlink:href="#C"/><use transform="matrix(0.03703703703703704,0,0,0.03703703703703704,9.592592592592593,0)" xlink:href="#D"/><use transform="matrix(0.03703703703703704,0,0,0.03703703703703704,17,0)" xlink:href="#E"/><use transform="matrix(0.03703703703703704,0,0,0.03703703703703704,24.407407407407405,0)" xlink:href="#F"/><use transform="matrix(0.03703703703703704,0,0,0.03703703703703704,28.111111111111114,0)" xlink:href="#G"/><use transform="matrix(0.03703703703703704,0,0,0.03703703703703704,32.51851851851852,0)" xlink:href="#D"/><use transform="matrix(0.03703703703703704,0,0,0.03703703703703704,39.925925925925924,0)" xlink:href="#H"/><use transform="matrix(0.03703703703703704,0,0,0.03703703703703704,42.85185185185185,0)" xlink:href="#H"/><use transform="matrix(0.03703703703703704,0,0,0.03703703703703704,45.77777777777778,0)" xlink:href="#I"/><use transform="matrix(0.03703703703703704,0,0,0.03703703703703704,53.185185185185176,0)" xlink:href="#G"/><path d="M-.67.92h58.93v.98H-.67z"/></g><path d="M160-131c35 5 61 23 61 61C221 17 115-2 30 0v-248c76 3 177-17 177 60 0 33-19 50-47 57zm-97-11c50-1 110 9 110-42 0-47-63-36-110-37v79zm0 115c55-2 124 14 124-45 0-56-70-42-124-44v89" id="J"/><path d="M141-36C126-15 110 5 73 4 37 3 15-17 15-53c-1-64 63-63 125-63 3-35-9-54-41-54-24 1-41 7-42 31l-33-3c5-37 33-52 76-52 45 0 72 20 72 64v82c-1 20 7 32 28 27v20c-31 9-61-2-59-35zM48-53c0 20 12 33 32 33 41-3 63-29 60-74-43 2-92-5-92 41" id="K"/><path d="M96-169c-40 0-48 33-48 73s9 75 48 75c24 0 41-14 43-38l32 2c-6 37-31 61-74 61-59 0-76-41-82-99-10-93 101-131 147-64 4 7 5 14 7 22l-32 3c-4-21-16-35-41-35" id="L"/><path d="M143 0L79-87 56-68V0H24v-261h32v163l83-92h37l-77 82L181 0h-38" id="M"/><path d="M85-194c31 0 48 13 60 33l-1-100h32l1 261h-30c-2-10 0-23-3-31C134-8 116 4 85 4 32 4 16-35 15-94c0-66 23-100 70-100zm9 24c-40 0-46 34-46 75 0 40 6 74 45 74 42 0 51-32 51-76 0-42-9-74-50-73" id="N"/><g id="c"><use transform="matrix(0.03703703703703704,0,0,0.03703703703703704,0,0)" xlink:href="#J"/><use transform="matrix(0.03703703703703704,0,0,0.03703703703703704,8.88888888888889,0)" xlink:href="#K"/><use transform="matrix(0.03703703703703704,0,0,0.03703703703703704,16.296296296296298,0)" xlink:href="#L"/><use transform="matrix(0.03703703703703704,0,0,0.03703703703703704,22.962962962962965,0)" xlink:href="#M"/><use transform="matrix(0.03703703703703704,0,0,0.03703703703703704,29.629629629629633,0)" xlink:href="#I"/><use transform="matrix(0.03703703703703704,0,0,0.03703703703703704,37.03703703703704,0)" xlink:href="#E"/><use transform="matrix(0.03703703703703704,0,0,0.03703703703703704,44.44444444444444,0)" xlink:href="#N"/><path d="M-.67.92h53.2v.98H-.68z"/></g><path d="M240 0l2-218c-23 76-54 145-80 218h-23L58-218 59 0H30v-248h44l77 211c21-75 51-140 76-211h43V0h-30" id="O"/><path d="M115-194c53 0 69 39 70 98 0 66-23 100-70 100C84 3 66-7 56-30L54 0H23l1-261h32v101c10-23 28-34 59-34zm-8 174c40 0 45-34 45-75 0-40-5-75-45-74-42 0-51 32-51 76 0 43 10 73 51 73" id="P"/><path d="M141 0L90-78 38 0H4l68-98-65-92h35l48 74 47-74h35l-64 92 68 98h-35" id="Q"/><g id="d"><use transform="matrix(0.03703703703703704,0,0,0.03703703703703704,0,0)" xlink:href="#O"/><use transform="matrix(0.03703703703703704,0,0,0.03703703703703704,11.074074074074076,0)" xlink:href="#K"/><use transform="matrix(0.03703703703703704,0,0,0.03703703703703704,18.481481481481485,0)" xlink:href="#B"/><use transform="matrix(0.03703703703703704,0,0,0.03703703703703704,25.888888888888893,0)" xlink:href="#P"/><use transform="matrix(0.03703703703703704,0,0,0.03703703703703704,33.296296296296305,0)" xlink:href="#D"/><use transform="matrix(0.03703703703703704,0,0,0.03703703703703704,40.70370370370371,0)" xlink:href="#Q"/><path d="M-.67.92h52.4v.98H-.66z"/></g><path d="M30-248c87 1 191-15 191 75 0 78-77 80-158 76V0H30v-248zm33 125c57 0 124 11 124-50 0-59-68-47-124-48v98" id="R"/><path d="M33 0v-248h34V0H33" id="S"/><g id="e"><use transform="matrix(0.03703703703703704,0,0,0.03703703703703704,0,0)" xlink:href="#A"/><use transform="matrix(0.03703703703703704,0,0,0.03703703703703704,8.88888888888889,0)" xlink:href="#R"/><use transform="matrix(0.03703703703703704,0,0,0.03703703703703704,17.77777777777778,0)" xlink:href="#S"/><path d="M-.67.92h22.8v.98H-.66z"/></g><path d="M108 0H70L1-190h34L89-25l56-165h34" id="T"/><path d="M24-231v-30h32v30H24zM24 0v-190h32V0H24" id="U"/><path d="M206 0h-36l-40-164L89 0H53L-1-190h32L70-26l43-164h34l41 164 42-164h31" id="V"/><g id="g"><use transform="matrix(0.03703703703703704,0,0,0.03703703703703704,0,0)" xlink:href="#T"/><use transform="matrix(0.03703703703703704,0,0,0.03703703703703704,6.666666666666668,0)" xlink:href="#U"/><use transform="matrix(0.03703703703703704,0,0,0.03703703703703704,9.592592592592595,0)" xlink:href="#I"/><use transform="matrix(0.03703703703703704,0,0,0.03703703703703704,17.000000000000004,0)" xlink:href="#V"/></g><path d="M84 4C-5 8 30-112 23-190h32v120c0 31 7 50 39 49 72-2 45-101 50-169h31l1 190h-30c-1-10 1-25-2-33-11 22-28 36-60 37" id="W"/><g id="h"><use transform="matrix(0.03703703703703704,0,0,0.03703703703703704,0,0)" xlink:href="#A"/><use transform="matrix(0.03703703703703704,0,0,0.03703703703703704,8.88888888888889,0)" xlink:href="#G"/><use transform="matrix(0.03703703703703704,0,0,0.03703703703703704,13.296296296296298,0)" xlink:href="#N"/><use transform="matrix(0.03703703703703704,0,0,0.03703703703703704,20.703703703703706,0)" xlink:href="#W"/><use transform="matrix(0.03703703703703704,0,0,0.03703703703703704,28.111111111111114,0)" xlink:href="#U"/><use transform="matrix(0.03703703703703704,0,0,0.03703703703703704,31.03703703703704,0)" xlink:href="#E"/><use transform="matrix(0.03703703703703704,0,0,0.03703703703703704,38.44444444444445,0)" xlink:href="#D"/><path d="M-.67.92h47.2v.98H-.68z"/></g><g id="i"><use transform="matrix(0.03703703703703704,0,0,0.03703703703703704,0,0)" xlink:href="#L"/><use transform="matrix(0.03703703703703704,0,0,0.03703703703703704,6.666666666666668,0)" xlink:href="#K"/><use transform="matrix(0.03703703703703704,0,0,0.03703703703703704,14.074074074074076,0)" xlink:href="#G"/></g><path d="M135-143c-3-34-86-38-87 0 15 53 115 12 119 90S17 21 10-45l28-5c4 36 97 45 98 0-10-56-113-15-118-90-4-57 82-63 122-42 12 7 21 19 24 35" id="X"/><g id="j"><use transform="matrix(0.03703703703703704,0,0,0.03703703703703704,0,0)" xlink:href="#L"/><use transform="matrix(0.03703703703703704,0,0,0.03703703703703704,6.666666666666668,0)" xlink:href="#D"/><use transform="matrix(0.03703703703703704,0,0,0.03703703703703704,14.074074074074076,0)" xlink:href="#D"/><use transform="matrix(0.03703703703703704,0,0,0.03703703703703704,21.481481481481485,0)" xlink:href="#G"/><use transform="matrix(0.03703703703703704,0,0,0.03703703703703704,25.888888888888893,0)" xlink:href="#N"/><use transform="matrix(0.03703703703703704,0,0,0.03703703703703704,33.296296296296305,0)" xlink:href="#U"/><use transform="matrix(0.03703703703703704,0,0,0.03703703703703704,36.22222222222223,0)" xlink:href="#E"/><use transform="matrix(0.03703703703703704,0,0,0.03703703703703704,43.62962962962963,0)" xlink:href="#K"/><use transform="matrix(0.03703703703703704,0,0,0.03703703703703704,51.03703703703704,0)" xlink:href="#F"/><use transform="matrix(0.03703703703703704,0,0,0.03703703703703704,54.74074074074074,0)" xlink:href="#I"/><use transform="matrix(0.03703703703703704,0,0,0.03703703703703704,62.14814814814816,0)" xlink:href="#X"/></g><g id="k"><use transform="matrix(0.03703703703703704,0,0,0.03703703703703704,0,0)" xlink:href="#O"/><use transform="matrix(0.03703703703703704,0,0,0.03703703703703704,11.074074074074076,0)" xlink:href="#K"/><use transform="matrix(0.03703703703703704,0,0,0.03703703703703704,18.481481481481485,0)" xlink:href="#B"/></g><path d="M137 0h-34L2-248h35l83 218 83-218h36" id="Y"/><g id="l"><use transform="matrix(0.03703703703703704,0,0,0.03703703703703704,0,0)" xlink:href="#Y"/><use transform="matrix(0.03703703703703704,0,0,0.03703703703703704,8.62962962962963,0)" xlink:href="#U"/><use transform="matrix(0.03703703703703704,0,0,0.03703703703703704,11.555555555555557,0)" xlink:href="#I"/><use transform="matrix(0.03703703703703704,0,0,0.03703703703703704,18.962962962962965,0)" xlink:href="#V"/><use transform="matrix(0.03703703703703704,0,0,0.03703703703703704,28.555555555555554,0)" xlink:href="#X"/></g><path d="M145-31C134-9 116 4 85 4 32 4 16-35 15-94c0-59 17-99 70-100 32-1 48 14 60 33 0-11-1-24 2-32h30l-1 268h-32zM93-21c41 0 51-33 51-76s-8-73-50-73c-40 0-46 35-46 75s5 74 45 74" id="Z"/><g id="m"><use transform="matrix(0.03703703703703704,0,0,0.03703703703703704,0,0)" xlink:href="#G"/><use transform="matrix(0.03703703703703704,0,0,0.03703703703703704,4.407407407407408,0)" xlink:href="#I"/><use transform="matrix(0.03703703703703704,0,0,0.03703703703703704,11.814814814814817,0)" xlink:href="#Z"/><use transform="matrix(0.03703703703703704,0,0,0.03703703703703704,19.222222222222225,0)" xlink:href="#W"/><use transform="matrix(0.03703703703703704,0,0,0.03703703703703704,26.629629629629633,0)" xlink:href="#I"/><use transform="matrix(0.03703703703703704,0,0,0.03703703703703704,34.03703703703704,0)" xlink:href="#X"/><use transform="matrix(0.03703703703703704,0,0,0.03703703703703704,40.70370370370371,0)" xlink:href="#F"/></g><path d="M210-169c-67 3-38 105-44 169h-31v-121c0-29-5-50-35-48C34-165 62-65 56 0H25l-1-190h30c1 10-1 24 2 32 10-44 99-50 107 0 11-21 27-35 58-36 85-2 47 119 55 194h-31v-121c0-29-5-49-35-48" id="aa"/><g id="n"><use transform="matrix(0.03703703703703704,0,0,0.03703703703703704,0,0)" xlink:href="#aa"/><use transform="matrix(0.03703703703703704,0,0,0.03703703703703704,11.074074074074076,0)" xlink:href="#K"/><use transform="matrix(0.03703703703703704,0,0,0.03703703703703704,18.481481481481485,0)" xlink:href="#B"/></g><g id="o"><use transform="matrix(0.03703703703703704,0,0,0.03703703703703704,0,0)" xlink:href="#aa"/><use transform="matrix(0.03703703703703704,0,0,0.03703703703703704,11.074074074074076,0)" xlink:href="#D"/><use transform="matrix(0.03703703703703704,0,0,0.03703703703703704,18.481481481481485,0)" xlink:href="#N"/><use transform="matrix(0.03703703703703704,0,0,0.03703703703703704,25.888888888888893,0)" xlink:href="#W"/><use transform="matrix(0.03703703703703704,0,0,0.03703703703703704,33.296296296296305,0)" xlink:href="#H"/><use transform="matrix(0.03703703703703704,0,0,0.03703703703703704,36.22222222222223,0)" xlink:href="#I"/></g><g id="p"><use transform="matrix(0.03703703703703704,0,0,0.03703703703703704,0,0)" xlink:href="#E"/><use transform="matrix(0.03703703703703704,0,0,0.03703703703703704,7.407407407407408,0)" xlink:href="#I"/><use transform="matrix(0.03703703703703704,0,0,0.03703703703703704,14.814814814814817,0)" xlink:href="#K"/><use transform="matrix(0.03703703703703704,0,0,0.03703703703703704,22.222222222222225,0)" xlink:href="#G"/></g><g id="q"><use transform="matrix(0.03703703703703704,0,0,0.03703703703703704,0,0)" xlink:href="#aa"/><use transform="matrix(0.03703703703703704,0,0,0.03703703703703704,11.074074074074076,0)" xlink:href="#K"/><use transform="matrix(0.03703703703703704,0,0,0.03703703703703704,18.481481481481485,0)" xlink:href="#B"/></g><path d="M63-220v92h138v28H63V0H30v-248h175v28H63" id="ab"/><g id="r"><use transform="matrix(0.03703703703703704,0,0,0.03703703703703704,0,0)" xlink:href="#ab"/><use transform="matrix(0.03703703703703704,0,0,0.03703703703703704,8.111111111111112,0)" xlink:href="#U"/><use transform="matrix(0.03703703703703704,0,0,0.03703703703703704,11.037037037037038,0)" xlink:href="#G"/><use transform="matrix(0.03703703703703704,0,0,0.03703703703703704,15.444444444444446,0)" xlink:href="#I"/><use transform="matrix(0.03703703703703704,0,0,0.03703703703703704,22.851851851851855,0)" xlink:href="#P"/><use transform="matrix(0.03703703703703704,0,0,0.03703703703703704,30.259259259259263,0)" xlink:href="#K"/><use transform="matrix(0.03703703703703704,0,0,0.03703703703703704,37.66666666666667,0)" xlink:href="#X"/><use transform="matrix(0.03703703703703704,0,0,0.03703703703703704,44.333333333333336,0)" xlink:href="#I"/><path d="M-.67.92H52.4v.98H-.67z"/></g><g id="s"><use transform="matrix(0.03703703703703704,0,0,0.03703703703703704,0,0)" xlink:href="#K"/><use transform="matrix(0.03703703703703704,0,0,0.03703703703703704,7.407407407407408,0)" xlink:href="#X"/><use transform="matrix(0.03703703703703704,0,0,0.03703703703703704,14.074074074074076,0)" xlink:href="#X"/><use transform="matrix(0.03703703703703704,0,0,0.03703703703703704,20.740740740740744,0)" xlink:href="#I"/><use transform="matrix(0.03703703703703704,0,0,0.03703703703703704,28.148148148148152,0)" xlink:href="#G"/><use transform="matrix(0.03703703703703704,0,0,0.03703703703703704,32.55555555555556,0)" xlink:href="#F"/></g><path d="M177-190C167-65 218 103 67 71c-23-6-38-20-44-43l32-5c15 47 100 32 89-28v-30C133-14 115 1 83 1 29 1 15-40 15-95c0-56 16-97 71-98 29-1 48 16 59 35 1-10 0-23 2-32h30zM94-22c36 0 50-32 50-73 0-42-14-75-50-75-39 0-46 34-46 75s6 73 46 73" id="ac"/><path d="M30 0v-248h33v221h125V0H30" id="ad"/><path d="M179-190L93 31C79 59 56 82 12 73V49c39 6 53-20 64-50L1-190h34L92-34l54-156h33" id="ae"/><path d="M106-169C34-169 62-67 57 0H25v-261h32l-1 103c12-21 28-36 61-36 89 0 53 116 60 194h-32v-121c2-32-8-49-39-48" id="af"/><path d="M87 75C49 33 22-17 22-94c0-76 28-126 65-167h31c-38 41-64 92-64 168S80 34 118 75H87" id="ag"/><path d="M33-261c38 41 65 92 65 168S71 34 33 75H2C39 34 66-17 66-93S39-220 2-261h31" id="ah"/><g id="t"><use transform="matrix(0.03703703703703704,0,0,0.03703703703703704,0,0)" xlink:href="#ac"/><use transform="matrix(0.03703703703703704,0,0,0.03703703703703704,7.407407407407408,0)" xlink:href="#I"/><use transform="matrix(0.03703703703703704,0,0,0.03703703703703704,14.814814814814817,0)" xlink:href="#F"/><use transform="matrix(0.03703703703703704,0,0,0.03703703703703704,18.51851851851852,0)" xlink:href="#ad"/><use transform="matrix(0.03703703703703704,0,0,0.03703703703703704,25.92592592592593,0)" xlink:href="#D"/><use transform="matrix(0.03703703703703704,0,0,0.03703703703703704,33.333333333333336,0)" xlink:href="#L"/><use transform="matrix(0.03703703703703704,0,0,0.03703703703703704,40,0)" xlink:href="#K"/><use transform="matrix(0.03703703703703704,0,0,0.03703703703703704,47.407407407407405,0)" xlink:href="#F"/><use transform="matrix(0.03703703703703704,0,0,0.03703703703703704,51.11111111111111,0)" xlink:href="#U"/><use transform="matrix(0.03703703703703704,0,0,0.03703703703703704,54.037037037037024,0)" xlink:href="#D"/><use transform="matrix(0.03703703703703704,0,0,0.03703703703703704,61.44444444444444,0)" xlink:href="#E"/><use transform="matrix(0.03703703703703704,0,0,0.03703703703703704,68.85185185185185,0)" xlink:href="#J"/><use transform="matrix(0.03703703703703704,0,0,0.03703703703703704,77.74074074074073,0)" xlink:href="#ae"/><use transform="matrix(0.03703703703703704,0,0,0.03703703703703704,84.4074074074074,0)" xlink:href="#R"/><use transform="matrix(0.03703703703703704,0,0,0.03703703703703704,93.29629629629629,0)" xlink:href="#af"/><use transform="matrix(0.03703703703703704,0,0,0.03703703703703704,100.7037037037037,0)" xlink:href="#D"/><use transform="matrix(0.03703703703703704,0,0,0.03703703703703704,108.11111111111109,0)" xlink:href="#E"/><use transform="matrix(0.03703703703703704,0,0,0.03703703703703704,115.5185185185185,0)" xlink:href="#I"/><use transform="matrix(0.03703703703703704,0,0,0.03703703703703704,122.92592592592591,0)" xlink:href="#ag"/><use transform="matrix(0.03703703703703704,0,0,0.03703703703703704,127.33333333333331,0)" xlink:href="#ah"/></g><g id="u"><use transform="matrix(0.03703703703703704,0,0,0.03703703703703704,0,0)" xlink:href="#aa"/><use transform="matrix(0.03703703703703704,0,0,0.03703703703703704,11.074074074074076,0)" xlink:href="#K"/><use transform="matrix(0.03703703703703704,0,0,0.03703703703703704,18.481481481481485,0)" xlink:href="#B"/></g><g id="v"><use transform="matrix(0.03703703703703704,0,0,0.03703703703703704,0,0)" xlink:href="#L"/><use transform="matrix(0.03703703703703704,0,0,0.03703703703703704,6.666666666666668,0)" xlink:href="#K"/><use transform="matrix(0.03703703703703704,0,0,0.03703703703703704,14.074074074074076,0)" xlink:href="#G"/></g><g id="w"><use transform="matrix(0.03703703703703704,0,0,0.03703703703703704,0,0)" xlink:href="#aa"/><use transform="matrix(0.03703703703703704,0,0,0.03703703703703704,11.074074074074076,0)" xlink:href="#K"/><use transform="matrix(0.03703703703703704,0,0,0.03703703703703704,18.481481481481485,0)" xlink:href="#B"/></g><g id="x"><use transform="matrix(0.03703703703703704,0,0,0.03703703703703704,0,0)" xlink:href="#V"/><use transform="matrix(0.03703703703703704,0,0,0.03703703703703704,9.592592592592593,0)" xlink:href="#U"/><use transform="matrix(0.03703703703703704,0,0,0.03703703703703704,12.518518518518517,0)" xlink:href="#F"/><use transform="matrix(0.03703703703703704,0,0,0.03703703703703704,16.22222222222222,0)" xlink:href="#af"/></g><g id="y"><use transform="matrix(0.03703703703703704,0,0,0.03703703703703704,0,0)" xlink:href="#H"/><use transform="matrix(0.03703703703703704,0,0,0.03703703703703704,2.9259259259259265,0)" xlink:href="#D"/><use transform="matrix(0.03703703703703704,0,0,0.03703703703703704,10.333333333333334,0)" xlink:href="#L"/><use transform="matrix(0.03703703703703704,0,0,0.03703703703703704,17.000000000000004,0)" xlink:href="#K"/><use transform="matrix(0.03703703703703704,0,0,0.03703703703703704,24.407407407407412,0)" xlink:href="#F"/><use transform="matrix(0.03703703703703704,0,0,0.03703703703703704,28.111111111111114,0)" xlink:href="#U"/><use transform="matrix(0.03703703703703704,0,0,0.03703703703703704,31.03703703703704,0)" xlink:href="#D"/><use transform="matrix(0.03703703703703704,0,0,0.03703703703703704,38.44444444444445,0)" xlink:href="#E"/></g><g id="z"><use transform="matrix(0.03703703703703704,0,0,0.03703703703703704,0,0)" xlink:href="#L"/><use transform="matrix(0.03703703703703704,0,0,0.03703703703703704,6.666666666666668,0)" xlink:href="#K"/><use transform="matrix(0.03703703703703704,0,0,0.03703703703703704,14.074074074074076,0)" xlink:href="#G"/><use transform="matrix(0.03703703703703704,0,0,0.03703703703703704,18.481481481481485,0)" xlink:href="#C"/><use transform="matrix(0.03703703703703704,0,0,0.03703703703703704,28.074074074074076,0)" xlink:href="#D"/><use transform="matrix(0.03703703703703704,0,0,0.03703703703703704,35.48148148148148,0)" xlink:href="#D"/><use transform="matrix(0.03703703703703704,0,0,0.03703703703703704,42.888888888888886,0)" xlink:href="#G"/><use transform="matrix(0.03703703703703704,0,0,0.03703703703703704,47.2962962962963,0)" xlink:href="#N"/><use transform="matrix(0.03703703703703704,0,0,0.03703703703703704,54.703703703703695,0)" xlink:href="#U"/><use transform="matrix(0.03703703703703704,0,0,0.03703703703703704,57.62962962962962,0)" xlink:href="#E"/><use transform="matrix(0.03703703703703704,0,0,0.03703703703703704,65.03703703703702,0)" xlink:href="#K"/><use transform="matrix(0.03703703703703704,0,0,0.03703703703703704,72.44444444444443,0)" xlink:href="#F"/><use transform="matrix(0.03703703703703704,0,0,0.03703703703703704,76.14814814814814,0)" xlink:href="#I"/><use transform="matrix(0.03703703703703704,0,0,0.03703703703703704,83.55555555555554,0)" xlink:href="#X"/><use transform="matrix(0.03703703703703704,0,0,0.03703703703703704,90.22222222222221,0)" xlink:href="#ag"/><use transform="matrix(0.03703703703703704,0,0,0.03703703703703704,94.62962962962962,0)" xlink:href="#ah"/></g></defs></g></svg>