<svg xmlns="http://www.w3.org/2000/svg" xmlns:xlink="http://www.w3.org/1999/xlink" xmlns:lucid="lucid" width="1208" height="911"><g transform="translate(-12 560)" lucid:page-tab-id="0_0"><path d="M167.25-532.75c0 4-3.25 7.25-7.25 7.25s-7.25-3.25-7.25-7.25S156-540 160-540s7.25 3.25 7.25 7.25z" stroke="#000" stroke-width="2" fill="#fff"/><path d="M140-535c0-2.76 2.24-5 5-5h30c2.76 0 5 2.24 5 5v48c0 2.76-2.24 5-5 5h-30c-2.76 0-5-2.24-5-5z" fill="none"/><path d="M160-525.5v15.3c0 2.76 1.46 6.7 3.26 8.8L180-482m-20-23.2L140-482m0-36.25h40" stroke="#000" stroke-width="2" fill="none"/><path d="M160-460v800" fill="none"/><path d="M160-460v9.88m0 9.87v19.76m0 9.88v19.76m0 9.87v19.77m0 9.87v19.76m0 9.87v19.75m0 9.88v19.75m0 9.88v19.75m0 9.88v19.75m0 9.9v19.74m0 9.88v19.75m0 9.88v19.75m0 9.88v19.75m0 9.88v19.76m0 9.88v19.75m0 9.87v19.75m0 9.88v19.75m0 9.88v19.75m0 9.88V83.2m0 9.9v19.74m0 9.88v19.75m0 9.88v19.75m0 9.88v19.75m0 9.87v19.76m0 9.87V261m0 9.86v19.76m0 9.87v19.75m0 9.87V340" stroke="#000" stroke-width="2" fill="none"/><path d="M161-460h-2v-3h2z"/><path d="M320-535c0-2.76 2.24-5 5-5h150c2.76 0 5 2.24 5 5v50c0 2.76-2.24 5-5 5H325c-2.76 0-5-2.24-5-5z" stroke="#000" stroke-width="2" fill="#fff"/><use xlink:href="#a" transform="matrix(1,0,0,1,320,-540) translate(53.37537037037037 33.16666666666667)"/><path d="M560-535c0-2.76 2.24-5 5-5h150c2.76 0 5 2.24 5 5v50c0 2.76-2.24 5-5 5H565c-2.76 0-5-2.24-5-5z" stroke="#000" stroke-width="2" fill="#fff"/><use xlink:href="#b" transform="matrix(1,0,0,1,560,-540) translate(54.07907407407408 33.16666666666667)"/><path d="M800-535c0-2.76 2.24-5 5-5h150c2.76 0 5 2.24 5 5v50c0 2.76-2.24 5-5 5H805c-2.76 0-5-2.24-5-5z" stroke="#000" stroke-width="2" fill="#fff"/><use xlink:href="#c" transform="matrix(1,0,0,1,799.9999999999998,-540) translate(54.13462962962962 33.16666666666667)"/><path d="M400-479v759" fill="none"/><path d="M400-479v10.12m0 10.12v20.24m0 10.12v20.24m0 10.12v20.24m0 10.12v20.24m0 10.12v20.24m0 10.12v20.24m0 10.12v20.24m0 10.12V-226m0 10.12v20.24m0 10.12v20.24m0 10.12v20.24m0 10.12v20.24m0 10.12v20.24m0 10.12v20.24m0 10.12v20.24m0 10.12v20.24M400 27v20.24m0 10.12V77.6m0 10.12v20.24m0 10.12v20.24m0 10.12v20.24m0 10.12v20.24m0 10.12v20.24m0 10.12v20.24m0 10.12V280" stroke="#000" stroke-width="2" fill="none"/><path d="M401-479h-2v-1h2z"/><path d="M640-479v719" fill="none"/><path d="M640-479v10m0 9.97v19.97m0 10v19.96m0 10v19.96m0 10v19.96m0 10v19.96m0 9.98v19.98m0 9.98v19.97m0 9.98v19.97m0 10v19.96m0 10v19.97m0 10v19.96m0 9.98v20m0 9.97v19.97m0 10v19.96m0 10v19.96m0 10V10.3m0 10v19.96m0 9.98v19.98m0 9.98v19.97m0 9.98v19.97m0 10v19.96m0 10v19.97m0 10v19.96m0 9.98v10" stroke="#000" stroke-width="2" fill="none"/><path d="M641-479h-2v-1h2z"/><path d="M880-479v719" fill="none"/><path d="M880-479v10m0 9.97v19.97m0 10v19.96m0 10v19.96m0 10v19.96m0 10v19.96m0 9.98v19.98m0 9.98v19.97m0 9.98v19.97m0 10v19.96m0 10v19.97m0 10v19.96m0 9.98v20m0 9.97v19.97m0 10v19.96m0 10v19.96m0 10V10.3m0 10v19.96m0 9.98v19.98m0 9.98v19.97m0 9.98v19.97m0 10v19.96m0 10v19.97m0 10v19.96m0 9.98v10" stroke="#000" stroke-width="2" fill="none"/><path d="M881-479h-2v-1h2z"/><path d="M157.93-420c0-1.14.93-2.07 2.07-2.07 1.14 0 2.07.93 2.07 2.07h199.7" stroke="#000" stroke-width="2" fill="none"/><path d="M376.76-420l-14.26 4.64v-9.28z" stroke="#000" stroke-width="2"/><use xlink:href="#d" transform="matrix(1,0,0,1,209.7598971528754,-440) translate(0 10.666666666666668)"/><use xlink:href="#e" transform="matrix(1,0,0,1,209.7598971528754,-440) translate(29.555555555555564 10.666666666666668)"/><use xlink:href="#f" transform="matrix(1,0,0,1,209.7598971528754,-440) translate(64.37037037037038 10.666666666666668)"/><path d="M380-415c0-2.76 2.24-5 5-5h30c2.76 0 5 2.24 5 5v650c0 2.76-2.24 5-5 5h-30c-2.76 0-5-2.24-5-5zM620-315c0-2.76 2.24-5 5-5h30c2.76 0 5 2.24 5 5v510c0 2.76-2.24 5-5 5h-30c-2.76 0-5-2.24-5-5z" stroke="#000" stroke-width="2" fill="#fff"/><path d="M178.24-380H380" fill="none"/><path d="M178.24-380h3.02m4.04 0h6.05m4.04 0h6.04m4.03 0h6.06m4.03 0h6.06m4.03 0h6.05m4.04 0h6.05m4.03 0h6.05m4.04 0h6.05m4.03 0h6.06m4.03 0h6.04m4.04 0h6.05m4.04 0h6.05m4.04 0h6.05m4.04 0h6.06m4.03 0h6.06m4.02 0h6.05m4.04 0h6.06m4.04 0h6.05m4.04 0h6.04m4.03 0H380" stroke="#000" stroke-width="2" fill="none"/><path d="M163.24-380l14.26-4.64v9.28z" stroke="#000" stroke-width="2"/><use xlink:href="#g" transform="matrix(1,0,0,1,208.24074074074073,-400.00000000000006) translate(0 10.666666666666668)"/><use xlink:href="#h" transform="matrix(1,0,0,1,208.24074074074073,-400.00000000000006) translate(34.77777777777778 10.666666666666668)"/><use xlink:href="#i" transform="matrix(1,0,0,1,208.24074074074073,-400.00000000000006) translate(92.51851851851852 10.666666666666668)"/><path d="M160-340h200.76" stroke="#000" stroke-width="2" fill="none"/><path d="M375.76-340l-14.26 4.64v-9.28z"/><path d="M379-340l-18.5 6v-12zm-16.5 3.26l10.03-3.26-10.03-3.26z"/><use xlink:href="#j" transform="matrix(1,0,0,1,217.3148148148148,-360) translate(0 10.666666666666668)"/><use xlink:href="#k" transform="matrix(1,0,0,1,217.3148148148148,-360) translate(57.74074074074074 10.666666666666668)"/><path d="M340-295c0-2.76 2.24-5 5-5h90c2.76 0 5 2.24 5 5v10c0 2.76-1.58 6.58-3.54 8.54l-2.92 2.92c-1.96 1.96-5.78 3.54-8.54 3.54h-80c-2.76 0-5-2.24-5-5z" fill="#fff"/><path d="M340-295c0-2.76 2.24-5 5-5h100c2.76 0 5 2.24 5 5v130c0 2.76-2.24 5-5 5H345c-2.76 0-5-2.24-5-5z" stroke="#000" stroke-width="2" fill="none"/><path d="M440-300v20l-10 10h-90" stroke="#000" stroke-width="2" fill="#fff"/><use xlink:href="#l" transform="matrix(1,0,0,1,348,-300) translate(0 17.666666666666668)"/><path d="M421-240h59v40h-40.76" stroke="#000" stroke-width="2" fill="none"/><path d="M424.24-200l14.26-4.64v9.28z" stroke="#000" stroke-width="2"/><use xlink:href="#m" transform="matrix(1,0,0,1,488.00000000000006,-227.9999999999999) translate(0 10.666666666666668)"/><path d="M32-135c0-2.76 2.24-5 5-5h90c2.76 0 5 2.24 5 5v10c0 2.76-1.58 6.58-3.54 8.54l-2.92 2.92c-1.96 1.96-5.78 3.54-8.54 3.54H37c-2.76 0-5-2.24-5-5z" fill="#fff"/><path d="M132-140v20l-10 10H32" stroke="#000" stroke-width="2" fill="none"/><path d="M32-135c0-2.76 2.24-5 5-5h1138c2.76 0 5 2.24 5 5v430c0 2.76-2.24 5-5 5H37c-2.76 0-5-2.24-5-5zM32-25h20m15 0h20m15 0h20m15 0h20m15 0h20m15 0h20m15 0h20m15 0h20m15 0h20m15 0h20m15 0h20m15 0h20m15 0h20m15 0h20m15 0h20m15 0h20m15 0h20m15 0h20m15 0h20m15 0h20m15 0h20m15 0h20m15 0h20m15 0h20m15 0h20m15 0h20m15 0h20m15 0h20m15 0h20m15 0h20m15 0h20m15 0h20m15 0h20" stroke="#000" stroke-width="2" fill="none"/><use xlink:href="#n" transform="matrix(1,0,0,1,40,-140) translate(0 17.666666666666668)"/><use xlink:href="#o" transform="matrix(1,0,0,1,44,-102) translate(0 10.666666666666668)"/><use xlink:href="#p" transform="matrix(1,0,0,1,44,-102) translate(24.407407407407405 10.666666666666668)"/><use xlink:href="#q" transform="matrix(1,0,0,1,44,-102) translate(41.370370370370374 10.666666666666668)"/><use xlink:href="#r" transform="matrix(1,0,0,1,44,-102) translate(0 26.666666666666668)"/><use xlink:href="#s" transform="matrix(1,0,0,1,44,-17) translate(0 17.666666666666668)"/><path d="M377.75-62h-199.5" fill="none"/><path d="M377.75-62h-3m-4 0h-5.97m-4 0h-5.98m-4 0h-5.97m-4 0h-5.98m-4 0h-5.97m-4 0h-5.98m-4 0h-5.98m-4 0h-5.97m-4 0h-5.98m-4 0H275m-4 0h-5.98m-4 0h-5.97m-4 0h-5.98m-4 0h-5.97m-4 0h-5.98m-4 0h-5.97m-4 0h-5.98m-4 0h-5.98m-4 0h-5.98m-4 0h-2.98" stroke="#000" stroke-width="2" fill="none"/><path d="M163.24-62l14.26-4.64v9.28z" stroke="#000" stroke-width="2"/><use xlink:href="#t" transform="matrix(1,0,0,1,185.00248677248703,-82.00000000000006) translate(0 10.666666666666668)"/><use xlink:href="#u" transform="matrix(1,0,0,1,185.00248677248703,-82.00000000000006) translate(35.44444444444445 10.666666666666668)"/><use xlink:href="#v" transform="matrix(1,0,0,1,185.00248677248703,-82.00000000000006) translate(84.22222222222223 10.666666666666668)"/><use xlink:href="#w" transform="matrix(1,0,0,1,185.00248677248703,-82.00000000000006) translate(136.70370370370372 10.666666666666668)"/><path d="M421 40h179.76" stroke="#000" stroke-width="2" fill="none"/><path d="M421 41h-1v-2h1zM615.76 40l-14.26 4.64v-9.28z"/><path d="M619 40l-18.5 6V34zm-16.5 3.26L612.53 40l-10.03-3.26z"/><use xlink:href="#x" transform="matrix(1,0,0,1,468.20370370370347,20) translate(0 10.666666666666668)"/><use xlink:href="#k" transform="matrix(1,0,0,1,468.20370370370347,20) translate(56.96296296296297 10.666666666666668)"/><path d="M1040-535c0-2.76 2.24-5 5-5h150c2.76 0 5 2.24 5 5v50c0 2.76-2.24 5-5 5h-150c-2.76 0-5-2.24-5-5z" stroke="#000" stroke-width="2" fill="#fff"/><use xlink:href="#y" transform="matrix(1,0,0,1,1040,-540) translate(65.96796296296297 33.16666666666667)"/><path d="M1120-479v619" fill="none"/><path d="M1120-479v9.83m0 9.82v19.65m0 9.83v19.65m0 9.82v19.65m0 9.83v19.65m0 9.83v19.65m0 9.83v19.65m0 9.83v19.66m0 9.82v19.65m0 9.83v19.65m0 9.84v19.65m0 9.8v19.66m0 9.83v19.64m0 9.83v19.65m0 9.82v19.65m0 9.82v19.65m0 9.82V2.43m0 9.83v19.65m0 9.83V61.4m0 9.82v19.65m0 9.83v19.65m0 9.82V140" stroke="#000" stroke-width="2" fill="none"/><path d="M1121-479h-2v-1h2z"/><path d="M860 165c0-2.76 2.24-5 5-5h30c2.76 0 5 2.24 5 5v30c0 2.76-2.24 5-5 5h-30c-2.76 0-5-2.24-5-5z" stroke="#000" stroke-width="2" fill="#fff"/><path d="M662.4 160h181.44" stroke="#000" stroke-width="2" fill="none"/><path d="M858.84 160l-14.27 4.64v-9.28z"/><path d="M862.07 160l-18.5 6v-12zm-16.5 3.26L855.6 160l-10.03-3.26z"/><use xlink:href="#z" transform="matrix(1,0,0,1,714.7937432520814,139.99999999999997) translate(0 10.666666666666668)"/><use xlink:href="#A" transform="matrix(1,0,0,1,714.7937432520814,139.99999999999997) translate(33.2962962962963 10.666666666666668)"/><use xlink:href="#B" transform="matrix(1,0,0,1,714.7937432520814,139.99999999999997) translate(65.14814814814815 10.666666666666668)"/><path d="M439.24 139.3H619" stroke="#000" stroke-width="2" fill="none"/><path d="M438.5 143.92l-14.26-4.63 14.26-4.65z"/><path d="M439.5 145.3l-18.5-6 18.5-6.02zm-12.03-6l10.03 3.25v-6.52zM620 140.3h-1v-2h1z"/><g><use xlink:href="#C" transform="matrix(1,0,0,1,478.5370370370372,119.28775782834913) translate(0 10.666666666666668)"/><use xlink:href="#D" transform="matrix(1,0,0,1,478.5370370370372,119.28775782834913) translate(57.74074074074074 10.666666666666668)"/></g><path d="M178.24 196.45H379" stroke="#000" stroke-width="2" fill="none"/><path d="M163.24 196.45l14.26-4.64v9.28z" stroke="#000" stroke-width="2"/><path d="M380 197.45h-1v-2h1z"/><g><use xlink:href="#E" transform="matrix(1,0,0,1,202.1111111111111,176.44545537171052) translate(0 10.666666666666668)"/><use xlink:href="#F" transform="matrix(1,0,0,1,202.1111111111111,176.44545537171052) translate(51.85185185185187 10.666666666666668)"/><use xlink:href="#D" transform="matrix(1,0,0,1,202.1111111111111,176.44545537171052) translate(109.59259259259261 10.666666666666668)"/></g><path d="M660 100h215c0-2.76 2.24-5 5-5s5 2.24 5 5h216.76" stroke="#000" stroke-width="2" fill="none"/><path d="M1116.76 100l-14.26 4.64v-9.28z" stroke="#000" stroke-width="2"/><g><use xlink:href="#G" transform="matrix(1,0,0,1,862.9814814814815,80) translate(0 10.666666666666668)"/></g><defs><path d="M63-220v92h138v28H63V0H30v-248h175v28H63" id="H"/><path d="M114-163C36-179 61-72 57 0H25l-1-190h30c1 12-1 29 2 39 6-27 23-49 58-41v29" id="I"/><path d="M100-194c62-1 85 37 85 99 1 63-27 99-86 99S16-35 15-95c0-66 28-99 85-99zM99-20c44 1 53-31 53-75 0-43-8-75-51-75s-53 32-53 75 10 74 51 75" id="J"/><path d="M117-194c89-4 53 116 60 194h-32v-121c0-31-8-49-39-48C34-167 62-67 57 0H25l-1-190h30c1 10-1 24 2 32 11-22 29-35 61-36" id="K"/><path d="M59-47c-2 24 18 29 38 22v24C64 9 27 4 27-40v-127H5v-23h24l9-43h21v43h35v23H59v120" id="L"/><path d="M100-194c63 0 86 42 84 106H49c0 40 14 67 53 68 26 1 43-12 49-29l28 8c-11 28-37 45-77 45C44 4 14-33 15-96c1-61 26-98 85-98zm52 81c6-60-76-77-97-28-3 7-6 17-6 28h103" id="M"/><path d="M85-194c31 0 48 13 60 33l-1-100h32l1 261h-30c-2-10 0-23-3-31C134-8 116 4 85 4 32 4 16-35 15-94c0-66 23-100 70-100zm9 24c-40 0-46 34-46 75 0 40 6 74 45 74 42 0 51-32 51-76 0-42-9-74-50-73" id="N"/><g id="a"><use transform="matrix(0.03703703703703704,0,0,0.03703703703703704,0,0)" xlink:href="#H"/><use transform="matrix(0.03703703703703704,0,0,0.03703703703703704,8.111111111111112,0)" xlink:href="#I"/><use transform="matrix(0.03703703703703704,0,0,0.03703703703703704,12.51851851851852,0)" xlink:href="#J"/><use transform="matrix(0.03703703703703704,0,0,0.03703703703703704,19.925925925925934,0)" xlink:href="#K"/><use transform="matrix(0.03703703703703704,0,0,0.03703703703703704,27.333333333333343,0)" xlink:href="#L"/><use transform="matrix(0.03703703703703704,0,0,0.03703703703703704,31.037037037037045,0)" xlink:href="#M"/><use transform="matrix(0.03703703703703704,0,0,0.03703703703703704,38.44444444444446,0)" xlink:href="#K"/><use transform="matrix(0.03703703703703704,0,0,0.03703703703703704,45.851851851851855,0)" xlink:href="#N"/><path d="M-.67.92h54.6v.98H-.68z"/></g><path d="M160-131c35 5 61 23 61 61C221 17 115-2 30 0v-248c76 3 177-17 177 60 0 33-19 50-47 57zm-97-11c50-1 110 9 110-42 0-47-63-36-110-37v79zm0 115c55-2 124 14 124-45 0-56-70-42-124-44v89" id="O"/><path d="M141-36C126-15 110 5 73 4 37 3 15-17 15-53c-1-64 63-63 125-63 3-35-9-54-41-54-24 1-41 7-42 31l-33-3c5-37 33-52 76-52 45 0 72 20 72 64v82c-1 20 7 32 28 27v20c-31 9-61-2-59-35zM48-53c0 20 12 33 32 33 41-3 63-29 60-74-43 2-92-5-92 41" id="P"/><path d="M96-169c-40 0-48 33-48 73s9 75 48 75c24 0 41-14 43-38l32 2c-6 37-31 61-74 61-59 0-76-41-82-99-10-93 101-131 147-64 4 7 5 14 7 22l-32 3c-4-21-16-35-41-35" id="Q"/><path d="M143 0L79-87 56-68V0H24v-261h32v163l83-92h37l-77 82L181 0h-38" id="R"/><g id="b"><use transform="matrix(0.03703703703703704,0,0,0.03703703703703704,0,0)" xlink:href="#O"/><use transform="matrix(0.03703703703703704,0,0,0.03703703703703704,8.88888888888889,0)" xlink:href="#P"/><use transform="matrix(0.03703703703703704,0,0,0.03703703703703704,16.296296296296298,0)" xlink:href="#Q"/><use transform="matrix(0.03703703703703704,0,0,0.03703703703703704,22.962962962962965,0)" xlink:href="#R"/><use transform="matrix(0.03703703703703704,0,0,0.03703703703703704,29.629629629629633,0)" xlink:href="#M"/><use transform="matrix(0.03703703703703704,0,0,0.03703703703703704,37.03703703703704,0)" xlink:href="#K"/><use transform="matrix(0.03703703703703704,0,0,0.03703703703703704,44.44444444444444,0)" xlink:href="#N"/><path d="M-.67.92h53.2v.98H-.68z"/></g><path d="M24-231v-30h32v30H24zM24 0v-190h32V0H24" id="S"/><path d="M115-194c53 0 69 39 70 98 0 66-23 100-70 100C84 3 66-7 56-30L54 0H23l1-261h32v101c10-23 28-34 59-34zm-8 174c40 0 45-34 45-75 0-40-5-75-45-74-42 0-51 32-51 76 0 43 10 73 51 73" id="T"/><path d="M135-143c-3-34-86-38-87 0 15 53 115 12 119 90S17 21 10-45l28-5c4 36 97 45 98 0-10-56-113-15-118-90-4-57 82-63 122-42 12 7 21 19 24 35" id="U"/><g id="c"><use transform="matrix(0.03703703703703704,0,0,0.03703703703703704,0,0)" xlink:href="#H"/><use transform="matrix(0.03703703703703704,0,0,0.03703703703703704,8.111111111111112,0)" xlink:href="#S"/><use transform="matrix(0.03703703703703704,0,0,0.03703703703703704,11.037037037037038,0)" xlink:href="#I"/><use transform="matrix(0.03703703703703704,0,0,0.03703703703703704,15.444444444444446,0)" xlink:href="#M"/><use transform="matrix(0.03703703703703704,0,0,0.03703703703703704,22.851851851851855,0)" xlink:href="#T"/><use transform="matrix(0.03703703703703704,0,0,0.03703703703703704,30.259259259259263,0)" xlink:href="#P"/><use transform="matrix(0.03703703703703704,0,0,0.03703703703703704,37.66666666666667,0)" xlink:href="#U"/><use transform="matrix(0.03703703703703704,0,0,0.03703703703703704,44.333333333333336,0)" xlink:href="#M"/><path d="M-.67.92H52.4v.98H-.67z"/></g><path d="M24 0v-261h32V0H24" id="V"/><g id="d"><use transform="matrix(0.03703703703703704,0,0,0.03703703703703704,0,0)" xlink:href="#Q"/><use transform="matrix(0.03703703703703704,0,0,0.03703703703703704,6.666666666666668,0)" xlink:href="#V"/><use transform="matrix(0.03703703703703704,0,0,0.03703703703703704,9.592592592592595,0)" xlink:href="#S"/><use transform="matrix(0.03703703703703704,0,0,0.03703703703703704,12.518518518518523,0)" xlink:href="#Q"/><use transform="matrix(0.03703703703703704,0,0,0.03703703703703704,19.18518518518519,0)" xlink:href="#R"/></g><path d="M185-189c-5-48-123-54-124 2 14 75 158 14 163 119 3 78-121 87-175 55-17-10-28-26-33-46l33-7c5 56 141 63 141-1 0-78-155-14-162-118-5-82 145-84 179-34 5 7 8 16 11 25" id="W"/><g id="e"><use transform="matrix(0.03703703703703704,0,0,0.03703703703703704,0,0)" xlink:href="#W"/><use transform="matrix(0.03703703703703704,0,0,0.03703703703703704,8.88888888888889,0)" xlink:href="#M"/><use transform="matrix(0.03703703703703704,0,0,0.03703703703703704,16.296296296296298,0)" xlink:href="#K"/><use transform="matrix(0.03703703703703704,0,0,0.03703703703703704,23.703703703703706,0)" xlink:href="#N"/></g><path d="M240 0l2-218c-23 76-54 145-80 218h-23L58-218 59 0H30v-248h44l77 211c21-75 51-140 76-211h43V0h-30" id="X"/><path d="M177-190C167-65 218 103 67 71c-23-6-38-20-44-43l32-5c15 47 100 32 89-28v-30C133-14 115 1 83 1 29 1 15-40 15-95c0-56 16-97 71-98 29-1 48 16 59 35 1-10 0-23 2-32h30zM94-22c36 0 50-32 50-73 0-42-14-75-50-75-39 0-46 34-46 75s6 73 46 73" id="Y"/><g id="f"><use transform="matrix(0.03703703703703704,0,0,0.03703703703703704,0,0)" xlink:href="#X"/><use transform="matrix(0.03703703703703704,0,0,0.03703703703703704,11.074074074074076,0)" xlink:href="#M"/><use transform="matrix(0.03703703703703704,0,0,0.03703703703703704,18.481481481481485,0)" xlink:href="#U"/><use transform="matrix(0.03703703703703704,0,0,0.03703703703703704,25.148148148148152,0)" xlink:href="#U"/><use transform="matrix(0.03703703703703704,0,0,0.03703703703703704,31.81481481481482,0)" xlink:href="#P"/><use transform="matrix(0.03703703703703704,0,0,0.03703703703703704,39.22222222222223,0)" xlink:href="#Y"/><use transform="matrix(0.03703703703703704,0,0,0.03703703703703704,46.62962962962963,0)" xlink:href="#M"/></g><path d="M106-169C34-169 62-67 57 0H25v-261h32l-1 103c12-21 28-36 61-36 89 0 53 116 60 194h-32v-121c2-32-8-49-39-48" id="Z"/><path d="M206 0h-36l-40-164L89 0H53L-1-190h32L70-26l43-164h34l41 164 42-164h31" id="aa"/><g id="g"><use transform="matrix(0.03703703703703704,0,0,0.03703703703703704,0,0)" xlink:href="#U"/><use transform="matrix(0.03703703703703704,0,0,0.03703703703703704,6.666666666666668,0)" xlink:href="#Z"/><use transform="matrix(0.03703703703703704,0,0,0.03703703703703704,14.074074074074076,0)" xlink:href="#J"/><use transform="matrix(0.03703703703703704,0,0,0.03703703703703704,21.481481481481485,0)" xlink:href="#aa"/></g><g id="h"><use transform="matrix(0.03703703703703704,0,0,0.03703703703703704,0,0)" xlink:href="#X"/><use transform="matrix(0.03703703703703704,0,0,0.03703703703703704,11.074074074074076,0)" xlink:href="#M"/><use transform="matrix(0.03703703703703704,0,0,0.03703703703703704,18.481481481481485,0)" xlink:href="#U"/><use transform="matrix(0.03703703703703704,0,0,0.03703703703703704,25.148148148148152,0)" xlink:href="#U"/><use transform="matrix(0.03703703703703704,0,0,0.03703703703703704,31.81481481481482,0)" xlink:href="#P"/><use transform="matrix(0.03703703703703704,0,0,0.03703703703703704,39.22222222222223,0)" xlink:href="#Y"/><use transform="matrix(0.03703703703703704,0,0,0.03703703703703704,46.62962962962963,0)" xlink:href="#M"/></g><path d="M210-169c-67 3-38 105-44 169h-31v-121c0-29-5-50-35-48C34-165 62-65 56 0H25l-1-190h30c1 10-1 24 2 32 10-44 99-50 107 0 11-21 27-35 58-36 85-2 47 119 55 194h-31v-121c0-29-5-49-35-48" id="ab"/><g id="i"><use transform="matrix(0.03703703703703704,0,0,0.03703703703703704,0,0)" xlink:href="#H"/><use transform="matrix(0.03703703703703704,0,0,0.03703703703703704,8.111111111111112,0)" xlink:href="#J"/><use transform="matrix(0.03703703703703704,0,0,0.03703703703703704,15.51851851851852,0)" xlink:href="#I"/><use transform="matrix(0.03703703703703704,0,0,0.03703703703703704,19.925925925925934,0)" xlink:href="#ab"/></g><g id="j"><use transform="matrix(0.03703703703703704,0,0,0.03703703703703704,0,0)" xlink:href="#X"/><use transform="matrix(0.03703703703703704,0,0,0.03703703703703704,11.074074074074076,0)" xlink:href="#M"/><use transform="matrix(0.03703703703703704,0,0,0.03703703703703704,18.481481481481485,0)" xlink:href="#U"/><use transform="matrix(0.03703703703703704,0,0,0.03703703703703704,25.148148148148152,0)" xlink:href="#U"/><use transform="matrix(0.03703703703703704,0,0,0.03703703703703704,31.81481481481482,0)" xlink:href="#P"/><use transform="matrix(0.03703703703703704,0,0,0.03703703703703704,39.22222222222223,0)" xlink:href="#Y"/><use transform="matrix(0.03703703703703704,0,0,0.03703703703703704,46.62962962962963,0)" xlink:href="#M"/></g><path d="M115-194c55 1 70 41 70 98S169 2 115 4C84 4 66-9 55-30l1 105H24l-1-265h31l2 30c10-21 28-34 59-34zm-8 174c40 0 45-34 45-75s-6-73-45-74c-42 0-51 32-51 76 0 43 10 73 51 73" id="ac"/><path d="M179-190L93 31C79 59 56 82 12 73V49c39 6 53-20 64-50L1-190h34L92-34l54-156h33" id="ad"/><g id="k"><use transform="matrix(0.03703703703703704,0,0,0.03703703703703704,0,0)" xlink:href="#ac"/><use transform="matrix(0.03703703703703704,0,0,0.03703703703703704,7.407407407407408,0)" xlink:href="#P"/><use transform="matrix(0.03703703703703704,0,0,0.03703703703703704,14.814814814814817,0)" xlink:href="#ad"/><use transform="matrix(0.03703703703703704,0,0,0.03703703703703704,21.481481481481485,0)" xlink:href="#V"/><use transform="matrix(0.03703703703703704,0,0,0.03703703703703704,24.407407407407412,0)" xlink:href="#J"/><use transform="matrix(0.03703703703703704,0,0,0.03703703703703704,31.81481481481482,0)" xlink:href="#P"/><use transform="matrix(0.03703703703703704,0,0,0.03703703703703704,39.22222222222223,0)" xlink:href="#N"/></g><g id="l"><use transform="matrix(0.03703703703703704,0,0,0.03703703703703704,0,0)" xlink:href="#P"/><use transform="matrix(0.03703703703703704,0,0,0.03703703703703704,7.407407407407408,0)" xlink:href="#U"/><use transform="matrix(0.03703703703703704,0,0,0.03703703703703704,14.074074074074076,0)" xlink:href="#U"/><use transform="matrix(0.03703703703703704,0,0,0.03703703703703704,20.740740740740744,0)" xlink:href="#M"/><use transform="matrix(0.03703703703703704,0,0,0.03703703703703704,28.148148148148152,0)" xlink:href="#I"/><use transform="matrix(0.03703703703703704,0,0,0.03703703703703704,32.55555555555556,0)" xlink:href="#L"/></g><path d="M205 0l-28-72H64L36 0H1l101-248h38L239 0h-34zm-38-99l-47-123c-12 45-31 82-46 123h93" id="ae"/><path d="M233-177c-1 41-23 64-60 70L243 0h-38l-65-103H63V0H30v-248c88 3 205-21 203 71zM63-129c60-2 137 13 137-47 0-61-80-42-137-45v92" id="af"/><path d="M145-31C134-9 116 4 85 4 32 4 16-35 15-94c0-59 17-99 70-100 32-1 48 14 60 33 0-11-1-24 2-32h30l-1 268h-32zM93-21c41 0 51-33 51-76s-8-73-50-73c-40 0-46 35-46 75s5 74 45 74" id="ag"/><path d="M84 4C-5 8 30-112 23-190h32v120c0 31 7 50 39 49 72-2 45-101 50-169h31l1 190h-30c-1-10 1-25-2-33-11 22-28 36-60 37" id="ah"/><path d="M87 75C49 33 22-17 22-94c0-76 28-126 65-167h31c-38 41-64 92-64 168S80 34 118 75H87" id="ai"/><path d="M33-261c38 41 65 92 65 168S71 34 33 75H2C39 34 66-17 66-93S39-220 2-261h31" id="aj"/><g id="m"><use transform="matrix(0.03703703703703704,0,0,0.03703703703703704,0,0)" xlink:href="#S"/><use transform="matrix(0.03703703703703704,0,0,0.03703703703703704,2.9259259259259265,0)" xlink:href="#U"/><use transform="matrix(0.03703703703703704,0,0,0.03703703703703704,9.592592592592595,0)" xlink:href="#ae"/><use transform="matrix(0.03703703703703704,0,0,0.03703703703703704,18.481481481481485,0)" xlink:href="#V"/><use transform="matrix(0.03703703703703704,0,0,0.03703703703703704,21.407407407407412,0)" xlink:href="#V"/><use transform="matrix(0.03703703703703704,0,0,0.03703703703703704,24.33333333333334,0)" xlink:href="#af"/><use transform="matrix(0.03703703703703704,0,0,0.03703703703703704,33.92592592592593,0)" xlink:href="#M"/><use transform="matrix(0.03703703703703704,0,0,0.03703703703703704,41.333333333333336,0)" xlink:href="#ag"/><use transform="matrix(0.03703703703703704,0,0,0.03703703703703704,48.74074074074075,0)" xlink:href="#ah"/><use transform="matrix(0.03703703703703704,0,0,0.03703703703703704,56.14814814814815,0)" xlink:href="#S"/><use transform="matrix(0.03703703703703704,0,0,0.03703703703703704,59.074074074074076,0)" xlink:href="#I"/><use transform="matrix(0.03703703703703704,0,0,0.03703703703703704,63.48148148148148,0)" xlink:href="#M"/><use transform="matrix(0.03703703703703704,0,0,0.03703703703703704,70.88888888888889,0)" xlink:href="#N"/><use transform="matrix(0.03703703703703704,0,0,0.03703703703703704,78.29629629629629,0)" xlink:href="#H"/><use transform="matrix(0.03703703703703704,0,0,0.03703703703703704,86.4074074074074,0)" xlink:href="#S"/><use transform="matrix(0.03703703703703704,0,0,0.03703703703703704,89.33333333333333,0)" xlink:href="#M"/><use transform="matrix(0.03703703703703704,0,0,0.03703703703703704,96.74074074074073,0)" xlink:href="#V"/><use transform="matrix(0.03703703703703704,0,0,0.03703703703703704,99.66666666666666,0)" xlink:href="#N"/><use transform="matrix(0.03703703703703704,0,0,0.03703703703703704,107.07407407407405,0)" xlink:href="#U"/><use transform="matrix(0.03703703703703704,0,0,0.03703703703703704,113.74074074074073,0)" xlink:href="#ai"/><use transform="matrix(0.03703703703703704,0,0,0.03703703703703704,118.14814814814812,0)" xlink:href="#aj"/></g><path d="M108 0H70L1-190h34L89-25l56-165h34" id="ak"/><g id="n"><use transform="matrix(0.03703703703703704,0,0,0.03703703703703704,0,0)" xlink:href="#ae"/><use transform="matrix(0.03703703703703704,0,0,0.03703703703703704,8.88888888888889,0)" xlink:href="#V"/><use transform="matrix(0.03703703703703704,0,0,0.03703703703703704,11.814814814814817,0)" xlink:href="#L"/><use transform="matrix(0.03703703703703704,0,0,0.03703703703703704,15.51851851851852,0)" xlink:href="#M"/><use transform="matrix(0.03703703703703704,0,0,0.03703703703703704,22.925925925925927,0)" xlink:href="#I"/><use transform="matrix(0.03703703703703704,0,0,0.03703703703703704,27.333333333333343,0)" xlink:href="#K"/><use transform="matrix(0.03703703703703704,0,0,0.03703703703703704,34.74074074074075,0)" xlink:href="#P"/><use transform="matrix(0.03703703703703704,0,0,0.03703703703703704,42.14814814814815,0)" xlink:href="#L"/><use transform="matrix(0.03703703703703704,0,0,0.03703703703703704,45.851851851851855,0)" xlink:href="#S"/><use transform="matrix(0.03703703703703704,0,0,0.03703703703703704,48.77777777777778,0)" xlink:href="#ak"/><use transform="matrix(0.03703703703703704,0,0,0.03703703703703704,55.44444444444444,0)" xlink:href="#M"/></g><path d="M190 0L58-211 59 0H30v-248h39L202-35l-2-213h31V0h-41" id="al"/><g id="o"><use transform="matrix(0.03703703703703704,0,0,0.03703703703703704,0,0)" xlink:href="#al"/><use transform="matrix(0.03703703703703704,0,0,0.03703703703703704,9.592592592592593,0)" xlink:href="#J"/><use transform="matrix(0.03703703703703704,0,0,0.03703703703703704,17,0)" xlink:href="#L"/></g><g id="p"><use transform="matrix(0.03703703703703704,0,0,0.03703703703703704,0,0)" xlink:href="#P"/><use transform="matrix(0.03703703703703704,0,0,0.03703703703703704,7.407407407407408,0)" xlink:href="#V"/><use transform="matrix(0.03703703703703704,0,0,0.03703703703703704,10.333333333333334,0)" xlink:href="#V"/></g><g id="q"><use transform="matrix(0.03703703703703704,0,0,0.03703703703703704,0,0)" xlink:href="#I"/><use transform="matrix(0.03703703703703704,0,0,0.03703703703703704,4.407407407407408,0)" xlink:href="#M"/><use transform="matrix(0.03703703703703704,0,0,0.03703703703703704,11.814814814814817,0)" xlink:href="#ag"/><use transform="matrix(0.03703703703703704,0,0,0.03703703703703704,19.222222222222225,0)" xlink:href="#ah"/><use transform="matrix(0.03703703703703704,0,0,0.03703703703703704,26.629629629629633,0)" xlink:href="#S"/><use transform="matrix(0.03703703703703704,0,0,0.03703703703703704,29.55555555555556,0)" xlink:href="#I"/><use transform="matrix(0.03703703703703704,0,0,0.03703703703703704,33.96296296296297,0)" xlink:href="#M"/><use transform="matrix(0.03703703703703704,0,0,0.03703703703703704,41.37037037037038,0)" xlink:href="#N"/></g><path d="M101-234c-31-9-42 10-38 44h38v23H63V0H32v-167H5v-23h27c-7-52 17-82 69-68v24" id="am"/><g id="r"><use transform="matrix(0.03703703703703704,0,0,0.03703703703703704,0,0)" xlink:href="#am"/><use transform="matrix(0.03703703703703704,0,0,0.03703703703703704,3.703703703703704,0)" xlink:href="#S"/><use transform="matrix(0.03703703703703704,0,0,0.03703703703703704,6.629629629629631,0)" xlink:href="#M"/><use transform="matrix(0.03703703703703704,0,0,0.03703703703703704,14.037037037037038,0)" xlink:href="#V"/><use transform="matrix(0.03703703703703704,0,0,0.03703703703703704,16.962962962962965,0)" xlink:href="#N"/><use transform="matrix(0.03703703703703704,0,0,0.03703703703703704,24.370370370370374,0)" xlink:href="#U"/></g><path d="M26 75v-336h71v23H56V52h41v23H26" id="an"/><path d="M30 0v-248h187v28H63v79h144v27H63v87h162V0H30" id="ao"/><path d="M3 75V52h41v-290H3v-23h71V75H3" id="ap"/><g id="s"><use transform="matrix(0.03703703703703704,0,0,0.03703703703703704,0,0)" xlink:href="#an"/><use transform="matrix(0.03703703703703704,0,0,0.03703703703703704,3.703703703703704,0)" xlink:href="#ao"/><use transform="matrix(0.03703703703703704,0,0,0.03703703703703704,12.592592592592593,0)" xlink:href="#V"/><use transform="matrix(0.03703703703703704,0,0,0.03703703703703704,15.518518518518519,0)" xlink:href="#U"/><use transform="matrix(0.03703703703703704,0,0,0.03703703703703704,22.185185185185187,0)" xlink:href="#M"/><use transform="matrix(0.03703703703703704,0,0,0.03703703703703704,29.592592592592595,0)" xlink:href="#ap"/></g><path d="M33-154v-36h34v36H33zM33 0v-36h34V0H33" id="aq"/><g id="t"><use transform="matrix(0.03703703703703704,0,0,0.03703703703703704,0,0)" xlink:href="#M"/><use transform="matrix(0.03703703703703704,0,0,0.03703703703703704,7.407407407407408,0)" xlink:href="#I"/><use transform="matrix(0.03703703703703704,0,0,0.03703703703703704,11.814814814814817,0)" xlink:href="#I"/><use transform="matrix(0.03703703703703704,0,0,0.03703703703703704,16.222222222222225,0)" xlink:href="#J"/><use transform="matrix(0.03703703703703704,0,0,0.03703703703703704,23.629629629629633,0)" xlink:href="#I"/><use transform="matrix(0.03703703703703704,0,0,0.03703703703703704,28.03703703703704,0)" xlink:href="#aq"/></g><g id="u"><use transform="matrix(0.03703703703703704,0,0,0.03703703703703704,0,0)" xlink:href="#ab"/><use transform="matrix(0.03703703703703704,0,0,0.03703703703703704,11.074074074074076,0)" xlink:href="#S"/><use transform="matrix(0.03703703703703704,0,0,0.03703703703703704,14.000000000000004,0)" xlink:href="#U"/><use transform="matrix(0.03703703703703704,0,0,0.03703703703703704,20.666666666666668,0)" xlink:href="#U"/><use transform="matrix(0.03703703703703704,0,0,0.03703703703703704,27.333333333333343,0)" xlink:href="#S"/><use transform="matrix(0.03703703703703704,0,0,0.03703703703703704,30.259259259259267,0)" xlink:href="#K"/><use transform="matrix(0.03703703703703704,0,0,0.03703703703703704,37.66666666666667,0)" xlink:href="#Y"/></g><g id="v"><use transform="matrix(0.03703703703703704,0,0,0.03703703703703704,0,0)" xlink:href="#I"/><use transform="matrix(0.03703703703703704,0,0,0.03703703703703704,4.407407407407408,0)" xlink:href="#M"/><use transform="matrix(0.03703703703703704,0,0,0.03703703703703704,11.814814814814817,0)" xlink:href="#ag"/><use transform="matrix(0.03703703703703704,0,0,0.03703703703703704,19.222222222222225,0)" xlink:href="#ah"/><use transform="matrix(0.03703703703703704,0,0,0.03703703703703704,26.629629629629633,0)" xlink:href="#S"/><use transform="matrix(0.03703703703703704,0,0,0.03703703703703704,29.55555555555556,0)" xlink:href="#I"/><use transform="matrix(0.03703703703703704,0,0,0.03703703703703704,33.96296296296297,0)" xlink:href="#M"/><use transform="matrix(0.03703703703703704,0,0,0.03703703703703704,41.37037037037038,0)" xlink:href="#N"/></g><g id="w"><use transform="matrix(0.03703703703703704,0,0,0.03703703703703704,0,0)" xlink:href="#am"/><use transform="matrix(0.03703703703703704,0,0,0.03703703703703704,3.703703703703704,0)" xlink:href="#S"/><use transform="matrix(0.03703703703703704,0,0,0.03703703703703704,6.629629629629631,0)" xlink:href="#M"/><use transform="matrix(0.03703703703703704,0,0,0.03703703703703704,14.037037037037038,0)" xlink:href="#V"/><use transform="matrix(0.03703703703703704,0,0,0.03703703703703704,16.962962962962965,0)" xlink:href="#N"/><use transform="matrix(0.03703703703703704,0,0,0.03703703703703704,24.370370370370374,0)" xlink:href="#U"/></g><g id="x"><use transform="matrix(0.03703703703703704,0,0,0.03703703703703704,0,0)" xlink:href="#ak"/><use transform="matrix(0.03703703703703704,0,0,0.03703703703703704,6.666666666666668,0)" xlink:href="#P"/><use transform="matrix(0.03703703703703704,0,0,0.03703703703703704,14.074074074074076,0)" xlink:href="#V"/><use transform="matrix(0.03703703703703704,0,0,0.03703703703703704,17.000000000000004,0)" xlink:href="#S"/><use transform="matrix(0.03703703703703704,0,0,0.03703703703703704,19.925925925925934,0)" xlink:href="#N"/><use transform="matrix(0.03703703703703704,0,0,0.03703703703703704,27.333333333333343,0)" xlink:href="#P"/><use transform="matrix(0.03703703703703704,0,0,0.03703703703703704,34.74074074074075,0)" xlink:href="#L"/><use transform="matrix(0.03703703703703704,0,0,0.03703703703703704,38.44444444444445,0)" xlink:href="#M"/><use transform="matrix(0.03703703703703704,0,0,0.03703703703703704,45.851851851851855,0)" xlink:href="#N"/></g><path d="M232-93c-1 65-40 97-104 97C67 4 28-28 28-90v-158h33c8 89-33 224 67 224 102 0 64-133 71-224h33v155" id="ar"/><g id="y"><use transform="matrix(0.03703703703703704,0,0,0.03703703703703704,0,0)" xlink:href="#ar"/><use transform="matrix(0.03703703703703704,0,0,0.03703703703703704,9.592592592592593,0)" xlink:href="#U"/><use transform="matrix(0.03703703703703704,0,0,0.03703703703703704,16.25925925925926,0)" xlink:href="#M"/><use transform="matrix(0.03703703703703704,0,0,0.03703703703703704,23.66666666666667,0)" xlink:href="#I"/><path d="M-.67.92h29.4v.98H-.66z"/></g><g id="z"><use transform="matrix(0.03703703703703704,0,0,0.03703703703703704,0,0)" xlink:href="#U"/><use transform="matrix(0.03703703703703704,0,0,0.03703703703703704,6.666666666666668,0)" xlink:href="#L"/><use transform="matrix(0.03703703703703704,0,0,0.03703703703703704,10.370370370370372,0)" xlink:href="#J"/><use transform="matrix(0.03703703703703704,0,0,0.03703703703703704,17.77777777777778,0)" xlink:href="#I"/><use transform="matrix(0.03703703703703704,0,0,0.03703703703703704,22.185185185185187,0)" xlink:href="#M"/></g><g id="A"><use transform="matrix(0.03703703703703704,0,0,0.03703703703703704,0,0)" xlink:href="#Q"/><use transform="matrix(0.03703703703703704,0,0,0.03703703703703704,6.666666666666668,0)" xlink:href="#J"/><use transform="matrix(0.03703703703703704,0,0,0.03703703703703704,14.074074074074076,0)" xlink:href="#ac"/><use transform="matrix(0.03703703703703704,0,0,0.03703703703703704,21.481481481481485,0)" xlink:href="#ad"/></g><g id="B"><use transform="matrix(0.03703703703703704,0,0,0.03703703703703704,0,0)" xlink:href="#ab"/><use transform="matrix(0.03703703703703704,0,0,0.03703703703703704,11.074074074074076,0)" xlink:href="#M"/><use transform="matrix(0.03703703703703704,0,0,0.03703703703703704,18.481481481481485,0)" xlink:href="#U"/><use transform="matrix(0.03703703703703704,0,0,0.03703703703703704,25.148148148148152,0)" xlink:href="#U"/><use transform="matrix(0.03703703703703704,0,0,0.03703703703703704,31.81481481481482,0)" xlink:href="#P"/><use transform="matrix(0.03703703703703704,0,0,0.03703703703703704,39.22222222222223,0)" xlink:href="#Y"/><use transform="matrix(0.03703703703703704,0,0,0.03703703703703704,46.62962962962963,0)" xlink:href="#M"/></g><g id="C"><use transform="matrix(0.03703703703703704,0,0,0.03703703703703704,0,0)" xlink:href="#ab"/><use transform="matrix(0.03703703703703704,0,0,0.03703703703703704,11.074074074074076,0)" xlink:href="#M"/><use transform="matrix(0.03703703703703704,0,0,0.03703703703703704,18.481481481481485,0)" xlink:href="#U"/><use transform="matrix(0.03703703703703704,0,0,0.03703703703703704,25.148148148148152,0)" xlink:href="#U"/><use transform="matrix(0.03703703703703704,0,0,0.03703703703703704,31.81481481481482,0)" xlink:href="#P"/><use transform="matrix(0.03703703703703704,0,0,0.03703703703703704,39.22222222222223,0)" xlink:href="#Y"/><use transform="matrix(0.03703703703703704,0,0,0.03703703703703704,46.62962962962963,0)" xlink:href="#M"/></g><g id="D"><use transform="matrix(0.03703703703703704,0,0,0.03703703703703704,0,0)" xlink:href="#U"/><use transform="matrix(0.03703703703703704,0,0,0.03703703703703704,6.666666666666668,0)" xlink:href="#M"/><use transform="matrix(0.03703703703703704,0,0,0.03703703703703704,14.074074074074076,0)" xlink:href="#K"/><use transform="matrix(0.03703703703703704,0,0,0.03703703703703704,21.481481481481485,0)" xlink:href="#L"/></g><g id="E"><use transform="matrix(0.03703703703703704,0,0,0.03703703703703704,0,0)" xlink:href="#U"/><use transform="matrix(0.03703703703703704,0,0,0.03703703703703704,6.666666666666668,0)" xlink:href="#ah"/><use transform="matrix(0.03703703703703704,0,0,0.03703703703703704,14.074074074074076,0)" xlink:href="#Q"/><use transform="matrix(0.03703703703703704,0,0,0.03703703703703704,20.740740740740744,0)" xlink:href="#Q"/><use transform="matrix(0.03703703703703704,0,0,0.03703703703703704,27.407407407407412,0)" xlink:href="#M"/><use transform="matrix(0.03703703703703704,0,0,0.03703703703703704,34.814814814814824,0)" xlink:href="#U"/><use transform="matrix(0.03703703703703704,0,0,0.03703703703703704,41.481481481481495,0)" xlink:href="#U"/></g><g id="F"><use transform="matrix(0.03703703703703704,0,0,0.03703703703703704,0,0)" xlink:href="#ab"/><use transform="matrix(0.03703703703703704,0,0,0.03703703703703704,11.074074074074076,0)" xlink:href="#M"/><use transform="matrix(0.03703703703703704,0,0,0.03703703703703704,18.481481481481485,0)" xlink:href="#U"/><use transform="matrix(0.03703703703703704,0,0,0.03703703703703704,25.148148148148152,0)" xlink:href="#U"/><use transform="matrix(0.03703703703703704,0,0,0.03703703703703704,31.81481481481482,0)" xlink:href="#P"/><use transform="matrix(0.03703703703703704,0,0,0.03703703703703704,39.22222222222223,0)" xlink:href="#Y"/><use transform="matrix(0.03703703703703704,0,0,0.03703703703703704,46.62962962962963,0)" xlink:href="#M"/></g><g id="G"><use transform="matrix(0.03703703703703704,0,0,0.03703703703703704,0,0)" xlink:href="#ab"/><use transform="matrix(0.03703703703703704,0,0,0.03703703703703704,11.074074074074076,0)" xlink:href="#M"/><use transform="matrix(0.03703703703703704,0,0,0.03703703703703704,18.481481481481485,0)" xlink:href="#U"/><use transform="matrix(0.03703703703703704,0,0,0.03703703703703704,25.148148148148152,0)" xlink:href="#U"/><use transform="matrix(0.03703703703703704,0,0,0.03703703703703704,31.81481481481482,0)" xlink:href="#P"/><use transform="matrix(0.03703703703703704,0,0,0.03703703703703704,39.22222222222223,0)" xlink:href="#Y"/><use transform="matrix(0.03703703703703704,0,0,0.03703703703703704,46.62962962962963,0)" xlink:href="#M"/></g></defs></g></svg>